{"glyphs":{"0":{"ha":663,"x_min":44,"x_max":618,"o":"m 333 -18 q 184 19 250 -18 q 81 123 118 57 q 44 272 44 189 q 82 418 44 354 q 185 518 119 482 q 335 554 251 554 q 481 517 417 554 q 582 415 546 481 q 618 268 618 350 q 582 121 618 186 q 481 19 546 56 q 333 -18 415 -18 m 349 4 q 465 70 425 4 q 504 250 504 136 q 452 461 504 390 q 321 532 400 532 q 200 464 243 532 q 157 285 157 396 q 210 83 157 161 q 349 4 263 4 z "},"1":{"ha":461,"x_min":56,"x_max":433,"o":"m 69 0 q 67 8 67 0 q 69 17 67 17 q 155 24 128 17 q 192 51 182 31 q 203 113 203 71 l 203 367 q 195 438 203 418 q 164 458 188 458 q 67 426 138 458 l 65 425 q 58 432 61 425 q 61 442 56 439 l 285 549 q 289 550 286 550 q 296 547 293 550 q 299 539 299 543 l 299 113 q 308 50 299 69 q 344 24 317 31 q 429 17 371 17 q 433 8 433 17 q 429 0 433 0 q 356 1 382 0 l 250 3 l 146 1 q 69 0 118 0 z "},"2":{"ha":558,"x_min":46,"x_max":521,"o":"m 51 26 q 235 190 172 128 q 326 299 299 251 q 354 393 354 346 q 322 483 354 447 q 239 519 290 519 q 147 475 185 519 q 82 343 108 431 q 76 342 82 342 q 65 347 64 342 l 122 567 q 128 569 122 569 q 135 567 132 569 q 138 564 139 565 q 136 549 136 558 q 157 526 136 526 q 199 536 169 526 q 303 554 258 554 q 417 517 375 554 q 458 418 458 479 q 424 315 458 365 q 335 219 389 265 q 175 92 282 174 q 172 85 169 88 q 181 82 174 82 q 379 86 321 82 q 466 107 438 90 q 504 165 494 124 q 513 169 506 169 q 521 165 521 168 l 497 15 q 494 5 497 10 q 485 0 490 0 l 61 0 q 50 10 54 0 q 51 26 46 21 z "},"3":{"ha":543,"x_min":42,"x_max":490,"o":"m 301 182 q 442 115 394 169 q 490 -14 490 60 q 445 -151 490 -82 q 308 -282 400 -221 q 79 -382 215 -343 q 70 -376 74 -383 q 72 -367 67 -368 q 304 -219 233 -312 q 375 -31 375 -125 q 335 98 375 47 q 219 149 296 149 q 154 140 182 149 q 147 147 150 139 q 150 157 144 156 q 299 234 254 183 q 344 372 344 285 q 317 481 344 442 q 236 521 290 521 q 60 358 113 521 q 54 357 60 357 q 43 363 42 357 l 94 565 q 100 568 97 568 q 108 566 104 568 q 111 563 113 564 q 108 547 108 551 q 132 524 108 524 q 176 535 147 524 q 231 549 208 544 q 282 554 254 554 q 405 508 360 554 q 450 396 450 461 q 410 270 450 329 q 301 182 369 211 z "},"4":{"ha":629,"x_min":28,"x_max":583,"o":"m 578 63 q 583 38 583 63 q 581 13 583 25 q 576 1 579 1 q 467 7 536 4 l 467 -204 q 456 -224 467 -219 l 382 -261 q 374 -264 374 -264 q 369 -253 369 -264 l 369 10 q 43 11 283 11 q 32 17 36 11 q 33 28 28 22 l 446 550 q 454 553 449 553 q 463 551 458 553 q 467 544 467 549 l 467 60 q 578 63 497 60 m 115 54 q 369 57 228 54 l 369 389 l 108 64 q 106 57 104 60 q 115 54 108 54 z "},"5":{"ha":568,"x_min":79,"x_max":496,"o":"m 165 435 q 144 415 147 435 l 118 272 q 401 201 311 271 q 492 13 492 132 q 451 -131 492 -67 q 324 -256 411 -196 q 94 -382 238 -317 l 93 -382 q 84 -376 88 -382 q 86 -367 81 -369 q 317 -196 250 -282 q 383 -11 383 -110 q 308 168 383 104 q 94 232 233 232 q 83 237 88 232 q 81 249 79 242 l 125 496 q 129 508 126 506 q 143 511 132 510 q 378 540 318 532 q 455 558 438 549 q 479 588 472 567 q 488 591 481 592 q 494 585 496 590 l 467 465 q 453 445 461 450 q 428 440 446 440 l 165 435 z "},"6":{"ha":646,"x_min":61,"x_max":601,"o":"m 419 396 q 556 344 511 396 q 601 221 601 293 q 563 101 601 156 q 460 14 525 46 q 319 -18 396 -18 q 131 63 200 -18 q 61 289 61 143 q 121 543 61 418 q 292 767 181 668 q 556 918 404 865 q 564 913 561 919 q 563 903 567 906 q 346 747 435 843 q 212 537 257 650 q 167 311 167 424 q 219 97 167 183 q 358 11 271 11 q 458 57 421 11 q 496 183 496 103 q 463 304 496 258 q 364 350 429 350 q 302 337 331 350 q 238 293 274 324 q 233 292 236 292 q 226 296 229 292 q 224 303 222 300 q 419 396 301 396 z "},"7":{"ha":596,"x_min":26,"x_max":546,"o":"m 232 -300 q 203 -333 224 -324 l 119 -382 l 118 -382 q 112 -378 115 -382 q 110 -372 108 -375 l 476 439 q 471 449 482 449 q 189 443 268 449 q 84 419 110 438 q 44 354 58 401 q 38 351 42 351 q 30 353 33 351 q 28 358 26 356 l 81 574 q 90 576 82 576 q 97 572 99 575 q 96 558 96 567 q 109 540 96 544 q 163 536 122 536 l 531 536 q 541 530 536 536 q 543 518 546 524 l 232 -300 z "},"8":{"ha":679,"x_min":61,"x_max":633,"o":"m 415 481 q 529 409 486 440 q 603 332 572 378 q 633 225 633 286 q 593 101 633 157 q 485 14 553 46 q 336 -18 417 -18 q 192 13 254 -18 q 95 97 129 44 q 61 210 61 149 q 116 357 61 288 q 256 467 171 426 q 170 538 200 500 q 140 628 140 576 q 174 722 140 683 q 258 778 207 760 q 360 797 308 797 q 462 776 418 797 q 528 721 506 754 q 551 654 551 688 q 515 565 551 613 q 415 481 478 517 m 340 772 q 264 746 292 772 q 236 674 236 719 q 277 577 236 617 q 399 492 318 538 q 444 562 429 528 q 460 636 460 596 q 424 733 460 693 q 340 772 388 772 m 374 8 q 491 56 446 8 q 536 178 536 104 q 507 282 536 238 q 437 356 478 326 q 326 425 396 386 q 278 453 303 436 q 197 364 225 418 q 168 246 168 310 q 194 129 168 183 q 268 42 221 75 q 374 8 315 8 z "},"9":{"ha":646,"x_min":44,"x_max":585,"o":"m 240 140 q 129 170 174 140 q 65 245 85 200 q 44 339 44 290 q 78 450 44 401 q 169 526 111 499 q 300 554 228 554 q 508 467 432 554 q 585 233 585 379 q 526 -17 585 107 q 354 -239 467 -142 q 90 -382 242 -336 q 83 -376 86 -383 q 85 -367 79 -369 q 300 -219 211 -314 q 434 -12 389 -124 q 479 207 479 100 q 459 354 479 281 q 394 478 439 428 q 279 528 349 528 q 183 485 217 528 q 150 368 150 443 q 186 236 150 288 q 290 185 222 185 q 349 196 324 185 q 408 233 375 207 q 413 235 410 235 q 421 231 417 235 q 424 224 425 226 q 343 162 390 183 q 240 140 296 140 z "},"\u0000":{"ha":0,"x_min":0,"x_max":0,"o":""},"\r":{"ha":325,"x_min":0,"x_max":0,"o":""}," ":{"ha":325,"x_min":0,"x_max":0,"o":""},"A":{"ha":903,"x_min":-17,"x_max":911,"o":"m 907 17 q 911 8 911 17 q 907 0 911 0 q 833 3 883 0 q 746 6 778 6 q 663 3 713 6 q 593 0 615 0 q 588 8 588 0 q 593 17 588 17 q 660 26 640 17 q 681 60 681 36 q 665 117 681 79 l 540 443 l 313 443 l 206 182 q 182 86 182 125 q 210 32 182 47 q 297 17 238 17 q 303 8 303 17 q 296 0 303 0 q 225 3 278 0 q 131 6 164 6 q 53 3 97 6 q -11 0 14 0 q -17 8 -17 0 q -11 17 -17 17 q 78 56 32 17 q 160 176 124 94 l 457 882 q 469 886 460 886 q 486 881 482 886 l 776 117 q 806 53 794 72 q 840 26 818 35 q 907 17 863 17 m 325 475 l 529 475 l 431 732 l 325 475 z "},"Á":{"ha":903,"x_min":-17,"x_max":911,"o":"m 907 17 q 911 8 911 17 q 907 0 911 0 q 833 3 883 0 q 746 6 778 6 q 663 3 713 6 q 593 0 615 0 q 588 8 588 0 q 593 17 588 17 q 660 26 640 17 q 681 60 681 36 q 665 117 681 79 l 540 443 l 313 443 l 206 182 q 182 86 182 125 q 210 32 182 47 q 297 17 238 17 q 303 8 303 17 q 296 0 303 0 q 225 3 278 0 q 131 6 164 6 q 53 3 97 6 q -11 0 14 0 q -17 8 -17 0 q -11 17 -17 17 q 78 56 32 17 q 160 176 124 94 l 457 882 q 469 886 460 886 q 486 881 482 886 l 776 117 q 806 53 794 72 q 840 26 818 35 q 907 17 863 17 m 325 475 l 529 475 l 431 732 l 325 475 m 383 942 q 375 948 378 942 q 376 957 372 954 q 497 1044 426 988 q 525 1067 510 1054 q 561 1093 540 1079 q 601 1088 567 1097 q 661 1065 635 1078 q 675 1050 688 1053 q 386 943 526 1011 l 383 942 z "},"Ă":{"ha":903,"x_min":-17,"x_max":911,"o":"m 907 17 q 911 8 911 17 q 907 0 911 0 q 833 3 883 0 q 746 6 778 6 q 663 3 713 6 q 593 0 615 0 q 588 8 588 0 q 593 17 588 17 q 660 26 640 17 q 681 60 681 36 q 665 117 681 79 l 540 443 l 313 443 l 206 182 q 182 86 182 125 q 210 32 182 47 q 297 17 238 17 q 303 8 303 17 q 296 0 303 0 q 225 3 278 0 q 131 6 164 6 q 53 3 97 6 q -11 0 14 0 q -17 8 -17 0 q -11 17 -17 17 q 78 56 32 17 q 160 176 124 94 l 457 882 q 469 886 460 886 q 486 881 482 886 l 776 117 q 806 53 794 72 q 840 26 818 35 q 907 17 863 17 m 325 475 l 529 475 l 431 732 l 325 475 m 458 924 q 376 956 413 924 q 326 1049 339 989 q 348 1064 325 1057 q 392 1071 371 1071 q 408 1067 406 1071 q 441 1006 418 1028 q 492 985 464 985 q 540 1004 518 985 q 574 1061 561 1024 q 581 1065 574 1065 q 592 1063 586 1065 q 597 1057 597 1060 q 542 958 581 993 q 458 924 504 924 z "},"Ắ":{"ha":903,"x_min":-17,"x_max":911,"o":"m 907 17 q 911 8 911 17 q 907 0 911 0 q 833 3 883 0 q 746 6 778 6 q 663 3 713 6 q 593 0 615 0 q 588 8 588 0 q 593 17 588 17 q 660 26 640 17 q 681 60 681 36 q 665 117 681 79 l 540 443 l 313 443 l 206 182 q 182 86 182 125 q 210 32 182 47 q 297 17 238 17 q 303 8 303 17 q 296 0 303 0 q 225 3 278 0 q 131 6 164 6 q 53 3 97 6 q -11 0 14 0 q -17 8 -17 0 q -11 17 -17 17 q 78 56 32 17 q 160 176 124 94 l 457 882 q 469 886 460 886 q 486 881 482 886 l 776 117 q 806 53 794 72 q 840 26 818 35 q 907 17 863 17 m 325 475 l 529 475 l 431 732 l 325 475 m 454 924 q 372 956 408 924 q 322 1049 335 989 q 344 1064 321 1057 q 388 1071 367 1071 q 404 1067 401 1071 q 437 1006 414 1028 q 488 985 460 985 q 535 1004 514 985 q 569 1061 557 1024 q 576 1065 569 1065 q 588 1063 582 1065 q 593 1057 593 1060 q 538 958 576 993 q 454 924 500 924 m 468 1050 q 460 1056 463 1050 q 461 1064 458 1061 q 558 1203 521 1136 q 594 1199 563 1208 q 651 1176 626 1189 q 665 1158 676 1163 q 566 1113 610 1138 q 471 1051 522 1088 l 468 1050 z "},"Ặ":{"ha":903,"x_min":-17,"x_max":911,"o":"m 907 17 q 911 8 911 17 q 907 0 911 0 q 833 3 883 0 q 746 6 778 6 q 663 3 713 6 q 593 0 615 0 q 588 8 588 0 q 593 17 588 17 q 660 26 640 17 q 681 60 681 36 q 665 117 681 79 l 540 443 l 313 443 l 206 182 q 182 86 182 125 q 210 32 182 47 q 297 17 238 17 q 303 8 303 17 q 296 0 303 0 q 225 3 278 0 q 131 6 164 6 q 53 3 97 6 q -11 0 14 0 q -17 8 -17 0 q -11 17 -17 17 q 78 56 32 17 q 160 176 124 94 l 457 882 q 469 886 460 886 q 486 881 482 886 l 776 117 q 806 53 794 72 q 840 26 818 35 q 907 17 863 17 m 325 475 l 529 475 l 431 732 l 325 475 m 463 -271 q 412 -253 431 -271 q 393 -203 393 -235 q 412 -156 393 -174 q 463 -139 431 -139 q 510 -156 493 -139 q 528 -203 528 -174 q 510 -253 528 -235 q 463 -271 493 -271 m 458 924 q 376 956 413 924 q 326 1049 339 989 q 348 1064 325 1057 q 392 1071 371 1071 q 408 1067 406 1071 q 441 1006 418 1028 q 492 985 464 985 q 540 1004 518 985 q 574 1061 561 1024 q 581 1065 574 1065 q 592 1063 586 1065 q 597 1057 597 1060 q 542 958 581 993 q 458 924 504 924 z "},"Ằ":{"ha":903,"x_min":-17,"x_max":911,"o":"m 907 17 q 911 8 911 17 q 907 0 911 0 q 833 3 883 0 q 746 6 778 6 q 663 3 713 6 q 593 0 615 0 q 588 8 588 0 q 593 17 588 17 q 660 26 640 17 q 681 60 681 36 q 665 117 681 79 l 540 443 l 313 443 l 206 182 q 182 86 182 125 q 210 32 182 47 q 297 17 238 17 q 303 8 303 17 q 296 0 303 0 q 225 3 278 0 q 131 6 164 6 q 53 3 97 6 q -11 0 14 0 q -17 8 -17 0 q -11 17 -17 17 q 78 56 32 17 q 160 176 124 94 l 457 882 q 469 886 460 886 q 486 881 482 886 l 776 117 q 806 53 794 72 q 840 26 818 35 q 907 17 863 17 m 325 475 l 529 475 l 431 732 l 325 475 m 458 924 q 376 956 413 924 q 326 1049 339 989 q 348 1064 325 1057 q 392 1071 371 1071 q 408 1067 406 1071 q 441 1006 418 1028 q 492 985 464 985 q 540 1004 518 985 q 574 1061 561 1024 q 581 1065 574 1065 q 592 1063 586 1065 q 597 1057 597 1060 q 542 958 581 993 q 458 924 504 924 m 519 1051 q 329 1158 421 1121 q 342 1176 317 1163 q 399 1199 367 1189 q 435 1203 431 1208 q 531 1065 474 1136 q 532 1061 532 1064 q 528 1053 532 1056 q 519 1051 525 1050 z "},"Ẳ":{"ha":903,"x_min":-17,"x_max":911,"o":"m 907 17 q 911 8 911 17 q 907 0 911 0 q 833 3 883 0 q 746 6 778 6 q 663 3 713 6 q 593 0 615 0 q 588 8 588 0 q 593 17 588 17 q 660 26 640 17 q 681 60 681 36 q 665 117 681 79 l 540 443 l 313 443 l 206 182 q 182 86 182 125 q 210 32 182 47 q 297 17 238 17 q 303 8 303 17 q 296 0 303 0 q 225 3 278 0 q 131 6 164 6 q 53 3 97 6 q -11 0 14 0 q -17 8 -17 0 q -11 17 -17 17 q 78 56 32 17 q 160 176 124 94 l 457 882 q 469 886 460 886 q 486 881 482 886 l 776 117 q 806 53 794 72 q 840 26 818 35 q 907 17 863 17 m 325 475 l 529 475 l 431 732 l 325 475 m 456 924 q 373 956 410 924 q 324 1049 336 989 q 345 1064 322 1057 q 389 1071 368 1071 q 406 1067 403 1071 q 438 1006 415 1028 q 489 985 461 985 q 537 1004 515 985 q 571 1061 558 1024 q 578 1065 571 1065 q 589 1063 583 1065 q 594 1057 594 1060 q 540 958 578 993 q 456 924 501 924 m 478 1040 q 475 1058 475 1054 q 493 1110 475 1079 q 503 1131 494 1114 q 511 1164 511 1147 q 497 1196 511 1185 q 465 1207 483 1207 q 436 1200 447 1207 l 435 1200 q 425 1205 429 1200 q 425 1211 421 1210 q 510 1238 469 1238 q 560 1220 542 1238 q 579 1179 579 1203 q 568 1143 579 1158 q 533 1104 557 1128 q 501 1069 511 1083 q 494 1040 492 1056 q 487 1038 494 1038 q 478 1040 479 1038 z "},"Ẵ":{"ha":903,"x_min":-17,"x_max":911,"o":"m 907 17 q 911 8 911 17 q 907 0 911 0 q 833 3 883 0 q 746 6 778 6 q 663 3 713 6 q 593 0 615 0 q 588 8 588 0 q 593 17 588 17 q 660 26 640 17 q 681 60 681 36 q 665 117 681 79 l 540 443 l 313 443 l 206 182 q 182 86 182 125 q 210 32 182 47 q 297 17 238 17 q 303 8 303 17 q 296 0 303 0 q 225 3 278 0 q 131 6 164 6 q 53 3 97 6 q -11 0 14 0 q -17 8 -17 0 q -11 17 -17 17 q 78 56 32 17 q 160 176 124 94 l 457 882 q 469 886 460 886 q 486 881 482 886 l 776 117 q 806 53 794 72 q 840 26 818 35 q 907 17 863 17 m 325 475 l 529 475 l 431 732 l 325 475 m 454 924 q 372 956 408 924 q 322 1049 335 989 q 344 1064 321 1057 q 388 1071 367 1071 q 404 1067 401 1071 q 437 1006 414 1028 q 488 985 460 985 q 535 1004 514 985 q 569 1061 557 1024 q 576 1065 569 1065 q 588 1063 582 1065 q 593 1057 593 1060 q 538 958 576 993 q 454 924 500 924 m 293 1113 q 285 1116 289 1113 q 283 1122 282 1119 q 393 1217 332 1217 q 464 1201 415 1217 q 506 1191 471 1200 q 571 1182 540 1182 q 612 1191 597 1182 q 642 1219 626 1200 l 643 1219 q 650 1216 646 1219 q 653 1210 654 1213 q 602 1135 624 1154 q 550 1117 581 1117 q 499 1124 526 1117 q 465 1132 472 1131 q 365 1150 406 1150 q 325 1142 336 1150 q 294 1113 314 1135 l 293 1113 z "},"Ǎ":{"ha":903,"x_min":-17,"x_max":911,"o":"m 907 17 q 911 8 911 17 q 907 0 911 0 q 833 3 883 0 q 746 6 778 6 q 663 3 713 6 q 593 0 615 0 q 588 8 588 0 q 593 17 588 17 q 660 26 640 17 q 681 60 681 36 q 665 117 681 79 l 540 443 l 313 443 l 206 182 q 182 86 182 125 q 210 32 182 47 q 297 17 238 17 q 303 8 303 17 q 296 0 303 0 q 225 3 278 0 q 131 6 164 6 q 53 3 97 6 q -11 0 14 0 q -17 8 -17 0 q -11 17 -17 17 q 78 56 32 17 q 160 176 124 94 l 457 882 q 469 886 460 886 q 486 881 482 886 l 776 117 q 806 53 794 72 q 840 26 818 35 q 907 17 863 17 m 325 475 l 529 475 l 431 732 l 325 475 m 321 1082 l 321 1083 q 324 1090 321 1088 q 329 1092 326 1093 l 464 1019 l 596 1092 l 597 1092 q 605 1088 601 1092 q 606 1082 608 1083 l 478 938 q 465 932 474 932 q 451 938 457 932 l 321 1082 z "},"Â":{"ha":903,"x_min":-17,"x_max":911,"o":"m 907 17 q 911 8 911 17 q 907 0 911 0 q 833 3 883 0 q 746 6 778 6 q 663 3 713 6 q 593 0 615 0 q 588 8 588 0 q 593 17 588 17 q 660 26 640 17 q 681 60 681 36 q 665 117 681 79 l 540 443 l 313 443 l 206 182 q 182 86 182 125 q 210 32 182 47 q 297 17 238 17 q 303 8 303 17 q 296 0 303 0 q 225 3 278 0 q 131 6 164 6 q 53 3 97 6 q -11 0 14 0 q -17 8 -17 0 q -11 17 -17 17 q 78 56 32 17 q 160 176 124 94 l 457 882 q 469 886 460 886 q 486 881 482 886 l 776 117 q 806 53 794 72 q 840 26 818 35 q 907 17 863 17 m 325 475 l 529 475 l 431 732 l 325 475 m 336 917 q 328 920 332 917 q 328 926 325 924 l 454 1069 q 467 1076 458 1076 q 481 1069 474 1076 l 613 926 q 612 919 615 924 q 606 917 608 914 l 468 988 l 338 917 l 336 917 z "},"Ấ":{"ha":903,"x_min":-17,"x_max":911,"o":"m 907 17 q 911 8 911 17 q 907 0 911 0 q 833 3 883 0 q 746 6 778 6 q 663 3 713 6 q 593 0 615 0 q 588 8 588 0 q 593 17 588 17 q 660 26 640 17 q 681 60 681 36 q 665 117 681 79 l 540 443 l 313 443 l 206 182 q 182 86 182 125 q 210 32 182 47 q 297 17 238 17 q 303 8 303 17 q 296 0 303 0 q 225 3 278 0 q 131 6 164 6 q 53 3 97 6 q -11 0 14 0 q -17 8 -17 0 q -11 17 -17 17 q 78 56 32 17 q 160 176 124 94 l 457 882 q 469 886 460 886 q 486 881 482 886 l 776 117 q 806 53 794 72 q 840 26 818 35 q 907 17 863 17 m 325 475 l 529 475 l 431 732 l 325 475 m 336 917 q 328 920 332 917 q 328 926 325 924 l 454 1069 q 467 1076 458 1076 q 481 1069 474 1076 l 613 926 q 612 919 615 924 q 606 917 608 914 l 468 988 l 338 917 l 336 917 m 563 1008 q 555 1014 557 1008 q 556 1022 553 1019 q 653 1161 615 1094 q 689 1157 657 1167 q 746 1134 721 1147 q 760 1117 771 1121 q 660 1071 704 1096 q 565 1010 617 1046 l 563 1008 z "},"Ậ":{"ha":903,"x_min":-17,"x_max":911,"o":"m 907 17 q 911 8 911 17 q 907 0 911 0 q 833 3 883 0 q 746 6 778 6 q 663 3 713 6 q 593 0 615 0 q 588 8 588 0 q 593 17 588 17 q 660 26 640 17 q 681 60 681 36 q 665 117 681 79 l 540 443 l 313 443 l 206 182 q 182 86 182 125 q 210 32 182 47 q 297 17 238 17 q 303 8 303 17 q 296 0 303 0 q 225 3 278 0 q 131 6 164 6 q 53 3 97 6 q -11 0 14 0 q -17 8 -17 0 q -11 17 -17 17 q 78 56 32 17 q 160 176 124 94 l 457 882 q 469 886 460 886 q 486 881 482 886 l 776 117 q 806 53 794 72 q 840 26 818 35 q 907 17 863 17 m 325 475 l 529 475 l 431 732 l 325 475 m 463 -271 q 412 -253 431 -271 q 393 -203 393 -235 q 412 -156 393 -174 q 463 -139 431 -139 q 510 -156 493 -139 q 528 -203 528 -174 q 510 -253 528 -235 q 463 -271 493 -271 m 336 917 q 328 920 332 917 q 328 926 325 924 l 454 1069 q 467 1076 458 1076 q 481 1069 474 1076 l 613 926 q 612 919 615 924 q 606 917 608 914 l 468 988 l 338 917 l 336 917 z "},"Ầ":{"ha":903,"x_min":-17,"x_max":911,"o":"m 907 17 q 911 8 911 17 q 907 0 911 0 q 833 3 883 0 q 746 6 778 6 q 663 3 713 6 q 593 0 615 0 q 588 8 588 0 q 593 17 588 17 q 660 26 640 17 q 681 60 681 36 q 665 117 681 79 l 540 443 l 313 443 l 206 182 q 182 86 182 125 q 210 32 182 47 q 297 17 238 17 q 303 8 303 17 q 296 0 303 0 q 225 3 278 0 q 131 6 164 6 q 53 3 97 6 q -11 0 14 0 q -17 8 -17 0 q -11 17 -17 17 q 78 56 32 17 q 160 176 124 94 l 457 882 q 469 886 460 886 q 486 881 482 886 l 776 117 q 806 53 794 72 q 840 26 818 35 q 907 17 863 17 m 325 475 l 529 475 l 431 732 l 325 475 m 336 917 q 328 920 332 917 q 328 926 325 924 l 454 1069 q 467 1076 458 1076 q 481 1069 474 1076 l 613 926 q 612 919 615 924 q 606 917 608 914 l 468 988 l 338 917 l 336 917 m 681 983 q 490 1090 582 1053 q 503 1108 478 1094 q 560 1131 528 1121 q 596 1135 592 1140 q 692 997 635 1068 q 693 993 693 996 q 690 985 693 988 q 681 983 686 982 z "},"Ẩ":{"ha":903,"x_min":-17,"x_max":911,"o":"m 907 17 q 911 8 911 17 q 907 0 911 0 q 833 3 883 0 q 746 6 778 6 q 663 3 713 6 q 593 0 615 0 q 588 8 588 0 q 593 17 588 17 q 660 26 640 17 q 681 60 681 36 q 665 117 681 79 l 540 443 l 313 443 l 206 182 q 182 86 182 125 q 210 32 182 47 q 297 17 238 17 q 303 8 303 17 q 296 0 303 0 q 225 3 278 0 q 131 6 164 6 q 53 3 97 6 q -11 0 14 0 q -17 8 -17 0 q -11 17 -17 17 q 78 56 32 17 q 160 176 124 94 l 457 882 q 469 886 460 886 q 486 881 482 886 l 776 117 q 806 53 794 72 q 840 26 818 35 q 907 17 863 17 m 325 475 l 529 475 l 431 732 l 325 475 m 336 907 q 328 910 332 907 q 328 917 325 914 l 454 1060 q 467 1067 458 1067 q 481 1060 474 1067 l 613 917 q 612 909 615 914 q 606 907 608 904 l 468 978 l 338 907 l 336 907 m 571 989 q 568 1007 568 1003 q 586 1058 568 1028 q 596 1079 588 1063 q 604 1113 604 1096 q 590 1144 604 1133 q 558 1156 576 1156 q 529 1149 540 1156 l 528 1149 q 518 1153 522 1149 q 518 1160 514 1158 q 603 1186 563 1186 q 653 1169 635 1186 q 672 1128 672 1151 q 661 1092 672 1107 q 626 1053 650 1076 q 594 1018 604 1032 q 588 989 585 1004 q 580 986 588 986 q 571 989 572 986 z "},"Ẫ":{"ha":903,"x_min":-17,"x_max":911,"o":"m 907 17 q 911 8 911 17 q 907 0 911 0 q 833 3 883 0 q 746 6 778 6 q 663 3 713 6 q 593 0 615 0 q 588 8 588 0 q 593 17 588 17 q 660 26 640 17 q 681 60 681 36 q 665 117 681 79 l 540 443 l 313 443 l 206 182 q 182 86 182 125 q 210 32 182 47 q 297 17 238 17 q 303 8 303 17 q 296 0 303 0 q 225 3 278 0 q 131 6 164 6 q 53 3 97 6 q -11 0 14 0 q -17 8 -17 0 q -11 17 -17 17 q 78 56 32 17 q 160 176 124 94 l 457 882 q 469 886 460 886 q 486 881 482 886 l 776 117 q 806 53 794 72 q 840 26 818 35 q 907 17 863 17 m 325 475 l 529 475 l 431 732 l 325 475 m 336 917 q 328 920 332 917 q 328 926 325 924 l 454 1069 q 467 1076 458 1076 q 481 1069 474 1076 l 613 926 q 612 919 615 924 q 606 917 608 914 l 468 988 l 338 917 l 336 917 m 306 1088 q 298 1091 301 1088 q 296 1097 294 1094 q 406 1190 346 1190 q 478 1176 422 1190 q 583 1157 544 1157 q 624 1166 610 1157 q 654 1194 639 1175 l 656 1194 q 663 1191 660 1194 q 665 1185 667 1188 q 615 1110 636 1129 q 563 1090 593 1090 q 522 1095 544 1090 q 478 1107 500 1100 q 427 1119 454 1114 q 378 1125 400 1125 q 340 1118 353 1125 q 319 1101 328 1111 q 307 1088 311 1092 l 306 1088 z "},"Ä":{"ha":903,"x_min":-17,"x_max":911,"o":"m 907 17 q 911 8 911 17 q 907 0 911 0 q 833 3 883 0 q 746 6 778 6 q 663 3 713 6 q 593 0 615 0 q 588 8 588 0 q 593 17 588 17 q 660 26 640 17 q 681 60 681 36 q 665 117 681 79 l 540 443 l 313 443 l 206 182 q 182 86 182 125 q 210 32 182 47 q 297 17 238 17 q 303 8 303 17 q 296 0 303 0 q 225 3 278 0 q 131 6 164 6 q 53 3 97 6 q -11 0 14 0 q -17 8 -17 0 q -11 17 -17 17 q 78 56 32 17 q 160 176 124 94 l 457 882 q 469 886 460 886 q 486 881 482 886 l 776 117 q 806 53 794 72 q 840 26 818 35 q 907 17 863 17 m 325 475 l 529 475 l 431 732 l 325 475 m 357 989 q 309 1006 326 989 q 292 1053 292 1022 q 309 1098 292 1082 q 357 1114 326 1114 q 403 1098 386 1114 q 419 1053 419 1082 q 403 1006 419 1022 q 357 989 386 989 m 579 989 q 532 1006 549 989 q 515 1053 515 1022 q 532 1098 515 1082 q 579 1114 549 1114 q 624 1098 608 1114 q 640 1053 640 1082 q 624 1006 640 1022 q 579 989 608 989 z "},"Ạ":{"ha":903,"x_min":-17,"x_max":911,"o":"m 907 17 q 911 8 911 17 q 907 0 911 0 q 833 3 883 0 q 746 6 778 6 q 663 3 713 6 q 593 0 615 0 q 588 8 588 0 q 593 17 588 17 q 660 26 640 17 q 681 60 681 36 q 665 117 681 79 l 540 443 l 313 443 l 206 182 q 182 86 182 125 q 210 32 182 47 q 297 17 238 17 q 303 8 303 17 q 296 0 303 0 q 225 3 278 0 q 131 6 164 6 q 53 3 97 6 q -11 0 14 0 q -17 8 -17 0 q -11 17 -17 17 q 78 56 32 17 q 160 176 124 94 l 457 882 q 469 886 460 886 q 486 881 482 886 l 776 117 q 806 53 794 72 q 840 26 818 35 q 907 17 863 17 m 325 475 l 529 475 l 431 732 l 325 475 m 463 -271 q 412 -253 431 -271 q 393 -203 393 -235 q 412 -156 393 -174 q 463 -139 431 -139 q 510 -156 493 -139 q 528 -203 528 -174 q 510 -253 528 -235 q 463 -271 493 -271 z "},"À":{"ha":903,"x_min":-17,"x_max":911,"o":"m 907 17 q 911 8 911 17 q 907 0 911 0 q 833 3 883 0 q 746 6 778 6 q 663 3 713 6 q 593 0 615 0 q 588 8 588 0 q 593 17 588 17 q 660 26 640 17 q 681 60 681 36 q 665 117 681 79 l 540 443 l 313 443 l 206 182 q 182 86 182 125 q 210 32 182 47 q 297 17 238 17 q 303 8 303 17 q 296 0 303 0 q 225 3 278 0 q 131 6 164 6 q 53 3 97 6 q -11 0 14 0 q -17 8 -17 0 q -11 17 -17 17 q 78 56 32 17 q 160 176 124 94 l 457 882 q 469 886 460 886 q 486 881 482 886 l 776 117 q 806 53 794 72 q 840 26 818 35 q 907 17 863 17 m 325 475 l 529 475 l 431 732 l 325 475 m 606 951 q 463 1007 524 985 q 325 1050 403 1029 q 336 1065 311 1053 q 396 1088 361 1078 q 438 1093 431 1097 q 611 964 486 1054 q 615 958 615 963 q 612 953 615 956 q 606 951 608 950 z "},"Ả":{"ha":903,"x_min":-17,"x_max":911,"o":"m 907 17 q 911 8 911 17 q 907 0 911 0 q 833 3 883 0 q 746 6 778 6 q 663 3 713 6 q 593 0 615 0 q 588 8 588 0 q 593 17 588 17 q 660 26 640 17 q 681 60 681 36 q 665 117 681 79 l 540 443 l 313 443 l 206 182 q 182 86 182 125 q 210 32 182 47 q 297 17 238 17 q 303 8 303 17 q 296 0 303 0 q 225 3 278 0 q 131 6 164 6 q 53 3 97 6 q -11 0 14 0 q -17 8 -17 0 q -11 17 -17 17 q 78 56 32 17 q 160 176 124 94 l 457 882 q 469 886 460 886 q 486 881 482 886 l 776 117 q 806 53 794 72 q 840 26 818 35 q 907 17 863 17 m 325 475 l 529 475 l 431 732 l 325 475 m 474 904 q 467 901 475 901 q 458 904 460 900 q 451 943 451 922 q 471 1014 451 972 q 489 1076 489 1053 q 474 1124 489 1107 q 433 1140 458 1140 q 392 1129 411 1140 l 389 1129 q 381 1133 385 1129 q 382 1142 378 1138 q 478 1172 422 1172 q 548 1151 522 1172 q 574 1094 574 1129 q 560 1050 574 1071 q 521 1000 547 1029 q 485 956 497 975 q 472 918 472 938 q 474 904 472 908 z "},"Ā":{"ha":903,"x_min":-17,"x_max":911,"o":"m 907 17 q 911 8 911 17 q 907 0 911 0 q 833 3 883 0 q 746 6 778 6 q 663 3 713 6 q 593 0 615 0 q 588 8 588 0 q 593 17 588 17 q 660 26 640 17 q 681 60 681 36 q 665 117 681 79 l 540 443 l 313 443 l 206 182 q 182 86 182 125 q 210 32 182 47 q 297 17 238 17 q 303 8 303 17 q 296 0 303 0 q 225 3 278 0 q 131 6 164 6 q 53 3 97 6 q -11 0 14 0 q -17 8 -17 0 q -11 17 -17 17 q 78 56 32 17 q 160 176 124 94 l 457 882 q 469 886 460 886 q 486 881 482 886 l 776 117 q 806 53 794 72 q 840 26 818 35 q 907 17 863 17 m 325 475 l 529 475 l 431 732 l 325 475 m 308 994 q 299 1017 299 994 q 308 1039 299 1039 l 633 1039 q 642 1032 639 1039 q 644 1017 644 1025 q 642 1001 644 1008 q 633 994 639 994 l 308 994 z "},"Ą":{"ha":904,"x_min":-17,"x_max":914,"o":"m 907 17 q 913 8 911 17 q 908 0 914 0 l 792 1 q 656 -51 707 1 q 606 -183 606 -103 q 646 -290 606 -249 q 757 -332 686 -332 q 798 -326 783 -332 q 826 -310 813 -321 l 828 -310 q 836 -314 832 -310 q 838 -321 840 -318 q 772 -368 804 -354 q 699 -382 740 -382 q 573 -344 622 -382 q 524 -235 524 -306 q 544 -147 524 -185 q 606 -61 565 -110 q 656 8 639 -21 q 672 68 672 36 q 663 117 672 92 l 539 443 l 315 443 l 211 182 q 185 83 185 119 q 212 31 185 46 q 297 17 239 17 q 303 8 303 17 q 296 0 303 0 q 225 3 278 0 q 132 6 164 6 q 54 3 101 6 q -11 0 13 0 q -17 8 -17 0 q -11 17 -17 17 q 81 56 33 17 q 164 176 128 94 l 457 882 q 469 886 460 886 q 486 881 482 886 l 774 126 q 808 57 792 79 q 846 26 824 35 q 907 17 868 17 m 329 475 l 528 475 l 431 731 l 329 475 z "},"Å":{"ha":903,"x_min":-17,"x_max":911,"o":"m 907 17 q 911 8 911 17 q 907 0 911 0 q 833 3 883 0 q 746 6 778 6 q 663 3 713 6 q 593 0 615 0 q 588 8 588 0 q 593 17 588 17 q 660 26 640 17 q 681 60 681 36 q 665 117 681 79 l 540 443 l 313 443 l 206 182 q 182 86 182 125 q 210 32 182 47 q 297 17 238 17 q 303 8 303 17 q 296 0 303 0 q 225 3 278 0 q 131 6 164 6 q 53 3 97 6 q -11 0 14 0 q -17 8 -17 0 q -11 17 -17 17 q 78 56 32 17 q 160 176 124 94 l 457 882 q 469 886 460 886 q 486 881 482 886 l 776 117 q 806 53 794 72 q 840 26 818 35 q 907 17 863 17 m 325 475 l 529 475 l 431 732 l 325 475 m 460 921 q 365 953 400 921 q 329 1031 329 986 q 374 1109 329 1081 q 474 1138 418 1138 q 565 1106 526 1138 q 604 1028 604 1074 q 560 950 604 979 q 460 921 515 921 m 482 938 q 528 1003 528 938 q 504 1087 528 1051 q 446 1122 481 1122 q 414 1106 424 1122 q 404 1058 404 1090 q 426 975 404 1013 q 482 938 447 938 z "},"Ǻ":{"ha":903,"x_min":-17,"x_max":911,"o":"m 907 17 q 911 8 911 17 q 907 0 911 0 q 833 3 883 0 q 746 6 778 6 q 663 3 713 6 q 593 0 615 0 q 588 8 588 0 q 593 17 588 17 q 660 26 640 17 q 681 60 681 36 q 665 117 681 79 l 540 443 l 313 443 l 206 182 q 182 86 182 125 q 210 32 182 47 q 297 17 238 17 q 303 8 303 17 q 296 0 303 0 q 225 3 278 0 q 131 6 164 6 q 53 3 97 6 q -11 0 14 0 q -17 8 -17 0 q -11 17 -17 17 q 78 56 32 17 q 160 176 124 94 l 457 882 q 469 886 460 886 q 486 881 482 886 l 776 117 q 806 53 794 72 q 840 26 818 35 q 907 17 863 17 m 325 475 l 529 475 l 431 732 l 325 475 m 339 1133 q 333 1140 335 1133 q 335 1147 331 1146 q 433 1199 372 1165 q 481 1222 460 1211 q 521 1243 503 1233 q 554 1235 528 1247 q 601 1210 581 1224 q 613 1194 622 1196 q 342 1133 479 1172 l 339 1133 m 458 938 q 369 965 403 938 q 336 1032 336 993 q 378 1099 336 1074 q 472 1124 421 1124 q 564 1096 525 1124 q 603 1029 603 1068 q 558 963 603 988 q 458 938 514 938 m 481 954 q 526 1004 526 954 q 503 1077 526 1047 q 446 1107 481 1107 q 403 1060 403 1107 q 424 987 403 1019 q 481 954 446 954 z "},"Ã":{"ha":903,"x_min":-17,"x_max":911,"o":"m 907 17 q 911 8 911 17 q 907 0 911 0 q 833 3 883 0 q 746 6 778 6 q 663 3 713 6 q 593 0 615 0 q 588 8 588 0 q 593 17 588 17 q 660 26 640 17 q 681 60 681 36 q 665 117 681 79 l 540 443 l 313 443 l 206 182 q 182 86 182 125 q 210 32 182 47 q 297 17 238 17 q 303 8 303 17 q 296 0 303 0 q 225 3 278 0 q 131 6 164 6 q 53 3 97 6 q -11 0 14 0 q -17 8 -17 0 q -11 17 -17 17 q 78 56 32 17 q 160 176 124 94 l 457 882 q 469 886 460 886 q 486 881 482 886 l 776 117 q 806 53 794 72 q 840 26 818 35 q 907 17 863 17 m 325 475 l 529 475 l 431 732 l 325 475 m 301 961 q 294 965 297 961 q 292 971 290 968 q 401 1065 340 1065 q 472 1050 424 1065 q 514 1040 479 1049 q 579 1031 549 1031 q 620 1040 606 1031 q 650 1068 635 1049 l 651 1068 q 658 1065 654 1068 q 661 1058 663 1061 q 610 984 632 1003 q 558 965 589 965 q 508 972 535 965 q 474 981 481 979 q 374 999 414 999 q 333 991 344 999 q 303 961 322 983 l 301 961 z "},"Æ":{"ha":1160,"x_min":-53,"x_max":1111,"o":"m 1093 211 q 1100 214 1093 214 q 1108 212 1104 214 q 1110 208 1111 210 q 1099 21 1099 128 q 1094 5 1099 10 q 1076 0 1089 0 l 504 0 q 497 8 497 0 q 504 17 497 17 q 573 24 550 17 q 604 51 596 32 q 610 113 613 71 l 593 436 l 371 436 l 210 171 q 179 86 179 122 q 294 17 179 17 q 301 8 301 17 q 294 0 301 0 q 208 3 269 0 q 101 6 142 6 q 21 3 68 6 q -46 0 -21 0 q -53 8 -53 0 q -46 17 -53 17 q 62 52 14 17 q 171 185 110 88 l 540 799 q 554 832 554 821 q 532 848 554 844 q 446 851 510 851 q 439 860 439 851 q 446 868 439 868 l 1035 868 q 1044 865 1042 868 q 1046 856 1046 863 l 1050 733 l 1051 679 q 1042 674 1050 674 q 1033 679 1033 675 q 972 802 1022 756 q 847 849 922 849 l 799 849 q 725 840 750 849 q 692 812 700 832 q 685 754 683 792 l 700 468 l 863 468 q 956 492 928 468 q 985 569 983 515 q 993 575 985 575 q 1003 569 1003 575 l 1003 451 q 1006 318 1003 418 q 999 314 1006 314 q 991 316 994 314 q 988 319 988 318 q 956 408 988 381 q 857 436 924 436 l 703 436 l 719 118 q 728 58 721 76 q 758 32 736 39 q 825 25 779 25 l 904 25 q 1020 76 969 25 q 1093 211 1071 126 m 390 468 l 592 468 l 576 774 l 390 468 z "},"Ǽ":{"ha":1160,"x_min":-53,"x_max":1110,"o":"m 1093 211 q 1100 214 1093 214 q 1108 212 1104 214 q 1110 208 1111 210 q 1099 21 1099 128 q 1094 5 1099 10 q 1076 0 1089 0 l 504 0 q 497 8 497 0 q 504 17 497 17 q 573 24 550 17 q 604 51 596 32 q 610 113 613 71 l 593 436 l 371 436 l 210 171 q 179 86 179 122 q 294 17 179 17 q 301 8 301 17 q 294 0 301 0 q 208 3 269 0 q 101 6 142 6 q 21 3 68 6 q -46 0 -21 0 q -53 8 -53 0 q -46 17 -53 17 q 62 52 14 17 q 171 185 110 88 l 540 799 q 554 832 554 821 q 532 848 554 844 q 446 851 510 851 q 439 860 439 851 q 446 868 439 868 l 1035 868 q 1044 865 1042 868 q 1046 856 1046 863 l 1050 733 l 1051 679 q 1042 674 1050 674 q 1033 679 1033 675 q 972 802 1022 756 q 847 849 922 849 l 799 849 q 725 840 750 849 q 692 812 700 832 q 685 754 683 792 l 700 468 l 863 468 q 956 492 928 468 q 985 569 983 515 q 993 575 985 575 q 1003 569 1003 575 l 1003 451 q 1006 318 1003 418 q 999 314 1006 314 q 991 316 994 314 q 988 319 988 318 q 956 408 988 381 q 857 436 924 436 l 703 436 l 719 118 q 728 58 721 76 q 758 32 736 39 q 825 25 779 25 l 904 25 q 1020 76 969 25 q 1093 211 1071 126 m 390 468 l 592 468 l 576 774 l 390 468 m 679 942 q 671 948 674 942 q 672 957 668 954 q 793 1044 722 988 q 821 1067 806 1054 q 857 1093 836 1079 q 897 1088 863 1097 q 957 1065 931 1078 q 971 1050 983 1053 q 682 943 822 1011 l 679 942 z "},"Ǣ":{"ha":1160,"x_min":-53,"x_max":1110,"o":"m 1093 211 q 1100 214 1093 214 q 1108 212 1104 214 q 1110 208 1111 210 q 1099 21 1099 128 q 1094 5 1099 10 q 1076 0 1089 0 l 504 0 q 497 8 497 0 q 504 17 497 17 q 573 24 550 17 q 604 51 596 32 q 610 113 613 71 l 593 436 l 371 436 l 210 171 q 179 86 179 122 q 294 17 179 17 q 301 8 301 17 q 294 0 301 0 q 208 3 269 0 q 101 6 142 6 q 21 3 68 6 q -46 0 -21 0 q -53 8 -53 0 q -46 17 -53 17 q 62 52 14 17 q 171 185 110 88 l 540 799 q 554 832 554 821 q 532 848 554 844 q 446 851 510 851 q 439 860 439 851 q 446 868 439 868 l 1035 868 q 1044 865 1042 868 q 1046 856 1046 863 l 1050 733 l 1051 679 q 1042 674 1050 674 q 1033 679 1033 675 q 972 802 1022 756 q 847 849 922 849 l 799 849 q 725 840 750 849 q 692 812 700 832 q 685 754 683 792 l 700 468 l 863 468 q 956 492 928 468 q 985 569 983 515 q 993 575 985 575 q 1003 569 1003 575 l 1003 451 q 1006 318 1003 418 q 999 314 1006 314 q 991 316 994 314 q 988 319 988 318 q 956 408 988 381 q 857 436 924 436 l 703 436 l 719 118 q 728 58 721 76 q 758 32 736 39 q 825 25 779 25 l 904 25 q 1020 76 969 25 q 1093 211 1071 126 m 390 468 l 592 468 l 576 774 l 390 468 m 604 994 q 594 1017 594 994 q 604 1039 594 1039 l 929 1039 q 938 1032 935 1039 q 940 1017 940 1025 q 938 1001 940 1008 q 929 994 935 994 l 604 994 z "},"B":{"ha":796,"x_min":61,"x_max":724,"o":"m 475 489 q 656 414 588 479 q 724 254 724 349 q 685 122 724 181 q 581 28 647 63 q 432 -6 514 -6 q 336 -1 389 -6 q 290 1 318 0 q 229 3 263 3 l 135 1 q 64 0 110 0 q 61 8 61 0 q 64 17 61 17 q 135 24 113 17 q 167 51 158 31 q 175 113 175 71 l 175 756 q 167 817 175 797 q 137 844 160 836 q 65 851 114 851 q 63 860 63 851 q 65 868 63 868 l 135 867 q 229 864 193 864 q 311 868 268 864 q 348 871 326 869 q 396 872 369 872 q 576 823 515 872 q 638 690 638 774 q 594 570 638 624 q 475 489 551 517 m 368 850 q 318 843 335 850 q 294 816 301 836 q 286 753 286 796 l 286 489 l 347 488 q 483 540 439 488 q 528 679 528 593 q 488 804 528 758 q 368 850 449 850 m 410 21 q 606 221 606 21 q 547 390 606 326 q 381 456 489 454 q 286 453 344 457 l 286 113 q 295 58 286 78 q 331 30 304 39 q 410 21 357 21 z "},"C":{"ha":879,"x_min":56,"x_max":825,"o":"m 533 -17 q 260 50 368 -17 q 104 221 153 117 q 56 439 56 325 q 122 672 56 571 q 299 828 189 774 q 536 883 410 883 q 672 871 603 883 q 782 838 740 858 q 796 825 793 831 q 800 804 799 819 l 814 640 q 807 634 814 635 q 799 639 800 633 q 678 797 760 744 q 485 850 597 850 q 259 751 340 850 q 178 481 178 651 q 226 244 178 353 q 356 70 274 135 q 538 6 438 6 q 690 60 619 6 q 810 222 760 114 q 818 226 811 228 q 825 219 825 225 l 813 64 q 807 42 810 47 q 792 32 804 38 q 533 -17 665 -17 z "},"Ć":{"ha":879,"x_min":56,"x_max":825,"o":"m 533 -17 q 260 50 368 -17 q 104 221 153 117 q 56 439 56 325 q 122 672 56 571 q 299 828 189 774 q 536 883 410 883 q 672 871 603 883 q 782 838 740 858 q 796 825 793 831 q 800 804 799 819 l 814 640 q 807 634 814 635 q 799 639 800 633 q 678 797 760 744 q 485 850 597 850 q 259 751 340 850 q 178 481 178 651 q 226 244 178 353 q 356 70 274 135 q 538 6 438 6 q 690 60 619 6 q 810 222 760 114 q 818 226 811 228 q 825 219 825 225 l 813 64 q 807 42 810 47 q 792 32 804 38 q 533 -17 665 -17 m 432 942 q 424 948 426 942 q 425 957 421 954 q 546 1044 475 988 q 574 1067 558 1054 q 610 1093 589 1079 q 649 1088 615 1097 q 710 1065 683 1078 q 724 1050 736 1053 q 435 943 575 1011 l 432 942 z "},"Č":{"ha":879,"x_min":56,"x_max":825,"o":"m 533 -17 q 260 50 368 -17 q 104 221 153 117 q 56 439 56 325 q 122 672 56 571 q 299 828 189 774 q 536 883 410 883 q 672 871 603 883 q 782 838 740 858 q 796 825 793 831 q 800 804 799 819 l 814 640 q 807 634 814 635 q 799 639 800 633 q 678 797 760 744 q 485 850 597 850 q 259 751 340 850 q 178 481 178 651 q 226 244 178 353 q 356 70 274 135 q 538 6 438 6 q 690 60 619 6 q 810 222 760 114 q 818 226 811 228 q 825 219 825 225 l 813 64 q 807 42 810 47 q 792 32 804 38 q 533 -17 665 -17 m 369 1082 l 369 1083 q 372 1090 369 1088 q 378 1092 375 1093 l 513 1019 l 644 1092 l 646 1092 q 653 1088 650 1092 q 654 1082 657 1083 l 526 938 q 514 932 522 932 q 500 938 506 932 l 369 1082 z "},"Ç":{"ha":879,"x_min":56,"x_max":825,"o":"m 810 222 q 818 226 811 228 q 825 219 825 225 l 813 64 q 807 42 810 47 q 792 32 804 38 q 533 -17 665 -17 l 532 -17 q 529 -43 529 -36 q 542 -94 529 -72 q 582 -144 556 -117 q 631 -206 614 -179 q 646 -261 647 -233 q 615 -344 647 -306 q 518 -382 582 -382 q 447 -364 476 -382 q 419 -314 418 -346 q 428 -288 418 -297 q 457 -279 439 -279 q 486 -290 475 -279 q 510 -321 497 -300 q 531 -348 524 -340 q 553 -356 539 -356 q 581 -344 571 -356 q 590 -310 590 -332 q 511 -192 586 -267 q 485 -126 485 -165 q 492 -83 485 -108 l 513 -17 q 251 56 354 -12 q 102 226 149 124 q 56 439 56 328 q 122 672 56 571 q 299 828 189 774 q 536 883 410 883 q 672 871 603 883 q 782 838 740 858 q 796 825 793 831 q 800 804 799 819 l 814 640 q 807 634 814 635 q 799 639 800 633 q 678 797 760 744 q 485 850 597 850 q 259 751 340 850 q 178 481 178 651 q 226 244 178 353 q 356 70 274 135 q 538 6 438 6 q 690 60 619 6 q 810 222 760 114 z "},"Ĉ":{"ha":879,"x_min":56,"x_max":825,"o":"m 533 -17 q 260 50 368 -17 q 104 221 153 117 q 56 439 56 325 q 122 672 56 571 q 299 828 189 774 q 536 883 410 883 q 672 871 603 883 q 782 838 740 858 q 796 825 793 831 q 800 804 799 819 l 814 640 q 807 634 814 635 q 799 639 800 633 q 678 797 760 744 q 485 850 597 850 q 259 751 340 850 q 178 481 178 651 q 226 244 178 353 q 356 70 274 135 q 538 6 438 6 q 690 60 619 6 q 810 222 760 114 q 818 226 811 228 q 825 219 825 225 l 813 64 q 807 42 810 47 q 792 32 804 38 q 533 -17 665 -17 m 385 917 q 377 920 381 917 q 376 926 374 924 l 503 1069 q 515 1076 507 1076 q 529 1069 522 1076 l 661 926 q 660 919 664 924 q 654 917 657 914 l 517 988 l 386 917 l 385 917 z "},"Ċ":{"ha":879,"x_min":56,"x_max":825,"o":"m 533 -17 q 260 50 368 -17 q 104 221 153 117 q 56 439 56 325 q 122 672 56 571 q 299 828 189 774 q 536 883 410 883 q 672 871 603 883 q 782 838 740 858 q 796 825 793 831 q 800 804 799 819 l 814 640 q 807 634 814 635 q 799 639 800 633 q 678 797 760 744 q 485 850 597 850 q 259 751 340 850 q 178 481 178 651 q 226 244 178 353 q 356 70 274 135 q 538 6 438 6 q 690 60 619 6 q 810 222 760 114 q 818 226 811 228 q 825 219 825 225 l 813 64 q 807 42 810 47 q 792 32 804 38 q 533 -17 665 -17 m 518 985 q 467 1003 486 985 q 449 1053 449 1021 q 467 1101 449 1083 q 518 1118 486 1118 q 567 1101 549 1118 q 585 1053 585 1083 q 567 1003 585 1021 q 518 985 550 985 z "},"D":{"ha":931,"x_min":54,"x_max":874,"o":"m 414 -6 q 328 -1 376 -6 q 282 1 310 0 q 221 3 254 3 l 125 1 q 58 0 100 0 q 54 8 54 0 q 58 17 54 17 q 128 24 106 17 q 158 51 150 32 q 165 113 167 71 l 165 756 q 156 817 164 797 q 125 844 147 836 q 58 851 103 851 q 54 860 54 851 q 58 868 54 868 l 125 867 q 219 864 183 864 q 311 868 265 864 q 394 871 369 871 q 644 816 535 871 q 813 665 753 761 q 874 449 874 569 q 810 212 874 315 q 642 51 747 108 q 414 -6 536 -6 m 401 17 q 583 64 504 17 q 706 201 663 111 q 750 418 750 292 q 710 631 750 533 q 590 789 669 729 q 397 849 510 849 q 300 829 326 849 q 274 753 274 810 l 274 128 q 301 42 275 67 q 401 17 326 17 z "},"Ð":{"ha":931,"x_min":46,"x_max":874,"o":"m 394 871 q 644 816 535 871 q 813 665 753 761 q 874 449 874 569 q 810 212 874 315 q 642 51 747 108 q 414 -6 536 -6 q 328 -1 376 -6 q 282 1 310 0 q 221 3 254 3 l 125 1 q 58 0 100 0 q 54 8 54 0 q 58 17 54 17 q 128 24 106 17 q 158 51 150 32 q 165 113 167 71 l 165 417 l 51 417 q 48 422 50 417 q 46 432 46 426 q 47 442 46 438 q 51 447 49 447 l 165 447 l 165 756 q 156 817 164 797 q 125 844 147 836 q 58 851 103 851 q 54 860 54 851 q 58 868 54 868 l 125 867 q 219 864 183 864 q 311 868 265 864 q 394 871 369 871 m 401 17 q 583 64 504 17 q 706 201 663 111 q 750 418 750 292 q 710 631 750 533 q 590 789 669 729 q 397 849 510 849 q 300 829 326 849 q 274 753 274 810 l 274 447 l 415 447 q 422 432 422 447 q 420 422 422 426 q 415 417 418 417 l 274 417 l 274 128 q 301 42 275 67 q 401 17 326 17 z "},"Ď":{"ha":931,"x_min":54,"x_max":874,"o":"m 414 -6 q 328 -1 376 -6 q 282 1 310 0 q 221 3 254 3 l 125 1 q 58 0 100 0 q 54 8 54 0 q 58 17 54 17 q 128 24 106 17 q 158 51 150 32 q 165 113 167 71 l 165 756 q 156 817 164 797 q 125 844 147 836 q 58 851 103 851 q 54 860 54 851 q 58 868 54 868 l 125 867 q 219 864 183 864 q 311 868 265 864 q 394 871 369 871 q 644 816 535 871 q 813 665 753 761 q 874 449 874 569 q 810 212 874 315 q 642 51 747 108 q 414 -6 536 -6 m 401 17 q 583 64 504 17 q 706 201 663 111 q 750 418 750 292 q 710 631 750 533 q 590 789 669 729 q 397 849 510 849 q 300 829 326 849 q 274 753 274 810 l 274 128 q 301 42 275 67 q 401 17 326 17 m 235 1082 l 235 1083 q 238 1090 235 1088 q 243 1092 240 1093 l 378 1019 l 510 1092 l 511 1092 q 519 1088 515 1092 q 519 1082 522 1083 l 392 938 q 379 932 388 932 q 365 938 371 932 l 235 1082 z "},"Đ":{"ha":931,"x_min":46,"x_max":874,"o":"m 394 871 q 644 816 535 871 q 813 665 753 761 q 874 449 874 569 q 810 212 874 315 q 642 51 747 108 q 414 -6 536 -6 q 328 -1 376 -6 q 282 1 310 0 q 221 3 254 3 l 125 1 q 58 0 100 0 q 54 8 54 0 q 58 17 54 17 q 128 24 106 17 q 158 51 150 32 q 165 113 167 71 l 165 417 l 51 417 q 48 422 50 417 q 46 432 46 426 q 47 442 46 438 q 51 447 49 447 l 165 447 l 165 756 q 156 817 164 797 q 125 844 147 836 q 58 851 103 851 q 54 860 54 851 q 58 868 54 868 l 125 867 q 219 864 183 864 q 311 868 265 864 q 394 871 369 871 m 401 17 q 583 64 504 17 q 706 201 663 111 q 750 418 750 292 q 710 631 750 533 q 590 789 669 729 q 397 849 510 849 q 300 829 326 849 q 274 753 274 810 l 274 447 l 415 447 q 422 432 422 447 q 420 422 422 426 q 415 417 418 417 l 274 417 l 274 128 q 301 42 275 67 q 401 17 326 17 z "},"Ḍ":{"ha":931,"x_min":54,"x_max":874,"o":"m 414 -6 q 328 -1 376 -6 q 282 1 310 0 q 221 3 254 3 l 125 1 q 58 0 100 0 q 54 8 54 0 q 58 17 54 17 q 128 24 106 17 q 158 51 150 32 q 165 113 167 71 l 165 756 q 156 817 164 797 q 125 844 147 836 q 58 851 103 851 q 54 860 54 851 q 58 868 54 868 l 125 867 q 219 864 183 864 q 311 868 265 864 q 394 871 369 871 q 644 816 535 871 q 813 665 753 761 q 874 449 874 569 q 810 212 874 315 q 642 51 747 108 q 414 -6 536 -6 m 401 17 q 583 64 504 17 q 706 201 663 111 q 750 418 750 292 q 710 631 750 533 q 590 789 669 729 q 397 849 510 849 q 300 829 326 849 q 274 753 274 810 l 274 128 q 301 42 275 67 q 401 17 326 17 m 461 -271 q 410 -253 429 -271 q 392 -203 392 -235 q 410 -156 392 -174 q 461 -139 429 -139 q 509 -156 492 -139 q 526 -203 526 -174 q 509 -253 526 -235 q 461 -271 492 -271 z "},"Ḏ":{"ha":931,"x_min":54,"x_max":874,"o":"m 414 -6 q 328 -1 376 -6 q 282 1 310 0 q 221 3 254 3 l 125 1 q 58 0 100 0 q 54 8 54 0 q 58 17 54 17 q 128 24 106 17 q 158 51 150 32 q 165 113 167 71 l 165 756 q 156 817 164 797 q 125 844 147 836 q 58 851 103 851 q 54 860 54 851 q 58 868 54 868 l 125 867 q 219 864 183 864 q 311 868 265 864 q 394 871 369 871 q 644 816 535 871 q 813 665 753 761 q 874 449 874 569 q 810 212 874 315 q 642 51 747 108 q 414 -6 536 -6 m 401 17 q 583 64 504 17 q 706 201 663 111 q 750 418 750 292 q 710 631 750 533 q 590 789 669 729 q 397 849 510 849 q 300 829 326 849 q 274 753 274 810 l 274 128 q 301 42 275 67 q 401 17 326 17 m 294 -165 q 286 -158 289 -165 q 283 -143 283 -151 q 286 -128 283 -135 q 294 -121 289 -121 l 619 -121 q 629 -143 629 -121 q 619 -165 629 -165 l 294 -165 z "},"E":{"ha":778,"x_min":63,"x_max":731,"o":"m 711 211 q 718 215 711 215 q 726 213 722 215 q 729 208 731 211 q 717 21 717 133 q 712 5 717 10 q 694 0 707 0 l 69 0 q 64 8 64 0 q 68 17 64 17 q 137 24 115 17 q 166 50 158 31 q 174 113 174 69 l 174 756 q 164 817 172 797 q 134 844 156 836 q 67 851 113 851 q 63 860 63 851 q 65 868 63 868 l 656 868 q 667 856 667 868 l 671 679 q 663 675 671 675 q 653 679 656 675 q 594 799 642 754 q 478 844 547 844 l 385 844 q 317 838 338 844 q 289 813 296 831 q 281 754 282 794 l 281 468 l 483 468 q 575 491 547 468 q 601 568 603 514 q 610 574 601 574 q 618 568 619 574 l 618 521 l 618 451 q 619 389 618 410 l 621 318 q 612 313 621 313 q 603 318 603 313 q 573 408 603 379 q 478 436 543 436 l 281 436 l 281 118 q 288 59 281 78 q 317 33 296 40 q 383 26 339 26 l 510 26 q 632 77 578 26 q 711 211 686 128 z "},"É":{"ha":778,"x_min":63,"x_max":729,"o":"m 711 211 q 718 215 711 215 q 726 213 722 215 q 729 208 731 211 q 717 21 717 133 q 712 5 717 10 q 694 0 707 0 l 69 0 q 64 8 64 0 q 68 17 64 17 q 137 24 115 17 q 166 50 158 31 q 174 113 174 69 l 174 756 q 164 817 172 797 q 134 844 156 836 q 67 851 113 851 q 63 860 63 851 q 65 868 63 868 l 656 868 q 667 856 667 868 l 671 679 q 663 675 671 675 q 653 679 656 675 q 594 799 642 754 q 478 844 547 844 l 385 844 q 317 838 338 844 q 289 813 296 831 q 281 754 282 794 l 281 468 l 483 468 q 575 491 547 468 q 601 568 603 514 q 610 574 601 574 q 618 568 619 574 l 618 521 l 618 451 q 619 389 618 410 l 621 318 q 612 313 621 313 q 603 318 603 313 q 573 408 603 379 q 478 436 543 436 l 281 436 l 281 118 q 288 59 281 78 q 317 33 296 40 q 383 26 339 26 l 510 26 q 632 77 578 26 q 711 211 686 128 m 310 942 q 301 948 304 942 q 303 957 299 954 q 424 1044 353 988 q 451 1067 436 1054 q 488 1093 467 1079 q 527 1088 493 1097 q 588 1065 561 1078 q 601 1050 614 1053 q 313 943 453 1011 l 310 942 z "},"Ĕ":{"ha":778,"x_min":63,"x_max":729,"o":"m 711 211 q 718 215 711 215 q 726 213 722 215 q 729 208 731 211 q 717 21 717 133 q 712 5 717 10 q 694 0 707 0 l 69 0 q 64 8 64 0 q 68 17 64 17 q 137 24 115 17 q 166 50 158 31 q 174 113 174 69 l 174 756 q 164 817 172 797 q 134 844 156 836 q 67 851 113 851 q 63 860 63 851 q 65 868 63 868 l 656 868 q 667 856 667 868 l 671 679 q 663 675 671 675 q 653 679 656 675 q 594 799 642 754 q 478 844 547 844 l 385 844 q 317 838 338 844 q 289 813 296 831 q 281 754 282 794 l 281 468 l 483 468 q 575 491 547 468 q 601 568 603 514 q 610 574 601 574 q 618 568 619 574 l 618 521 l 618 451 q 619 389 618 410 l 621 318 q 612 313 621 313 q 603 318 603 313 q 573 408 603 379 q 478 436 543 436 l 281 436 l 281 118 q 288 59 281 78 q 317 33 296 40 q 383 26 339 26 l 510 26 q 632 77 578 26 q 711 211 686 128 m 393 924 q 310 956 347 924 q 261 1049 274 989 q 283 1064 260 1057 q 326 1071 306 1071 q 343 1067 342 1071 q 376 1006 353 1028 q 426 985 399 985 q 474 1004 453 985 q 508 1061 496 1024 q 515 1065 508 1065 q 526 1063 521 1065 q 532 1057 532 1060 q 477 958 515 993 q 393 924 439 924 z "},"Ě":{"ha":778,"x_min":63,"x_max":729,"o":"m 711 211 q 718 215 711 215 q 726 213 722 215 q 729 208 731 211 q 717 21 717 133 q 712 5 717 10 q 694 0 707 0 l 69 0 q 64 8 64 0 q 68 17 64 17 q 137 24 115 17 q 166 50 158 31 q 174 113 174 69 l 174 756 q 164 817 172 797 q 134 844 156 836 q 67 851 113 851 q 63 860 63 851 q 65 868 63 868 l 656 868 q 667 856 667 868 l 671 679 q 663 675 671 675 q 653 679 656 675 q 594 799 642 754 q 478 844 547 844 l 385 844 q 317 838 338 844 q 289 813 296 831 q 281 754 282 794 l 281 468 l 483 468 q 575 491 547 468 q 601 568 603 514 q 610 574 601 574 q 618 568 619 574 l 618 521 l 618 451 q 619 389 618 410 l 621 318 q 612 313 621 313 q 603 318 603 313 q 573 408 603 379 q 478 436 543 436 l 281 436 l 281 118 q 288 59 281 78 q 317 33 296 40 q 383 26 339 26 l 510 26 q 632 77 578 26 q 711 211 686 128 m 247 1082 l 247 1083 q 250 1090 247 1088 q 256 1092 253 1093 l 390 1019 l 522 1092 l 524 1092 q 531 1088 528 1092 q 532 1082 535 1083 l 404 938 q 392 932 400 932 q 378 938 383 932 l 247 1082 z "},"Ê":{"ha":778,"x_min":63,"x_max":729,"o":"m 711 211 q 718 215 711 215 q 726 213 722 215 q 729 208 731 211 q 717 21 717 133 q 712 5 717 10 q 694 0 707 0 l 69 0 q 64 8 64 0 q 68 17 64 17 q 137 24 115 17 q 166 50 158 31 q 174 113 174 69 l 174 756 q 164 817 172 797 q 134 844 156 836 q 67 851 113 851 q 63 860 63 851 q 65 868 63 868 l 656 868 q 667 856 667 868 l 671 679 q 663 675 671 675 q 653 679 656 675 q 594 799 642 754 q 478 844 547 844 l 385 844 q 317 838 338 844 q 289 813 296 831 q 281 754 282 794 l 281 468 l 483 468 q 575 491 547 468 q 601 568 603 514 q 610 574 601 574 q 618 568 619 574 l 618 521 l 618 451 q 619 389 618 410 l 621 318 q 612 313 621 313 q 603 318 603 313 q 573 408 603 379 q 478 436 543 436 l 281 436 l 281 118 q 288 59 281 78 q 317 33 296 40 q 383 26 339 26 l 510 26 q 632 77 578 26 q 711 211 686 128 m 263 917 q 255 920 258 917 q 254 926 251 924 l 381 1069 q 393 1076 385 1076 q 407 1069 400 1076 l 539 926 q 538 919 542 924 q 532 917 535 914 l 394 988 l 264 917 l 263 917 z "},"Ế":{"ha":778,"x_min":63,"x_max":729,"o":"m 711 211 q 718 215 711 215 q 726 213 722 215 q 729 208 731 211 q 717 21 717 133 q 712 5 717 10 q 694 0 707 0 l 69 0 q 64 8 64 0 q 68 17 64 17 q 137 24 115 17 q 166 50 158 31 q 174 113 174 69 l 174 756 q 164 817 172 797 q 134 844 156 836 q 67 851 113 851 q 63 860 63 851 q 65 868 63 868 l 656 868 q 667 856 667 868 l 671 679 q 663 675 671 675 q 653 679 656 675 q 594 799 642 754 q 478 844 547 844 l 385 844 q 317 838 338 844 q 289 813 296 831 q 281 754 282 794 l 281 468 l 483 468 q 575 491 547 468 q 601 568 603 514 q 610 574 601 574 q 618 568 619 574 l 618 521 l 618 451 q 619 389 618 410 l 621 318 q 612 313 621 313 q 603 318 603 313 q 573 408 603 379 q 478 436 543 436 l 281 436 l 281 118 q 288 59 281 78 q 317 33 296 40 q 383 26 339 26 l 510 26 q 632 77 578 26 q 711 211 686 128 m 263 917 q 255 920 258 917 q 254 926 251 924 l 381 1069 q 393 1076 385 1076 q 407 1069 400 1076 l 539 926 q 538 919 542 924 q 532 917 535 914 l 394 988 l 264 917 l 263 917 m 489 1008 q 481 1014 483 1008 q 482 1022 479 1019 q 579 1161 542 1094 q 615 1157 583 1167 q 672 1134 647 1147 q 686 1117 697 1121 q 587 1071 631 1096 q 492 1010 543 1046 l 489 1008 z "},"Ệ":{"ha":778,"x_min":63,"x_max":729,"o":"m 711 211 q 718 215 711 215 q 726 213 722 215 q 729 208 731 211 q 717 21 717 133 q 712 5 717 10 q 694 0 707 0 l 69 0 q 64 8 64 0 q 68 17 64 17 q 137 24 115 17 q 166 50 158 31 q 174 113 174 69 l 174 756 q 164 817 172 797 q 134 844 156 836 q 67 851 113 851 q 63 860 63 851 q 65 868 63 868 l 656 868 q 667 856 667 868 l 671 679 q 663 675 671 675 q 653 679 656 675 q 594 799 642 754 q 478 844 547 844 l 385 844 q 317 838 338 844 q 289 813 296 831 q 281 754 282 794 l 281 468 l 483 468 q 575 491 547 468 q 601 568 603 514 q 610 574 601 574 q 618 568 619 574 l 618 521 l 618 451 q 619 389 618 410 l 621 318 q 612 313 621 313 q 603 318 603 313 q 573 408 603 379 q 478 436 543 436 l 281 436 l 281 118 q 288 59 281 78 q 317 33 296 40 q 383 26 339 26 l 510 26 q 632 77 578 26 q 711 211 686 128 m 422 -271 q 372 -253 390 -271 q 353 -203 353 -235 q 372 -156 353 -174 q 422 -139 390 -139 q 470 -156 453 -139 q 488 -203 488 -174 q 470 -253 488 -235 q 422 -271 453 -271 m 263 917 q 255 920 258 917 q 254 926 251 924 l 381 1069 q 393 1076 385 1076 q 407 1069 400 1076 l 539 926 q 538 919 542 924 q 532 917 535 914 l 394 988 l 264 917 l 263 917 z "},"Ề":{"ha":778,"x_min":63,"x_max":729,"o":"m 711 211 q 718 215 711 215 q 726 213 722 215 q 729 208 731 211 q 717 21 717 133 q 712 5 717 10 q 694 0 707 0 l 69 0 q 64 8 64 0 q 68 17 64 17 q 137 24 115 17 q 166 50 158 31 q 174 113 174 69 l 174 756 q 164 817 172 797 q 134 844 156 836 q 67 851 113 851 q 63 860 63 851 q 65 868 63 868 l 656 868 q 667 856 667 868 l 671 679 q 663 675 671 675 q 653 679 656 675 q 594 799 642 754 q 478 844 547 844 l 385 844 q 317 838 338 844 q 289 813 296 831 q 281 754 282 794 l 281 468 l 483 468 q 575 491 547 468 q 601 568 603 514 q 610 574 601 574 q 618 568 619 574 l 618 521 l 618 451 q 619 389 618 410 l 621 318 q 612 313 621 313 q 603 318 603 313 q 573 408 603 379 q 478 436 543 436 l 281 436 l 281 118 q 288 59 281 78 q 317 33 296 40 q 383 26 339 26 l 510 26 q 632 77 578 26 q 711 211 686 128 m 263 917 q 255 920 258 917 q 254 926 251 924 l 381 1069 q 393 1076 385 1076 q 407 1069 400 1076 l 539 926 q 538 919 542 924 q 532 917 535 914 l 394 988 l 264 917 l 263 917 m 607 983 q 417 1090 508 1053 q 429 1108 404 1094 q 486 1131 454 1121 q 522 1135 518 1140 q 618 997 561 1068 q 619 993 619 996 q 616 985 619 988 q 607 983 613 982 z "},"Ể":{"ha":778,"x_min":63,"x_max":729,"o":"m 711 211 q 718 215 711 215 q 726 213 722 215 q 729 208 731 211 q 717 21 717 133 q 712 5 717 10 q 694 0 707 0 l 69 0 q 64 8 64 0 q 68 17 64 17 q 137 24 115 17 q 166 50 158 31 q 174 113 174 69 l 174 756 q 164 817 172 797 q 134 844 156 836 q 67 851 113 851 q 63 860 63 851 q 65 868 63 868 l 656 868 q 667 856 667 868 l 671 679 q 663 675 671 675 q 653 679 656 675 q 594 799 642 754 q 478 844 547 844 l 385 844 q 317 838 338 844 q 289 813 296 831 q 281 754 282 794 l 281 468 l 483 468 q 575 491 547 468 q 601 568 603 514 q 610 574 601 574 q 618 568 619 574 l 618 521 l 618 451 q 619 389 618 410 l 621 318 q 612 313 621 313 q 603 318 603 313 q 573 408 603 379 q 478 436 543 436 l 281 436 l 281 118 q 288 59 281 78 q 317 33 296 40 q 383 26 339 26 l 510 26 q 632 77 578 26 q 711 211 686 128 m 263 907 q 255 910 258 907 q 254 917 251 914 l 381 1060 q 393 1067 385 1067 q 407 1060 400 1067 l 539 917 q 538 909 542 914 q 532 907 535 904 l 394 978 l 264 907 l 263 907 m 497 989 q 494 1007 494 1003 q 513 1058 494 1028 q 522 1079 514 1063 q 531 1113 531 1096 q 517 1144 531 1133 q 485 1156 503 1156 q 456 1149 467 1156 l 454 1149 q 444 1153 449 1149 q 444 1160 440 1158 q 529 1186 489 1186 q 580 1169 561 1186 q 599 1128 599 1151 q 588 1092 599 1107 q 553 1053 576 1076 q 521 1018 531 1032 q 514 989 511 1004 q 506 986 514 986 q 497 989 499 986 z "},"Ễ":{"ha":778,"x_min":63,"x_max":729,"o":"m 711 211 q 718 215 711 215 q 726 213 722 215 q 729 208 731 211 q 717 21 717 133 q 712 5 717 10 q 694 0 707 0 l 69 0 q 64 8 64 0 q 68 17 64 17 q 137 24 115 17 q 166 50 158 31 q 174 113 174 69 l 174 756 q 164 817 172 797 q 134 844 156 836 q 67 851 113 851 q 63 860 63 851 q 65 868 63 868 l 656 868 q 667 856 667 868 l 671 679 q 663 675 671 675 q 653 679 656 675 q 594 799 642 754 q 478 844 547 844 l 385 844 q 317 838 338 844 q 289 813 296 831 q 281 754 282 794 l 281 468 l 483 468 q 575 491 547 468 q 601 568 603 514 q 610 574 601 574 q 618 568 619 574 l 618 521 l 618 451 q 619 389 618 410 l 621 318 q 612 313 621 313 q 603 318 603 313 q 573 408 603 379 q 478 436 543 436 l 281 436 l 281 118 q 288 59 281 78 q 317 33 296 40 q 383 26 339 26 l 510 26 q 632 77 578 26 q 711 211 686 128 m 263 917 q 255 920 258 917 q 254 926 251 924 l 381 1069 q 393 1076 385 1076 q 407 1069 400 1076 l 539 926 q 538 919 542 924 q 532 917 535 914 l 394 988 l 264 917 l 263 917 m 232 1088 q 224 1091 228 1088 q 222 1097 221 1094 q 332 1190 272 1190 q 404 1176 349 1190 q 510 1157 471 1157 q 551 1166 536 1157 q 581 1194 565 1175 l 582 1194 q 590 1191 586 1194 q 592 1185 593 1188 q 541 1110 563 1129 q 489 1090 519 1090 q 449 1095 471 1090 q 404 1107 426 1100 q 353 1119 381 1114 q 304 1125 326 1125 q 267 1118 279 1125 q 246 1101 254 1111 q 233 1088 238 1092 l 232 1088 z "},"Ë":{"ha":778,"x_min":63,"x_max":729,"o":"m 711 211 q 718 215 711 215 q 726 213 722 215 q 729 208 731 211 q 717 21 717 133 q 712 5 717 10 q 694 0 707 0 l 69 0 q 64 8 64 0 q 68 17 64 17 q 137 24 115 17 q 166 50 158 31 q 174 113 174 69 l 174 756 q 164 817 172 797 q 134 844 156 836 q 67 851 113 851 q 63 860 63 851 q 65 868 63 868 l 656 868 q 667 856 667 868 l 671 679 q 663 675 671 675 q 653 679 656 675 q 594 799 642 754 q 478 844 547 844 l 385 844 q 317 838 338 844 q 289 813 296 831 q 281 754 282 794 l 281 468 l 483 468 q 575 491 547 468 q 601 568 603 514 q 610 574 601 574 q 618 568 619 574 l 618 521 l 618 451 q 619 389 618 410 l 621 318 q 612 313 621 313 q 603 318 603 313 q 573 408 603 379 q 478 436 543 436 l 281 436 l 281 118 q 288 59 281 78 q 317 33 296 40 q 383 26 339 26 l 510 26 q 632 77 578 26 q 711 211 686 128 m 283 989 q 235 1006 253 989 q 218 1053 218 1022 q 235 1098 218 1082 q 283 1114 253 1114 q 329 1098 313 1114 q 346 1053 346 1082 q 329 1006 346 1022 q 283 989 313 989 m 506 989 q 458 1006 475 989 q 442 1053 442 1022 q 458 1098 442 1082 q 506 1114 475 1114 q 551 1098 535 1114 q 567 1053 567 1082 q 551 1006 567 1022 q 506 989 535 989 z "},"Ė":{"ha":778,"x_min":63,"x_max":729,"o":"m 711 211 q 718 215 711 215 q 726 213 722 215 q 729 208 731 211 q 717 21 717 133 q 712 5 717 10 q 694 0 707 0 l 69 0 q 64 8 64 0 q 68 17 64 17 q 137 24 115 17 q 166 50 158 31 q 174 113 174 69 l 174 756 q 164 817 172 797 q 134 844 156 836 q 67 851 113 851 q 63 860 63 851 q 65 868 63 868 l 656 868 q 667 856 667 868 l 671 679 q 663 675 671 675 q 653 679 656 675 q 594 799 642 754 q 478 844 547 844 l 385 844 q 317 838 338 844 q 289 813 296 831 q 281 754 282 794 l 281 468 l 483 468 q 575 491 547 468 q 601 568 603 514 q 610 574 601 574 q 618 568 619 574 l 618 521 l 618 451 q 619 389 618 410 l 621 318 q 612 313 621 313 q 603 318 603 313 q 573 408 603 379 q 478 436 543 436 l 281 436 l 281 118 q 288 59 281 78 q 317 33 296 40 q 383 26 339 26 l 510 26 q 632 77 578 26 q 711 211 686 128 m 396 985 q 345 1003 364 985 q 326 1053 326 1021 q 345 1101 326 1083 q 396 1118 364 1118 q 444 1101 426 1118 q 463 1053 463 1083 q 445 1003 463 1021 q 396 985 428 985 z "},"Ẹ":{"ha":778,"x_min":63,"x_max":729,"o":"m 711 211 q 718 215 711 215 q 726 213 722 215 q 729 208 731 211 q 717 21 717 133 q 712 5 717 10 q 694 0 707 0 l 69 0 q 64 8 64 0 q 68 17 64 17 q 137 24 115 17 q 166 50 158 31 q 174 113 174 69 l 174 756 q 164 817 172 797 q 134 844 156 836 q 67 851 113 851 q 63 860 63 851 q 65 868 63 868 l 656 868 q 667 856 667 868 l 671 679 q 663 675 671 675 q 653 679 656 675 q 594 799 642 754 q 478 844 547 844 l 385 844 q 317 838 338 844 q 289 813 296 831 q 281 754 282 794 l 281 468 l 483 468 q 575 491 547 468 q 601 568 603 514 q 610 574 601 574 q 618 568 619 574 l 618 521 l 618 451 q 619 389 618 410 l 621 318 q 612 313 621 313 q 603 318 603 313 q 573 408 603 379 q 478 436 543 436 l 281 436 l 281 118 q 288 59 281 78 q 317 33 296 40 q 383 26 339 26 l 510 26 q 632 77 578 26 q 711 211 686 128 m 422 -271 q 372 -253 390 -271 q 353 -203 353 -235 q 372 -156 353 -174 q 422 -139 390 -139 q 470 -156 453 -139 q 488 -203 488 -174 q 470 -253 488 -235 q 422 -271 453 -271 z "},"È":{"ha":778,"x_min":63,"x_max":729,"o":"m 711 211 q 718 215 711 215 q 726 213 722 215 q 729 208 731 211 q 717 21 717 133 q 712 5 717 10 q 694 0 707 0 l 69 0 q 64 8 64 0 q 68 17 64 17 q 137 24 115 17 q 166 50 158 31 q 174 113 174 69 l 174 756 q 164 817 172 797 q 134 844 156 836 q 67 851 113 851 q 63 860 63 851 q 65 868 63 868 l 656 868 q 667 856 667 868 l 671 679 q 663 675 671 675 q 653 679 656 675 q 594 799 642 754 q 478 844 547 844 l 385 844 q 317 838 338 844 q 289 813 296 831 q 281 754 282 794 l 281 468 l 483 468 q 575 491 547 468 q 601 568 603 514 q 610 574 601 574 q 618 568 619 574 l 618 521 l 618 451 q 619 389 618 410 l 621 318 q 612 313 621 313 q 603 318 603 313 q 573 408 603 379 q 478 436 543 436 l 281 436 l 281 118 q 288 59 281 78 q 317 33 296 40 q 383 26 339 26 l 510 26 q 632 77 578 26 q 711 211 686 128 m 532 951 q 390 1007 450 985 q 251 1050 329 1029 q 263 1065 238 1053 q 322 1088 288 1078 q 364 1093 357 1097 q 538 964 413 1054 q 542 958 542 963 q 538 953 542 956 q 532 951 535 950 z "},"Ẻ":{"ha":778,"x_min":63,"x_max":729,"o":"m 711 211 q 718 215 711 215 q 726 213 722 215 q 729 208 731 211 q 717 21 717 133 q 712 5 717 10 q 694 0 707 0 l 69 0 q 64 8 64 0 q 68 17 64 17 q 137 24 115 17 q 166 50 158 31 q 174 113 174 69 l 174 756 q 164 817 172 797 q 134 844 156 836 q 67 851 113 851 q 63 860 63 851 q 65 868 63 868 l 656 868 q 667 856 667 868 l 671 679 q 663 675 671 675 q 653 679 656 675 q 594 799 642 754 q 478 844 547 844 l 385 844 q 317 838 338 844 q 289 813 296 831 q 281 754 282 794 l 281 468 l 483 468 q 575 491 547 468 q 601 568 603 514 q 610 574 601 574 q 618 568 619 574 l 618 521 l 618 451 q 619 389 618 410 l 621 318 q 612 313 621 313 q 603 318 603 313 q 573 408 603 379 q 478 436 543 436 l 281 436 l 281 118 q 288 59 281 78 q 317 33 296 40 q 383 26 339 26 l 510 26 q 632 77 578 26 q 711 211 686 128 m 400 904 q 394 901 401 901 q 385 904 386 900 q 378 943 378 922 q 397 1014 378 972 q 415 1076 415 1053 q 400 1124 415 1107 q 360 1140 385 1140 q 318 1129 338 1140 l 315 1129 q 308 1133 311 1129 q 308 1142 304 1138 q 404 1172 349 1172 q 474 1151 449 1172 q 500 1094 500 1129 q 487 1050 500 1071 q 447 1000 474 1029 q 411 956 424 975 q 399 918 399 938 q 400 904 399 908 z "},"Ē":{"ha":778,"x_min":63,"x_max":729,"o":"m 711 211 q 718 215 711 215 q 726 213 722 215 q 729 208 731 211 q 717 21 717 133 q 712 5 717 10 q 694 0 707 0 l 69 0 q 64 8 64 0 q 68 17 64 17 q 137 24 115 17 q 166 50 158 31 q 174 113 174 69 l 174 756 q 164 817 172 797 q 134 844 156 836 q 67 851 113 851 q 63 860 63 851 q 65 868 63 868 l 656 868 q 667 856 667 868 l 671 679 q 663 675 671 675 q 653 679 656 675 q 594 799 642 754 q 478 844 547 844 l 385 844 q 317 838 338 844 q 289 813 296 831 q 281 754 282 794 l 281 468 l 483 468 q 575 491 547 468 q 601 568 603 514 q 610 574 601 574 q 618 568 619 574 l 618 521 l 618 451 q 619 389 618 410 l 621 318 q 612 313 621 313 q 603 318 603 313 q 573 408 603 379 q 478 436 543 436 l 281 436 l 281 118 q 288 59 281 78 q 317 33 296 40 q 383 26 339 26 l 510 26 q 632 77 578 26 q 711 211 686 128 m 235 994 q 225 1017 225 994 q 235 1039 225 1039 l 560 1039 q 568 1032 565 1039 q 571 1017 571 1025 q 568 1001 571 1008 q 560 994 565 994 l 235 994 z "},"Ę":{"ha":778,"x_min":63,"x_max":731,"o":"m 635 0 q 568 -103 592 -56 q 546 -201 544 -151 q 572 -298 546 -261 q 646 -335 597 -335 q 715 -301 685 -335 l 718 -300 q 726 -306 722 -300 q 728 -314 731 -311 q 665 -366 696 -350 q 599 -382 635 -382 q 501 -343 538 -382 q 464 -243 464 -304 q 503 -126 465 -186 q 610 0 542 -67 l 69 0 q 64 8 64 0 q 68 17 64 17 q 137 24 115 17 q 166 50 158 31 q 174 113 174 69 l 174 756 q 164 817 172 797 q 134 844 156 836 q 67 851 113 851 q 63 860 63 851 q 65 868 63 868 l 656 868 q 667 856 667 868 l 671 679 q 663 675 671 675 q 653 679 656 675 q 594 799 642 754 q 478 844 547 844 l 385 844 q 317 838 338 844 q 289 813 296 831 q 281 754 282 794 l 281 468 l 483 468 q 575 491 547 468 q 601 568 603 514 q 610 574 601 574 q 618 568 619 574 l 618 521 l 618 451 q 619 389 618 410 l 621 318 q 612 313 621 313 q 603 318 603 313 q 573 408 603 379 q 478 436 543 436 l 281 436 l 281 118 q 288 59 281 78 q 317 33 296 40 q 383 26 339 26 l 510 26 q 632 77 578 26 q 711 211 686 128 q 718 215 711 215 q 726 213 722 215 q 729 208 731 211 q 717 21 717 133 q 712 5 717 10 q 694 0 707 0 l 635 0 z "},"Ẽ":{"ha":778,"x_min":63,"x_max":729,"o":"m 711 211 q 718 215 711 215 q 726 213 722 215 q 729 208 731 211 q 717 21 717 133 q 712 5 717 10 q 694 0 707 0 l 69 0 q 64 8 64 0 q 68 17 64 17 q 137 24 115 17 q 166 50 158 31 q 174 113 174 69 l 174 756 q 164 817 172 797 q 134 844 156 836 q 67 851 113 851 q 63 860 63 851 q 65 868 63 868 l 656 868 q 667 856 667 868 l 671 679 q 663 675 671 675 q 653 679 656 675 q 594 799 642 754 q 478 844 547 844 l 385 844 q 317 838 338 844 q 289 813 296 831 q 281 754 282 794 l 281 468 l 483 468 q 575 491 547 468 q 601 568 603 514 q 610 574 601 574 q 618 568 619 574 l 618 521 l 618 451 q 619 389 618 410 l 621 318 q 612 313 621 313 q 603 318 603 313 q 573 408 603 379 q 478 436 543 436 l 281 436 l 281 118 q 288 59 281 78 q 317 33 296 40 q 383 26 339 26 l 510 26 q 632 77 578 26 q 711 211 686 128 m 228 961 q 220 965 224 961 q 218 971 217 968 q 328 1065 267 1065 q 399 1050 350 1065 q 440 1040 406 1049 q 506 1031 475 1031 q 547 1040 532 1031 q 576 1068 561 1049 l 578 1068 q 585 1065 581 1068 q 588 1058 589 1061 q 537 984 558 1003 q 485 965 515 965 q 434 972 461 965 q 400 981 407 979 q 300 999 340 999 q 260 991 271 999 q 229 961 249 983 l 228 961 z "},"F":{"ha":724,"x_min":57,"x_max":667,"o":"m 665 731 l 667 679 q 658 675 667 675 q 649 679 651 675 q 590 799 638 754 q 474 844 543 844 l 381 844 q 312 838 333 844 q 284 813 290 831 q 276 754 278 794 l 276 451 l 456 451 q 547 474 519 451 q 574 551 574 497 q 583 558 574 558 q 590 551 592 558 l 590 504 l 590 435 q 592 372 590 393 l 593 301 q 585 296 593 296 q 576 301 576 296 q 546 391 576 363 q 451 419 515 419 l 276 419 l 276 118 q 289 54 278 75 q 333 25 300 33 q 438 17 367 17 q 442 8 442 17 q 438 0 442 0 q 367 1 394 0 l 219 3 l 129 1 q 63 0 106 0 q 60 8 60 0 q 63 17 60 17 q 131 24 110 17 q 160 50 153 31 q 168 113 168 69 l 168 756 q 159 817 167 797 q 130 844 151 836 q 63 851 108 851 q 58 860 58 851 q 63 868 57 868 l 651 868 q 659 865 657 868 q 661 856 661 863 l 665 731 z "},"G":{"ha":949,"x_min":60,"x_max":904,"o":"m 550 -17 q 288 42 399 -17 q 118 203 176 101 q 60 435 60 306 q 127 667 60 564 q 311 826 194 769 q 572 883 428 883 q 698 871 638 883 q 797 836 758 858 q 811 822 808 828 q 815 804 814 817 l 828 642 q 821 635 828 636 q 811 639 814 635 q 701 797 776 742 q 517 851 625 851 q 269 753 357 851 q 181 485 181 654 q 233 237 181 344 q 379 69 286 129 q 589 10 472 10 q 682 23 650 10 q 728 72 714 36 q 743 175 743 107 q 733 274 743 244 q 691 314 722 304 q 586 324 660 324 q 578 335 578 324 q 580 342 578 339 q 585 346 582 346 q 758 339 689 339 q 896 343 825 339 q 903 333 903 343 q 897 324 904 324 q 859 315 869 325 q 846 274 849 304 q 843 161 843 244 q 848 72 843 96 q 853 39 853 47 q 850 28 853 32 q 839 22 847 25 q 550 -17 676 -17 z "},"Ğ":{"ha":949,"x_min":60,"x_max":903,"o":"m 550 -17 q 288 42 399 -17 q 118 203 176 101 q 60 435 60 306 q 127 667 60 564 q 311 826 194 769 q 572 883 428 883 q 698 871 638 883 q 797 836 758 858 q 811 822 808 828 q 815 804 814 817 l 828 642 q 821 635 828 636 q 811 639 814 635 q 701 797 776 742 q 517 851 625 851 q 269 753 357 851 q 181 485 181 654 q 233 237 181 344 q 379 69 286 129 q 589 10 472 10 q 682 23 650 10 q 728 72 714 36 q 743 175 743 107 q 733 274 743 244 q 691 314 722 304 q 586 324 660 324 q 578 335 578 324 q 580 342 578 339 q 585 346 582 346 q 758 339 689 339 q 896 343 825 339 q 903 333 903 343 q 897 324 904 324 q 859 315 869 325 q 846 274 849 304 q 843 161 843 244 q 848 72 843 96 q 853 39 853 47 q 850 28 853 32 q 839 22 847 25 q 550 -17 676 -17 m 533 924 q 451 956 488 924 q 401 1049 414 989 q 423 1064 400 1057 q 467 1071 446 1071 q 483 1067 481 1071 q 516 1006 493 1028 q 567 985 539 985 q 615 1004 593 985 q 649 1061 636 1024 q 656 1065 649 1065 q 667 1063 661 1065 q 672 1057 672 1060 q 617 958 656 993 q 533 924 579 924 z "},"Ǧ":{"ha":949,"x_min":60,"x_max":903,"o":"m 550 -17 q 288 42 399 -17 q 118 203 176 101 q 60 435 60 306 q 127 667 60 564 q 311 826 194 769 q 572 883 428 883 q 698 871 638 883 q 797 836 758 858 q 811 822 808 828 q 815 804 814 817 l 828 642 q 821 635 828 636 q 811 639 814 635 q 701 797 776 742 q 517 851 625 851 q 269 753 357 851 q 181 485 181 654 q 233 237 181 344 q 379 69 286 129 q 589 10 472 10 q 682 23 650 10 q 728 72 714 36 q 743 175 743 107 q 733 274 743 244 q 691 314 722 304 q 586 324 660 324 q 578 335 578 324 q 580 342 578 339 q 585 346 582 346 q 758 339 689 339 q 896 343 825 339 q 903 333 903 343 q 897 324 904 324 q 859 315 869 325 q 846 274 849 304 q 843 161 843 244 q 848 72 843 96 q 853 39 853 47 q 850 28 853 32 q 839 22 847 25 q 550 -17 676 -17 m 396 1082 l 396 1083 q 399 1090 396 1088 q 404 1092 401 1093 l 539 1019 l 671 1092 l 672 1092 q 680 1088 676 1092 q 681 1082 683 1083 l 553 938 q 540 932 549 932 q 526 938 532 932 l 396 1082 z "},"Ĝ":{"ha":949,"x_min":60,"x_max":903,"o":"m 550 -17 q 288 42 399 -17 q 118 203 176 101 q 60 435 60 306 q 127 667 60 564 q 311 826 194 769 q 572 883 428 883 q 698 871 638 883 q 797 836 758 858 q 811 822 808 828 q 815 804 814 817 l 828 642 q 821 635 828 636 q 811 639 814 635 q 701 797 776 742 q 517 851 625 851 q 269 753 357 851 q 181 485 181 654 q 233 237 181 344 q 379 69 286 129 q 589 10 472 10 q 682 23 650 10 q 728 72 714 36 q 743 175 743 107 q 733 274 743 244 q 691 314 722 304 q 586 324 660 324 q 578 335 578 324 q 580 342 578 339 q 585 346 582 346 q 758 339 689 339 q 896 343 825 339 q 903 333 903 343 q 897 324 904 324 q 859 315 869 325 q 846 274 849 304 q 843 161 843 244 q 848 72 843 96 q 853 39 853 47 q 850 28 853 32 q 839 22 847 25 q 550 -17 676 -17 m 411 917 q 403 920 407 917 q 403 926 400 924 l 529 1069 q 542 1076 533 1076 q 556 1069 549 1076 l 688 926 q 687 919 690 924 q 681 917 683 914 l 543 988 l 413 917 l 411 917 z "},"Ģ":{"ha":949,"x_min":60,"x_max":903,"o":"m 550 -17 q 288 42 399 -17 q 118 203 176 101 q 60 435 60 306 q 127 667 60 564 q 311 826 194 769 q 572 883 428 883 q 698 871 638 883 q 797 836 758 858 q 811 822 808 828 q 815 804 814 817 l 828 642 q 821 635 828 636 q 811 639 814 635 q 701 797 776 742 q 517 851 625 851 q 269 753 357 851 q 181 485 181 654 q 233 237 181 344 q 379 69 286 129 q 589 10 472 10 q 682 23 650 10 q 728 72 714 36 q 743 175 743 107 q 733 274 743 244 q 691 314 722 304 q 586 324 660 324 q 578 335 578 324 q 580 342 578 339 q 585 346 582 346 q 758 339 689 339 q 896 343 825 339 q 903 333 903 343 q 897 324 904 324 q 859 315 869 325 q 846 274 849 304 q 843 161 843 244 q 848 72 843 96 q 853 39 853 47 q 850 28 853 32 q 839 22 847 25 q 550 -17 676 -17 m 567 -111 q 630 -138 608 -111 q 651 -215 651 -165 q 628 -304 651 -264 q 560 -382 604 -344 l 557 -383 q 549 -378 551 -383 q 549 -371 546 -374 q 613 -256 613 -317 q 603 -214 613 -229 q 556 -236 590 -236 q 513 -219 529 -236 q 497 -174 497 -201 q 517 -126 497 -142 q 567 -111 536 -111 z "},"Ġ":{"ha":949,"x_min":60,"x_max":903,"o":"m 550 -17 q 288 42 399 -17 q 118 203 176 101 q 60 435 60 306 q 127 667 60 564 q 311 826 194 769 q 572 883 428 883 q 698 871 638 883 q 797 836 758 858 q 811 822 808 828 q 815 804 814 817 l 828 642 q 821 635 828 636 q 811 639 814 635 q 701 797 776 742 q 517 851 625 851 q 269 753 357 851 q 181 485 181 654 q 233 237 181 344 q 379 69 286 129 q 589 10 472 10 q 682 23 650 10 q 728 72 714 36 q 743 175 743 107 q 733 274 743 244 q 691 314 722 304 q 586 324 660 324 q 578 335 578 324 q 580 342 578 339 q 585 346 582 346 q 758 339 689 339 q 896 343 825 339 q 903 333 903 343 q 897 324 904 324 q 859 315 869 325 q 846 274 849 304 q 843 161 843 244 q 848 72 843 96 q 853 39 853 47 q 850 28 853 32 q 839 22 847 25 q 550 -17 676 -17 m 544 985 q 494 1003 513 985 q 475 1053 475 1021 q 494 1101 475 1083 q 544 1118 513 1118 q 593 1101 575 1118 q 611 1053 611 1083 q 594 1003 611 1021 q 544 985 576 985 z "},"Ḡ":{"ha":949,"x_min":60,"x_max":903,"o":"m 550 -17 q 288 42 399 -17 q 118 203 176 101 q 60 435 60 306 q 127 667 60 564 q 311 826 194 769 q 572 883 428 883 q 698 871 638 883 q 797 836 758 858 q 811 822 808 828 q 815 804 814 817 l 828 642 q 821 635 828 636 q 811 639 814 635 q 701 797 776 742 q 517 851 625 851 q 269 753 357 851 q 181 485 181 654 q 233 237 181 344 q 379 69 286 129 q 589 10 472 10 q 682 23 650 10 q 728 72 714 36 q 743 175 743 107 q 733 274 743 244 q 691 314 722 304 q 586 324 660 324 q 578 335 578 324 q 580 342 578 339 q 585 346 582 346 q 758 339 689 339 q 896 343 825 339 q 903 333 903 343 q 897 324 904 324 q 859 315 869 325 q 846 274 849 304 q 843 161 843 244 q 848 72 843 96 q 853 39 853 47 q 850 28 853 32 q 839 22 847 25 q 550 -17 676 -17 m 381 994 q 372 1001 375 994 q 369 1017 369 1008 q 372 1032 369 1025 q 381 1039 375 1039 l 706 1039 q 715 1017 715 1039 q 706 994 715 994 l 381 994 z "},"H":{"ha":1011,"x_min":56,"x_max":956,"o":"m 951 17 q 956 8 956 17 q 951 0 956 0 q 890 1 913 0 l 793 3 l 699 1 q 631 0 674 0 q 627 8 628 0 q 631 17 626 17 q 701 24 679 17 q 729 50 722 31 q 736 113 736 69 l 735 436 l 274 436 l 274 113 q 281 51 274 71 q 311 24 289 31 q 381 17 333 17 q 383 8 383 17 q 381 0 383 0 q 314 1 338 0 l 215 3 l 125 1 q 60 0 101 0 q 56 8 56 0 q 60 17 56 17 q 128 24 107 17 q 158 51 150 31 q 165 113 165 71 l 165 756 q 158 817 165 797 q 128 844 150 836 q 61 851 107 851 q 58 860 58 851 q 61 868 57 868 l 126 867 q 218 864 182 864 q 314 867 253 864 l 381 868 q 383 860 383 868 q 381 851 383 851 q 311 843 333 851 q 282 815 289 835 q 274 753 275 796 l 274 468 l 735 468 l 735 753 q 727 815 735 794 q 698 843 719 835 q 631 851 676 851 q 627 860 628 851 q 631 868 626 868 l 697 867 q 789 864 753 864 q 885 867 824 864 l 949 868 q 954 860 954 868 q 950 851 954 851 q 882 844 904 851 q 852 817 860 836 q 843 756 844 797 l 843 113 q 851 51 843 71 q 883 24 860 32 q 951 17 906 17 z "},"Ħ":{"ha":1011,"x_min":56,"x_max":956,"o":"m 951 17 q 956 8 956 17 q 951 0 956 0 q 890 1 913 0 l 793 3 l 699 1 q 631 0 674 0 q 627 8 628 0 q 631 17 626 17 q 701 24 679 17 q 729 50 722 31 q 736 113 736 69 l 736 306 l 274 306 l 274 113 q 281 51 274 71 q 311 24 289 31 q 381 17 333 17 q 383 8 383 17 q 381 0 383 0 q 314 1 338 0 l 215 3 l 125 1 q 60 0 101 0 q 56 8 56 0 q 60 17 56 17 q 128 24 107 17 q 158 51 150 31 q 165 113 165 71 l 165 756 q 158 817 165 797 q 128 844 150 836 q 61 851 107 851 q 58 860 58 851 q 61 868 57 868 l 126 867 q 218 864 182 864 q 314 867 253 864 l 381 868 q 383 860 383 868 q 381 851 383 851 q 311 843 333 851 q 282 815 289 835 q 274 753 275 796 l 274 597 l 735 597 l 735 753 q 727 815 735 794 q 698 843 719 835 q 631 851 676 851 q 627 860 628 851 q 631 868 626 868 l 697 867 q 789 864 753 864 q 885 867 824 864 l 949 868 q 954 860 954 868 q 950 851 954 851 q 882 844 904 851 q 852 817 860 836 q 843 756 844 797 l 843 113 q 851 51 843 71 q 883 24 860 32 q 951 17 906 17 m 274 338 l 736 338 l 735 565 l 274 565 l 274 338 z "},"Ḫ":{"ha":1011,"x_min":56,"x_max":956,"o":"m 951 17 q 956 8 956 17 q 951 0 956 0 q 890 1 913 0 l 793 3 l 699 1 q 631 0 674 0 q 627 8 628 0 q 631 17 626 17 q 701 24 679 17 q 729 50 722 31 q 736 113 736 69 l 735 436 l 274 436 l 274 113 q 281 51 274 71 q 311 24 289 31 q 381 17 333 17 q 383 8 383 17 q 381 0 383 0 q 314 1 338 0 l 215 3 l 125 1 q 60 0 101 0 q 56 8 56 0 q 60 17 56 17 q 128 24 107 17 q 158 51 150 31 q 165 113 165 71 l 165 756 q 158 817 165 797 q 128 844 150 836 q 61 851 107 851 q 58 860 58 851 q 61 868 57 868 l 126 867 q 218 864 182 864 q 314 867 253 864 l 381 868 q 383 860 383 868 q 381 851 383 851 q 311 843 333 851 q 282 815 289 835 q 274 753 275 796 l 274 468 l 735 468 l 735 753 q 727 815 735 794 q 698 843 719 835 q 631 851 676 851 q 627 860 628 851 q 631 868 626 868 l 697 867 q 789 864 753 864 q 885 867 824 864 l 949 868 q 954 860 954 868 q 950 851 954 851 q 882 844 904 851 q 852 817 860 836 q 843 756 844 797 l 843 113 q 851 51 843 71 q 883 24 860 32 q 951 17 906 17 m 513 -272 q 430 -240 467 -272 q 381 -147 393 -207 q 402 -132 379 -139 q 446 -125 425 -125 q 463 -129 460 -125 q 495 -190 472 -168 q 546 -211 518 -211 q 594 -192 572 -211 q 628 -135 615 -172 q 635 -131 628 -131 q 646 -133 640 -131 q 651 -139 651 -136 q 597 -237 635 -203 q 513 -272 558 -272 z "},"Ĥ":{"ha":1011,"x_min":56,"x_max":956,"o":"m 951 17 q 956 8 956 17 q 951 0 956 0 q 890 1 913 0 l 793 3 l 699 1 q 631 0 674 0 q 627 8 628 0 q 631 17 626 17 q 701 24 679 17 q 729 50 722 31 q 736 113 736 69 l 735 436 l 274 436 l 274 113 q 281 51 274 71 q 311 24 289 31 q 381 17 333 17 q 383 8 383 17 q 381 0 383 0 q 314 1 338 0 l 215 3 l 125 1 q 60 0 101 0 q 56 8 56 0 q 60 17 56 17 q 128 24 107 17 q 158 51 150 31 q 165 113 165 71 l 165 756 q 158 817 165 797 q 128 844 150 836 q 61 851 107 851 q 58 860 58 851 q 61 868 57 868 l 126 867 q 218 864 182 864 q 314 867 253 864 l 381 868 q 383 860 383 868 q 381 851 383 851 q 311 843 333 851 q 282 815 289 835 q 274 753 275 796 l 274 468 l 735 468 l 735 753 q 727 815 735 794 q 698 843 719 835 q 631 851 676 851 q 627 860 628 851 q 631 868 626 868 l 697 867 q 789 864 753 864 q 885 867 824 864 l 949 868 q 954 860 954 868 q 950 851 954 851 q 882 844 904 851 q 852 817 860 836 q 843 756 844 797 l 843 113 q 851 51 843 71 q 883 24 860 32 q 951 17 906 17 m 375 917 q 367 920 371 917 q 367 926 364 924 l 493 1069 q 506 1076 497 1076 q 519 1069 513 1076 l 651 926 q 651 919 654 924 q 644 917 647 914 l 507 988 l 376 917 l 375 917 z "},"Ḥ":{"ha":1011,"x_min":56,"x_max":956,"o":"m 951 17 q 956 8 956 17 q 951 0 956 0 q 890 1 913 0 l 793 3 l 699 1 q 631 0 674 0 q 627 8 628 0 q 631 17 626 17 q 701 24 679 17 q 729 50 722 31 q 736 113 736 69 l 735 436 l 274 436 l 274 113 q 281 51 274 71 q 311 24 289 31 q 381 17 333 17 q 383 8 383 17 q 381 0 383 0 q 314 1 338 0 l 215 3 l 125 1 q 60 0 101 0 q 56 8 56 0 q 60 17 56 17 q 128 24 107 17 q 158 51 150 31 q 165 113 165 71 l 165 756 q 158 817 165 797 q 128 844 150 836 q 61 851 107 851 q 58 860 58 851 q 61 868 57 868 l 126 867 q 218 864 182 864 q 314 867 253 864 l 381 868 q 383 860 383 868 q 381 851 383 851 q 311 843 333 851 q 282 815 289 835 q 274 753 275 796 l 274 468 l 735 468 l 735 753 q 727 815 735 794 q 698 843 719 835 q 631 851 676 851 q 627 860 628 851 q 631 868 626 868 l 697 867 q 789 864 753 864 q 885 867 824 864 l 949 868 q 954 860 954 868 q 950 851 954 851 q 882 844 904 851 q 852 817 860 836 q 843 756 844 797 l 843 113 q 851 51 843 71 q 883 24 860 32 q 951 17 906 17 m 528 -271 q 477 -253 496 -271 q 458 -203 458 -235 q 477 -156 458 -174 q 528 -139 496 -139 q 576 -156 558 -139 q 593 -203 593 -174 q 576 -253 593 -235 q 528 -271 558 -271 z "},"I":{"ha":468,"x_min":68,"x_max":399,"o":"m 74 0 q 69 8 69 0 q 72 17 69 17 q 142 24 119 17 q 172 51 164 31 q 179 113 181 71 l 179 756 q 171 817 179 797 q 140 844 163 836 q 72 851 118 851 q 69 860 69 851 q 72 868 68 868 l 138 867 q 232 864 196 864 q 332 867 274 864 l 394 868 q 399 860 399 868 q 394 851 399 851 q 327 843 349 851 q 298 815 306 835 q 289 753 290 794 l 289 113 q 298 51 290 71 q 327 24 306 31 q 394 17 349 17 q 399 8 399 17 q 396 0 399 0 q 332 1 354 0 l 235 3 l 142 1 q 74 0 117 0 z "},"Ĳ":{"ha":929,"x_min":38,"x_max":906,"o":"m 46 374 q 38 382 39 374 q 44 390 38 390 q 117 397 94 390 q 147 424 139 404 q 154 486 154 443 l 154 756 q 146 817 154 797 q 115 844 138 836 q 44 851 93 851 q 39 860 39 851 q 44 868 39 868 l 118 867 q 213 864 176 864 q 317 867 253 864 l 382 868 q 389 860 389 868 q 382 851 389 851 q 309 843 332 851 q 278 815 286 835 q 269 753 271 794 l 269 486 q 278 424 269 444 q 308 397 286 404 q 381 390 331 390 q 387 382 386 390 q 382 374 388 374 q 311 375 338 374 l 210 376 l 115 375 q 46 374 90 374 m 460 -18 q 301 13 372 -18 q 188 94 229 44 q 147 193 147 143 q 160 233 147 218 q 201 247 174 247 q 254 225 240 247 q 279 153 268 203 q 303 76 290 106 q 352 26 317 47 q 454 6 388 6 q 631 77 575 6 q 688 278 688 149 l 688 756 q 678 817 688 797 q 643 844 669 836 q 560 851 617 851 q 556 860 556 851 q 560 868 556 868 l 642 867 q 743 864 706 864 q 836 867 778 864 l 899 868 q 906 860 906 868 q 899 851 906 851 q 834 843 854 851 q 807 815 814 835 q 800 753 800 794 l 801 358 q 758 154 801 239 q 638 26 715 69 q 460 -18 560 -18 z "},"Í":{"ha":468,"x_min":68,"x_max":440,"o":"m 74 0 q 69 8 69 0 q 72 17 69 17 q 142 24 119 17 q 172 51 164 31 q 179 113 181 71 l 179 756 q 171 817 179 797 q 140 844 163 836 q 72 851 118 851 q 69 860 69 851 q 72 868 68 868 l 138 867 q 232 864 196 864 q 332 867 274 864 l 394 868 q 399 860 399 868 q 394 851 399 851 q 327 843 349 851 q 298 815 306 835 q 289 753 290 794 l 289 113 q 298 51 290 71 q 327 24 306 31 q 394 17 349 17 q 399 8 399 17 q 396 0 399 0 q 332 1 354 0 l 235 3 l 142 1 q 74 0 117 0 m 144 942 q 136 948 139 942 q 138 957 133 954 q 258 1044 188 988 q 286 1067 271 1054 q 322 1093 301 1079 q 362 1088 328 1097 q 422 1065 396 1078 q 436 1050 449 1053 q 147 943 288 1011 l 144 942 z "},"Ĭ":{"ha":468,"x_min":68,"x_max":399,"o":"m 74 0 q 69 8 69 0 q 72 17 69 17 q 142 24 119 17 q 172 51 164 31 q 179 113 181 71 l 179 756 q 171 817 179 797 q 140 844 163 836 q 72 851 118 851 q 69 860 69 851 q 72 868 68 868 l 138 867 q 232 864 196 864 q 332 867 274 864 l 394 868 q 399 860 399 868 q 394 851 399 851 q 327 843 349 851 q 298 815 306 835 q 289 753 290 794 l 289 113 q 298 51 290 71 q 327 24 306 31 q 394 17 349 17 q 399 8 399 17 q 396 0 399 0 q 332 1 354 0 l 235 3 l 142 1 q 74 0 117 0 m 228 924 q 145 956 182 924 q 96 1049 108 989 q 117 1064 94 1057 q 161 1071 140 1071 q 178 1067 176 1071 q 210 1006 188 1028 q 261 985 233 985 q 309 1004 288 985 q 343 1061 331 1024 q 350 1065 343 1065 q 361 1063 356 1065 q 367 1057 367 1060 q 312 958 350 993 q 228 924 274 924 z "},"Ǐ":{"ha":468,"x_min":68,"x_max":399,"o":"m 74 0 q 69 8 69 0 q 72 17 69 17 q 142 24 119 17 q 172 51 164 31 q 179 113 181 71 l 179 756 q 171 817 179 797 q 140 844 163 836 q 72 851 118 851 q 69 860 69 851 q 72 868 68 868 l 138 867 q 232 864 196 864 q 332 867 274 864 l 394 868 q 399 860 399 868 q 394 851 399 851 q 327 843 349 851 q 298 815 306 835 q 289 753 290 794 l 289 113 q 298 51 290 71 q 327 24 306 31 q 394 17 349 17 q 399 8 399 17 q 396 0 399 0 q 332 1 354 0 l 235 3 l 142 1 q 74 0 117 0 m 82 1082 l 82 1083 q 85 1090 82 1088 q 90 1092 88 1093 l 225 1019 l 357 1092 l 358 1092 q 366 1088 363 1092 q 367 1082 369 1083 l 239 938 q 226 932 235 932 q 213 938 218 932 l 82 1082 z "},"Î":{"ha":468,"x_min":68,"x_max":399,"o":"m 74 0 q 69 8 69 0 q 72 17 69 17 q 142 24 119 17 q 172 51 164 31 q 179 113 181 71 l 179 756 q 171 817 179 797 q 140 844 163 836 q 72 851 118 851 q 69 860 69 851 q 72 868 68 868 l 138 867 q 232 864 196 864 q 332 867 274 864 l 394 868 q 399 860 399 868 q 394 851 399 851 q 327 843 349 851 q 298 815 306 835 q 289 753 290 794 l 289 113 q 298 51 290 71 q 327 24 306 31 q 394 17 349 17 q 399 8 399 17 q 396 0 399 0 q 332 1 354 0 l 235 3 l 142 1 q 74 0 117 0 m 97 917 q 90 920 93 917 q 89 926 86 924 l 215 1069 q 228 1076 219 1076 q 242 1069 235 1076 l 374 926 q 373 919 376 924 q 367 917 369 914 l 229 988 l 99 917 l 97 917 z "},"Ï":{"ha":468,"x_min":68,"x_max":399,"o":"m 74 0 q 69 8 69 0 q 72 17 69 17 q 142 24 119 17 q 172 51 164 31 q 179 113 181 71 l 179 756 q 171 817 179 797 q 140 844 163 836 q 72 851 118 851 q 69 860 69 851 q 72 868 68 868 l 138 867 q 232 864 196 864 q 332 867 274 864 l 394 868 q 399 860 399 868 q 394 851 399 851 q 327 843 349 851 q 298 815 306 835 q 289 753 290 794 l 289 113 q 298 51 290 71 q 327 24 306 31 q 394 17 349 17 q 399 8 399 17 q 396 0 399 0 q 332 1 354 0 l 235 3 l 142 1 q 74 0 117 0 m 133 989 q 85 1006 103 989 q 68 1053 68 1022 q 85 1098 68 1082 q 133 1114 103 1114 q 179 1098 163 1114 q 196 1053 196 1082 q 179 1006 196 1022 q 133 989 163 989 m 329 989 q 283 1006 300 989 q 265 1053 265 1022 q 283 1098 265 1082 q 329 1114 300 1114 q 376 1098 360 1114 q 393 1053 393 1082 q 376 1006 393 1022 q 329 989 360 989 z "},"İ":{"ha":468,"x_min":68,"x_max":399,"o":"m 74 0 q 69 8 69 0 q 72 17 69 17 q 142 24 119 17 q 172 51 164 31 q 179 113 181 71 l 179 756 q 171 817 179 797 q 140 844 163 836 q 72 851 118 851 q 69 860 69 851 q 72 868 68 868 l 138 867 q 232 864 196 864 q 332 867 274 864 l 394 868 q 399 860 399 868 q 394 851 399 851 q 327 843 349 851 q 298 815 306 835 q 289 753 290 794 l 289 113 q 298 51 290 71 q 327 24 306 31 q 394 17 349 17 q 399 8 399 17 q 396 0 399 0 q 332 1 354 0 l 235 3 l 142 1 q 74 0 117 0 m 231 985 q 180 1003 199 985 q 161 1053 161 1021 q 180 1101 161 1083 q 231 1118 199 1118 q 279 1101 261 1118 q 297 1053 297 1083 q 280 1003 297 1021 q 231 985 263 985 z "},"Ị":{"ha":468,"x_min":68,"x_max":399,"o":"m 74 0 q 69 8 69 0 q 72 17 69 17 q 142 24 119 17 q 172 51 164 31 q 179 113 181 71 l 179 756 q 171 817 179 797 q 140 844 163 836 q 72 851 118 851 q 69 860 69 851 q 72 868 68 868 l 138 867 q 232 864 196 864 q 332 867 274 864 l 394 868 q 399 860 399 868 q 394 851 399 851 q 327 843 349 851 q 298 815 306 835 q 289 753 290 794 l 289 113 q 298 51 290 71 q 327 24 306 31 q 394 17 349 17 q 399 8 399 17 q 396 0 399 0 q 332 1 354 0 l 235 3 l 142 1 q 74 0 117 0 m 239 -271 q 188 -253 207 -271 q 169 -203 169 -235 q 188 -156 169 -174 q 239 -139 207 -139 q 287 -156 269 -139 q 304 -203 304 -174 q 287 -253 304 -235 q 239 -271 269 -271 z "},"Ì":{"ha":468,"x_min":68,"x_max":399,"o":"m 74 0 q 69 8 69 0 q 72 17 69 17 q 142 24 119 17 q 172 51 164 31 q 179 113 181 71 l 179 756 q 171 817 179 797 q 140 844 163 836 q 72 851 118 851 q 69 860 69 851 q 72 868 68 868 l 138 867 q 232 864 196 864 q 332 867 274 864 l 394 868 q 399 860 399 868 q 394 851 399 851 q 327 843 349 851 q 298 815 306 835 q 289 753 290 794 l 289 113 q 298 51 290 71 q 327 24 306 31 q 394 17 349 17 q 399 8 399 17 q 396 0 399 0 q 332 1 354 0 l 235 3 l 142 1 q 74 0 117 0 m 367 951 q 224 1007 285 985 q 86 1050 164 1029 q 97 1065 72 1053 q 157 1088 122 1078 q 199 1093 192 1097 q 372 964 247 1054 q 376 958 376 963 q 373 953 376 956 q 367 951 369 950 z "},"Ỉ":{"ha":468,"x_min":68,"x_max":399,"o":"m 74 0 q 69 8 69 0 q 72 17 69 17 q 142 24 119 17 q 172 51 164 31 q 179 113 181 71 l 179 756 q 171 817 179 797 q 140 844 163 836 q 72 851 118 851 q 69 860 69 851 q 72 868 68 868 l 138 867 q 232 864 196 864 q 332 867 274 864 l 394 868 q 399 860 399 868 q 394 851 399 851 q 327 843 349 851 q 298 815 306 835 q 289 753 290 794 l 289 113 q 298 51 290 71 q 327 24 306 31 q 394 17 349 17 q 399 8 399 17 q 396 0 399 0 q 332 1 354 0 l 235 3 l 142 1 q 74 0 117 0 m 235 904 q 228 901 236 901 q 219 904 221 900 q 213 943 213 922 q 232 1014 213 972 q 250 1076 250 1053 q 235 1124 250 1107 q 194 1140 219 1140 q 153 1129 172 1140 l 150 1129 q 142 1133 146 1129 q 143 1142 139 1138 q 239 1172 183 1172 q 309 1151 283 1172 q 335 1094 335 1129 q 322 1050 335 1071 q 282 1000 308 1029 q 246 956 258 975 q 233 918 233 938 q 235 904 233 908 z "},"Ī":{"ha":468,"x_min":60,"x_max":406,"o":"m 74 0 q 69 8 69 0 q 72 17 69 17 q 142 24 119 17 q 172 51 164 31 q 179 113 181 71 l 179 756 q 171 817 179 797 q 140 844 163 836 q 72 851 118 851 q 69 860 69 851 q 72 868 68 868 l 138 867 q 232 864 196 864 q 332 867 274 864 l 394 868 q 399 860 399 868 q 394 851 399 851 q 327 843 349 851 q 298 815 306 835 q 289 753 290 794 l 289 113 q 298 51 290 71 q 327 24 306 31 q 394 17 349 17 q 399 8 399 17 q 396 0 399 0 q 332 1 354 0 l 235 3 l 142 1 q 74 0 117 0 m 69 994 q 60 1017 60 994 q 69 1039 60 1039 l 394 1039 q 403 1032 400 1039 q 406 1017 406 1025 q 403 1001 406 1008 q 394 994 400 994 l 69 994 z "},"Į":{"ha":468,"x_min":68,"x_max":399,"o":"m 394 17 q 399 8 399 17 q 396 0 399 0 q 335 1 357 0 l 244 3 q 196 -187 196 -94 q 218 -292 196 -253 q 282 -332 240 -332 q 344 -301 319 -332 l 346 -301 q 355 -306 350 -301 q 357 -314 360 -311 q 298 -366 325 -350 q 236 -382 271 -382 q 149 -342 182 -382 q 115 -239 115 -301 q 224 3 115 -133 l 138 1 q 74 0 114 0 q 69 8 69 0 q 72 17 69 17 q 142 24 119 17 q 172 51 164 31 q 179 113 181 71 l 179 756 q 171 817 179 797 q 140 844 163 836 q 72 851 118 851 q 69 860 69 851 q 72 868 68 868 l 138 867 q 232 864 196 864 q 332 867 274 864 l 394 868 q 399 860 399 868 q 394 851 399 851 q 327 843 349 851 q 298 815 306 835 q 289 753 290 794 l 289 113 q 298 51 290 71 q 327 24 306 31 q 394 17 349 17 z "},"Ĩ":{"ha":468,"x_min":46,"x_max":417,"o":"m 74 0 q 69 8 69 0 q 72 17 69 17 q 142 24 119 17 q 172 51 164 31 q 179 113 181 71 l 179 756 q 171 817 179 797 q 140 844 163 836 q 72 851 118 851 q 69 860 69 851 q 72 868 68 868 l 138 867 q 232 864 196 864 q 332 867 274 864 l 394 868 q 399 860 399 868 q 394 851 399 851 q 327 843 349 851 q 298 815 306 835 q 289 753 290 794 l 289 113 q 298 51 290 71 q 327 24 306 31 q 394 17 349 17 q 399 8 399 17 q 396 0 399 0 q 332 1 354 0 l 235 3 l 142 1 q 74 0 117 0 m 56 961 q 49 965 53 961 q 46 971 44 968 q 157 1065 94 1065 q 226 1051 174 1065 q 285 1036 261 1042 q 335 1031 310 1031 q 376 1040 361 1031 q 406 1068 390 1049 l 407 1068 q 415 1065 411 1068 q 417 1058 418 1061 q 367 984 389 1003 q 314 965 344 965 q 263 972 290 965 q 228 981 235 979 q 128 999 168 999 q 92 992 103 999 q 72 976 81 986 q 57 961 63 967 l 56 961 z "},"J":{"ha":431,"x_min":49,"x_max":385,"o":"m 63 -269 q 53 -263 57 -271 q 53 -253 49 -256 q 140 -140 114 -215 q 165 56 167 -64 l 165 756 q 157 817 165 797 q 126 844 149 836 q 58 851 104 851 q 54 860 54 851 q 58 868 54 868 l 125 867 q 217 864 181 864 q 318 867 257 864 l 381 868 q 385 860 385 868 q 381 851 385 851 q 313 843 335 851 q 283 815 290 835 q 274 753 275 794 l 274 93 q 253 -83 274 -15 q 188 -193 232 -150 q 63 -269 143 -236 z "},"Ĵ":{"ha":431,"x_min":51,"x_max":385,"o":"m 63 -269 q 53 -263 57 -271 q 53 -253 49 -256 q 140 -140 114 -215 q 165 56 167 -64 l 165 756 q 157 817 165 797 q 126 844 149 836 q 58 851 104 851 q 54 860 54 851 q 58 868 54 868 l 125 867 q 217 864 181 864 q 318 867 257 864 l 381 868 q 385 860 385 868 q 381 851 385 851 q 313 843 335 851 q 283 815 290 835 q 274 753 275 794 l 274 93 q 253 -83 274 -15 q 188 -193 232 -150 q 63 -269 143 -236 m 81 917 q 73 920 76 917 q 72 926 69 924 l 199 1069 q 211 1076 203 1076 q 225 1069 218 1076 l 357 926 q 356 919 360 924 q 350 917 353 914 l 213 988 l 82 917 l 81 917 z "},"K":{"ha":907,"x_min":54,"x_max":904,"o":"m 900 17 q 904 8 904 17 q 900 0 904 0 l 768 0 q 688 7 704 0 q 617 89 671 14 q 526 211 564 164 l 325 469 l 274 419 l 274 113 q 278 48 274 65 q 301 24 282 31 q 369 17 319 17 q 372 8 372 17 q 369 0 372 0 q 308 1 329 0 l 214 3 l 124 1 q 58 0 100 0 q 54 8 54 0 q 58 17 54 17 q 127 24 106 17 q 157 51 149 31 q 165 113 165 71 l 165 756 q 158 817 165 797 q 128 844 150 836 q 61 851 107 851 q 58 860 58 851 q 61 868 57 868 l 126 867 q 218 864 182 864 q 314 867 253 864 l 381 868 q 383 860 383 868 q 381 851 383 851 q 311 843 333 851 q 282 815 289 835 q 274 753 275 796 l 274 456 l 568 747 q 608 815 608 790 q 535 851 608 851 q 531 860 531 851 q 535 868 531 868 l 597 867 q 704 864 658 864 q 796 867 749 864 l 844 868 q 849 860 849 868 q 844 851 849 851 q 724 823 789 851 q 603 739 658 794 l 397 539 l 594 288 q 748 102 697 157 q 828 32 799 47 q 900 17 858 17 z "},"Ḱ":{"ha":907,"x_min":54,"x_max":904,"o":"m 900 17 q 904 8 904 17 q 900 0 904 0 l 768 0 q 688 7 704 0 q 617 89 671 14 q 526 211 564 164 l 325 469 l 274 419 l 274 113 q 278 48 274 65 q 301 24 282 31 q 369 17 319 17 q 372 8 372 17 q 369 0 372 0 q 308 1 329 0 l 214 3 l 124 1 q 58 0 100 0 q 54 8 54 0 q 58 17 54 17 q 127 24 106 17 q 157 51 149 31 q 165 113 165 71 l 165 756 q 158 817 165 797 q 128 844 150 836 q 61 851 107 851 q 58 860 58 851 q 61 868 57 868 l 126 867 q 218 864 182 864 q 314 867 253 864 l 381 868 q 383 860 383 868 q 381 851 383 851 q 311 843 333 851 q 282 815 289 835 q 274 753 275 796 l 274 456 l 568 747 q 608 815 608 790 q 535 851 608 851 q 531 860 531 851 q 535 868 531 868 l 597 867 q 704 864 658 864 q 796 867 749 864 l 844 868 q 849 860 849 868 q 844 851 849 851 q 724 823 789 851 q 603 739 658 794 l 397 539 l 594 288 q 748 102 697 157 q 828 32 799 47 q 900 17 858 17 m 379 942 q 371 948 374 942 q 372 957 368 954 q 493 1044 422 988 q 521 1067 506 1054 q 557 1093 536 1079 q 597 1088 563 1097 q 657 1065 631 1078 q 671 1050 683 1053 q 382 943 522 1011 l 379 942 z "},"Ǩ":{"ha":907,"x_min":54,"x_max":904,"o":"m 900 17 q 904 8 904 17 q 900 0 904 0 l 768 0 q 688 7 704 0 q 617 89 671 14 q 526 211 564 164 l 325 469 l 274 419 l 274 113 q 278 48 274 65 q 301 24 282 31 q 369 17 319 17 q 372 8 372 17 q 369 0 372 0 q 308 1 329 0 l 214 3 l 124 1 q 58 0 100 0 q 54 8 54 0 q 58 17 54 17 q 127 24 106 17 q 157 51 149 31 q 165 113 165 71 l 165 756 q 158 817 165 797 q 128 844 150 836 q 61 851 107 851 q 58 860 58 851 q 61 868 57 868 l 126 867 q 218 864 182 864 q 314 867 253 864 l 381 868 q 383 860 383 868 q 381 851 383 851 q 311 843 333 851 q 282 815 289 835 q 274 753 275 796 l 274 456 l 568 747 q 608 815 608 790 q 535 851 608 851 q 531 860 531 851 q 535 868 531 868 l 597 867 q 704 864 658 864 q 796 867 749 864 l 844 868 q 849 860 849 868 q 844 851 849 851 q 724 823 789 851 q 603 739 658 794 l 397 539 l 594 288 q 748 102 697 157 q 828 32 799 47 q 900 17 858 17 m 317 1082 l 317 1083 q 319 1090 317 1088 q 325 1092 322 1093 l 460 1019 l 592 1092 l 593 1092 q 601 1088 597 1092 q 601 1082 604 1083 l 474 938 q 461 932 469 932 q 447 938 453 932 l 317 1082 z "},"Ķ":{"ha":907,"x_min":54,"x_max":904,"o":"m 900 17 q 904 8 904 17 q 900 0 904 0 l 768 0 q 688 7 704 0 q 617 89 671 14 q 526 211 564 164 l 325 469 l 274 419 l 274 113 q 278 48 274 65 q 301 24 282 31 q 369 17 319 17 q 372 8 372 17 q 369 0 372 0 q 308 1 329 0 l 214 3 l 124 1 q 58 0 100 0 q 54 8 54 0 q 58 17 54 17 q 127 24 106 17 q 157 51 149 31 q 165 113 165 71 l 165 756 q 158 817 165 797 q 128 844 150 836 q 61 851 107 851 q 58 860 58 851 q 61 868 57 868 l 126 867 q 218 864 182 864 q 314 867 253 864 l 381 868 q 383 860 383 868 q 381 851 383 851 q 311 843 333 851 q 282 815 289 835 q 274 753 275 796 l 274 456 l 568 747 q 608 815 608 790 q 535 851 608 851 q 531 860 531 851 q 535 868 531 868 l 597 867 q 704 864 658 864 q 796 867 749 864 l 844 868 q 849 860 849 868 q 844 851 849 851 q 724 823 789 851 q 603 739 658 794 l 397 539 l 594 288 q 748 102 697 157 q 828 32 799 47 q 900 17 858 17 m 497 -111 q 560 -138 539 -111 q 582 -215 582 -165 q 558 -304 582 -264 q 490 -382 535 -344 l 488 -383 q 479 -378 482 -383 q 479 -371 476 -374 q 543 -256 543 -317 q 533 -214 543 -229 q 486 -236 521 -236 q 444 -219 460 -236 q 428 -174 428 -201 q 447 -126 428 -142 q 497 -111 467 -111 z "},"L":{"ha":746,"x_min":56,"x_max":736,"o":"m 60 0 q 56 8 57 0 q 60 17 56 17 q 128 24 107 17 q 158 51 150 31 q 165 113 165 71 l 165 756 q 158 817 165 797 q 128 844 150 836 q 61 851 107 851 q 58 860 58 851 q 61 868 57 868 l 126 867 q 218 864 182 864 q 314 867 253 864 l 381 868 q 383 860 383 868 q 381 851 383 851 q 311 844 333 851 q 282 816 289 836 q 274 754 275 796 l 274 118 q 282 59 275 78 q 308 33 289 40 q 368 26 328 26 l 485 26 q 634 75 578 26 q 718 219 690 124 q 725 222 718 222 q 733 220 729 222 q 736 217 736 218 q 726 21 726 125 q 704 0 726 0 l 60 0 z "},"Ĺ":{"ha":746,"x_min":56,"x_max":736,"o":"m 60 0 q 56 8 57 0 q 60 17 56 17 q 128 24 107 17 q 158 51 150 31 q 165 113 165 71 l 165 756 q 158 817 165 797 q 128 844 150 836 q 61 851 107 851 q 58 860 58 851 q 61 868 57 868 l 126 867 q 218 864 182 864 q 314 867 253 864 l 381 868 q 383 860 383 868 q 381 851 383 851 q 311 844 333 851 q 282 816 289 836 q 274 754 275 796 l 274 118 q 282 59 275 78 q 308 33 289 40 q 368 26 328 26 l 485 26 q 634 75 578 26 q 718 219 690 124 q 725 222 718 222 q 733 220 729 222 q 736 217 736 218 q 726 21 726 125 q 704 0 726 0 l 60 0 m 132 942 q 124 948 126 942 q 125 957 121 954 q 246 1044 175 988 q 274 1067 258 1054 q 310 1093 289 1079 q 349 1088 315 1097 q 410 1065 383 1078 q 424 1050 436 1053 q 135 943 275 1011 l 132 942 z "},"Ľ":{"ha":746,"x_min":56,"x_max":736,"o":"m 60 0 q 56 8 57 0 q 60 17 56 17 q 128 24 107 17 q 158 51 150 31 q 165 113 165 71 l 165 756 q 158 817 165 797 q 128 844 150 836 q 61 851 107 851 q 58 860 58 851 q 61 868 57 868 l 126 867 q 218 864 182 864 q 314 867 253 864 l 381 868 q 383 860 383 868 q 381 851 383 851 q 311 844 333 851 q 282 816 289 836 q 274 754 275 796 l 274 118 q 282 59 275 78 q 308 33 289 40 q 368 26 328 26 l 485 26 q 634 75 578 26 q 718 219 690 124 q 725 222 718 222 q 733 220 729 222 q 736 217 736 218 q 726 21 726 125 q 704 0 726 0 l 60 0 m 550 868 q 572 866 550 875 q 612 842 593 857 q 629 819 631 828 l 575 490 q 568 488 575 488 q 560 490 561 488 l 550 868 z "},"Ļ":{"ha":746,"x_min":56,"x_max":736,"o":"m 60 0 q 56 8 57 0 q 60 17 56 17 q 128 24 107 17 q 158 51 150 31 q 165 113 165 71 l 165 756 q 158 817 165 797 q 128 844 150 836 q 61 851 107 851 q 58 860 58 851 q 61 868 57 868 l 126 867 q 218 864 182 864 q 314 867 253 864 l 381 868 q 383 860 383 868 q 381 851 383 851 q 311 844 333 851 q 282 816 289 836 q 274 754 275 796 l 274 118 q 282 59 275 78 q 308 33 289 40 q 368 26 328 26 l 485 26 q 634 75 578 26 q 718 219 690 124 q 725 222 718 222 q 733 220 729 222 q 736 217 736 218 q 726 21 726 125 q 704 0 726 0 l 60 0 m 431 -111 q 494 -138 472 -111 q 515 -215 515 -165 q 492 -304 515 -264 q 424 -382 468 -344 l 421 -383 q 413 -378 415 -383 q 413 -371 410 -374 q 476 -256 476 -317 q 467 -214 476 -229 q 419 -236 454 -236 q 377 -219 393 -236 q 361 -174 361 -201 q 381 -126 361 -142 q 431 -111 400 -111 z "},"Ŀ":{"ha":746,"x_min":56,"x_max":736,"o":"m 60 0 q 56 8 57 0 q 60 17 56 17 q 128 24 107 17 q 158 51 150 31 q 165 113 165 71 l 165 756 q 158 817 165 797 q 128 844 150 836 q 61 851 107 851 q 58 860 58 851 q 61 868 57 868 l 126 867 q 218 864 182 864 q 314 867 253 864 l 381 868 q 383 860 383 868 q 381 851 383 851 q 311 844 333 851 q 282 816 289 836 q 274 754 275 796 l 274 118 q 282 59 275 78 q 308 33 289 40 q 368 26 328 26 l 485 26 q 634 75 578 26 q 718 219 690 124 q 725 222 718 222 q 733 220 729 222 q 736 217 736 218 q 726 21 726 125 q 704 0 726 0 l 60 0 m 607 372 q 558 391 576 372 q 539 440 539 410 q 557 488 539 471 q 607 506 575 506 q 656 488 639 506 q 674 440 674 471 q 656 390 674 408 q 607 372 639 372 z "},"Ḷ":{"ha":746,"x_min":56,"x_max":736,"o":"m 60 0 q 56 8 57 0 q 60 17 56 17 q 128 24 107 17 q 158 51 150 31 q 165 113 165 71 l 165 756 q 158 817 165 797 q 128 844 150 836 q 61 851 107 851 q 58 860 58 851 q 61 868 57 868 l 126 867 q 218 864 182 864 q 314 867 253 864 l 381 868 q 383 860 383 868 q 381 851 383 851 q 311 844 333 851 q 282 816 289 836 q 274 754 275 796 l 274 118 q 282 59 275 78 q 308 33 289 40 q 368 26 328 26 l 485 26 q 634 75 578 26 q 718 219 690 124 q 725 222 718 222 q 733 220 729 222 q 736 217 736 218 q 726 21 726 125 q 704 0 726 0 l 60 0 m 435 -271 q 384 -253 403 -271 q 365 -203 365 -235 q 384 -156 365 -174 q 435 -139 403 -139 q 483 -156 465 -139 q 500 -203 500 -174 q 483 -253 500 -235 q 435 -271 465 -271 z "},"Ḹ":{"ha":746,"x_min":44,"x_max":736,"o":"m 60 0 q 56 8 57 0 q 60 17 56 17 q 128 24 107 17 q 158 51 150 31 q 165 113 165 71 l 165 756 q 158 817 165 797 q 128 844 150 836 q 61 851 107 851 q 58 860 58 851 q 61 868 57 868 l 126 867 q 218 864 182 864 q 314 867 253 864 l 381 868 q 383 860 383 868 q 381 851 383 851 q 311 844 333 851 q 282 816 289 836 q 274 754 275 796 l 274 118 q 282 59 275 78 q 308 33 289 40 q 368 26 328 26 l 485 26 q 634 75 578 26 q 718 219 690 124 q 725 222 718 222 q 733 220 729 222 q 736 217 736 218 q 726 21 726 125 q 704 0 726 0 l 60 0 m 435 -271 q 384 -253 403 -271 q 365 -203 365 -235 q 384 -156 365 -174 q 435 -139 403 -139 q 483 -156 465 -139 q 500 -203 500 -174 q 483 -253 500 -235 q 435 -271 465 -271 m 54 994 q 46 1001 49 994 q 43 1017 43 1008 q 46 1032 43 1025 q 54 1039 49 1039 l 379 1039 q 389 1017 389 1039 q 379 994 389 994 l 54 994 z "},"Ḻ":{"ha":746,"x_min":56,"x_max":736,"o":"m 60 0 q 56 8 57 0 q 60 17 56 17 q 128 24 107 17 q 158 51 150 31 q 165 113 165 71 l 165 756 q 158 817 165 797 q 128 844 150 836 q 61 851 107 851 q 58 860 58 851 q 61 868 57 868 l 126 867 q 218 864 182 864 q 314 867 253 864 l 381 868 q 383 860 383 868 q 381 851 383 851 q 311 844 333 851 q 282 816 289 836 q 274 754 275 796 l 274 118 q 282 59 275 78 q 308 33 289 40 q 368 26 328 26 l 485 26 q 634 75 578 26 q 718 219 690 124 q 725 222 718 222 q 733 220 729 222 q 736 217 736 218 q 726 21 726 125 q 704 0 726 0 l 60 0 m 268 -165 q 260 -158 263 -165 q 257 -143 257 -151 q 260 -128 257 -135 q 268 -121 263 -121 l 593 -121 q 603 -143 603 -121 q 593 -165 603 -165 l 268 -165 z "},"Ł":{"ha":771,"x_min":78,"x_max":758,"o":"m 740 219 q 747 222 740 222 q 755 220 751 222 q 758 217 758 218 q 749 21 749 125 q 726 0 749 0 l 82 0 q 78 8 79 0 q 82 17 78 17 q 151 24 129 17 q 180 51 172 31 q 188 113 188 71 l 188 371 l 108 318 l 107 318 q 94 328 101 318 q 92 340 88 339 l 188 404 l 188 756 q 180 817 188 797 q 151 844 172 836 q 83 851 129 851 q 80 860 81 851 q 83 868 79 868 l 149 867 q 240 864 204 864 q 336 867 275 864 l 403 868 q 406 860 406 868 q 403 851 406 851 q 333 844 356 851 q 304 816 311 836 q 296 754 297 796 l 296 476 l 386 538 l 389 539 q 401 528 394 539 q 404 515 408 518 l 296 443 l 296 118 q 304 59 297 78 q 331 33 311 40 q 390 26 350 26 l 507 26 q 656 75 600 26 q 740 219 713 124 z "},"M":{"ha":1107,"x_min":61,"x_max":1074,"o":"m 1069 17 q 1074 8 1074 17 q 1069 0 1074 0 q 1006 1 1029 0 l 908 3 l 815 1 q 750 0 792 0 q 745 8 746 0 q 750 17 744 17 q 819 24 797 17 q 849 51 842 31 q 856 113 857 71 l 836 774 l 549 10 q 539 4 546 4 q 526 11 531 4 l 211 753 l 211 754 l 208 161 q 233 52 208 88 q 311 17 257 17 q 316 8 315 17 q 311 0 317 0 q 261 1 279 0 l 188 3 l 119 1 q 65 0 101 0 q 61 8 61 0 q 64 17 61 17 q 172 160 172 17 l 178 806 q 68 851 136 851 q 64 860 64 851 q 68 868 64 868 q 107 867 93 868 l 156 865 q 211 867 189 865 q 246 868 233 868 q 274 854 263 868 q 306 796 286 840 l 575 167 l 826 833 q 844 858 831 849 q 872 868 857 868 q 901 867 882 868 q 946 865 921 865 l 1008 867 q 1050 868 1024 868 q 1054 860 1054 868 q 1050 851 1054 851 q 964 833 990 851 q 943 758 938 814 l 963 113 q 973 50 965 69 q 1002 24 981 31 q 1069 17 1024 17 z "},"Ṁ":{"ha":1107,"x_min":61,"x_max":1074,"o":"m 1069 17 q 1074 8 1074 17 q 1069 0 1074 0 q 1006 1 1029 0 l 908 3 l 815 1 q 750 0 792 0 q 745 8 746 0 q 750 17 744 17 q 819 24 797 17 q 849 51 842 31 q 856 113 857 71 l 836 774 l 549 10 q 539 4 546 4 q 526 11 531 4 l 211 753 l 211 754 l 208 161 q 233 52 208 88 q 311 17 257 17 q 316 8 315 17 q 311 0 317 0 q 261 1 279 0 l 188 3 l 119 1 q 65 0 101 0 q 61 8 61 0 q 64 17 61 17 q 172 160 172 17 l 178 806 q 68 851 136 851 q 64 860 64 851 q 68 868 64 868 q 107 867 93 868 l 156 865 q 211 867 189 865 q 246 868 233 868 q 274 854 263 868 q 306 796 286 840 l 575 167 l 826 833 q 844 858 831 849 q 872 868 857 868 q 901 867 882 868 q 946 865 921 865 l 1008 867 q 1050 868 1024 868 q 1054 860 1054 868 q 1050 851 1054 851 q 964 833 990 851 q 943 758 938 814 l 963 113 q 973 50 965 69 q 1002 24 981 31 q 1069 17 1024 17 m 561 985 q 510 1003 529 985 q 492 1053 492 1021 q 510 1101 492 1083 q 561 1118 529 1118 q 610 1101 592 1118 q 628 1053 628 1083 q 610 1003 628 1021 q 561 985 593 985 z "},"Ṃ":{"ha":1107,"x_min":61,"x_max":1074,"o":"m 1069 17 q 1074 8 1074 17 q 1069 0 1074 0 q 1006 1 1029 0 l 908 3 l 815 1 q 750 0 792 0 q 745 8 746 0 q 750 17 744 17 q 819 24 797 17 q 849 51 842 31 q 856 113 857 71 l 836 774 l 549 10 q 539 4 546 4 q 526 11 531 4 l 211 753 l 211 754 l 208 161 q 233 52 208 88 q 311 17 257 17 q 316 8 315 17 q 311 0 317 0 q 261 1 279 0 l 188 3 l 119 1 q 65 0 101 0 q 61 8 61 0 q 64 17 61 17 q 172 160 172 17 l 178 806 q 68 851 136 851 q 64 860 64 851 q 68 868 64 868 q 107 867 93 868 l 156 865 q 211 867 189 865 q 246 868 233 868 q 274 854 263 868 q 306 796 286 840 l 575 167 l 826 833 q 844 858 831 849 q 872 868 857 868 q 901 867 882 868 q 946 865 921 865 l 1008 867 q 1050 868 1024 868 q 1054 860 1054 868 q 1050 851 1054 851 q 964 833 990 851 q 943 758 938 814 l 963 113 q 973 50 965 69 q 1002 24 981 31 q 1069 17 1024 17 m 557 -271 q 506 -253 525 -271 q 488 -203 488 -235 q 506 -156 488 -174 q 557 -139 525 -139 q 605 -156 588 -139 q 622 -203 622 -174 q 605 -253 622 -235 q 557 -271 588 -271 z "},"N":{"ha":981,"x_min":46,"x_max":943,"o":"m 940 868 q 943 860 943 868 q 940 851 943 851 q 825 715 825 851 l 824 -12 q 819 -17 824 -15 q 810 -19 815 -19 q 796 -14 800 -19 l 200 750 l 200 151 q 227 50 200 83 q 311 17 254 17 q 315 8 315 17 q 311 0 315 0 q 257 1 276 0 l 183 3 l 110 1 q 51 0 89 0 q 47 8 47 0 q 51 17 47 17 q 165 151 165 17 l 165 792 q 50 851 110 851 q 46 860 46 851 q 50 868 46 868 l 111 867 q 160 865 129 865 q 208 867 188 865 q 238 868 229 868 q 253 863 249 868 q 268 842 258 858 q 299 796 278 822 l 790 160 l 790 715 q 764 818 790 785 q 681 851 738 851 q 676 860 676 851 q 681 868 676 868 l 731 867 q 808 864 778 864 q 879 867 835 864 l 940 868 z "},"Ń":{"ha":981,"x_min":46,"x_max":943,"o":"m 940 868 q 943 860 943 868 q 940 851 943 851 q 825 715 825 851 l 824 -12 q 819 -17 824 -15 q 810 -19 815 -19 q 796 -14 800 -19 l 200 750 l 200 151 q 227 50 200 83 q 311 17 254 17 q 315 8 315 17 q 311 0 315 0 q 257 1 276 0 l 183 3 l 110 1 q 51 0 89 0 q 47 8 47 0 q 51 17 47 17 q 165 151 165 17 l 165 792 q 50 851 110 851 q 46 860 46 851 q 50 868 46 868 l 111 867 q 160 865 129 865 q 208 867 188 865 q 238 868 229 868 q 253 863 249 868 q 268 842 258 858 q 299 796 278 822 l 790 160 l 790 715 q 764 818 790 785 q 681 851 738 851 q 676 860 676 851 q 681 868 676 868 l 731 867 q 808 864 778 864 q 879 867 835 864 l 940 868 m 394 942 q 386 948 389 942 q 388 957 383 954 q 508 1044 438 988 q 536 1067 521 1054 q 572 1093 551 1079 q 612 1088 578 1097 q 672 1065 646 1078 q 686 1050 699 1053 q 397 943 538 1011 l 394 942 z "},"Ň":{"ha":981,"x_min":46,"x_max":943,"o":"m 940 868 q 943 860 943 868 q 940 851 943 851 q 825 715 825 851 l 824 -12 q 819 -17 824 -15 q 810 -19 815 -19 q 796 -14 800 -19 l 200 750 l 200 151 q 227 50 200 83 q 311 17 254 17 q 315 8 315 17 q 311 0 315 0 q 257 1 276 0 l 183 3 l 110 1 q 51 0 89 0 q 47 8 47 0 q 51 17 47 17 q 165 151 165 17 l 165 792 q 50 851 110 851 q 46 860 46 851 q 50 868 46 868 l 111 867 q 160 865 129 865 q 208 867 188 865 q 238 868 229 868 q 253 863 249 868 q 268 842 258 858 q 299 796 278 822 l 790 160 l 790 715 q 764 818 790 785 q 681 851 738 851 q 676 860 676 851 q 681 868 676 868 l 731 867 q 808 864 778 864 q 879 867 835 864 l 940 868 m 332 1082 l 332 1083 q 335 1090 332 1088 q 340 1092 338 1093 l 475 1019 l 607 1092 l 608 1092 q 616 1088 613 1092 q 617 1082 619 1083 l 489 938 q 476 932 485 932 q 463 938 468 932 l 332 1082 z "},"Ņ":{"ha":981,"x_min":46,"x_max":943,"o":"m 940 868 q 943 860 943 868 q 940 851 943 851 q 825 715 825 851 l 824 -12 q 819 -17 824 -15 q 810 -19 815 -19 q 796 -14 800 -19 l 200 750 l 200 151 q 227 50 200 83 q 311 17 254 17 q 315 8 315 17 q 311 0 315 0 q 257 1 276 0 l 183 3 l 110 1 q 51 0 89 0 q 47 8 47 0 q 51 17 47 17 q 165 151 165 17 l 165 792 q 50 851 110 851 q 46 860 46 851 q 50 868 46 868 l 111 867 q 160 865 129 865 q 208 867 188 865 q 238 868 229 868 q 253 863 249 868 q 268 842 258 858 q 299 796 278 822 l 790 160 l 790 715 q 764 818 790 785 q 681 851 738 851 q 676 860 676 851 q 681 868 676 868 l 731 867 q 808 864 778 864 q 879 867 835 864 l 940 868 m 519 -111 q 583 -138 561 -111 q 604 -215 604 -165 q 581 -304 604 -264 q 513 -382 557 -344 l 510 -383 q 501 -378 504 -383 q 501 -371 499 -374 q 565 -256 565 -317 q 556 -214 565 -229 q 508 -236 543 -236 q 466 -219 482 -236 q 450 -174 450 -201 q 469 -126 450 -142 q 519 -111 489 -111 z "},"Ṅ":{"ha":981,"x_min":46,"x_max":943,"o":"m 940 868 q 943 860 943 868 q 940 851 943 851 q 825 715 825 851 l 824 -12 q 819 -17 824 -15 q 810 -19 815 -19 q 796 -14 800 -19 l 200 750 l 200 151 q 227 50 200 83 q 311 17 254 17 q 315 8 315 17 q 311 0 315 0 q 257 1 276 0 l 183 3 l 110 1 q 51 0 89 0 q 47 8 47 0 q 51 17 47 17 q 165 151 165 17 l 165 792 q 50 851 110 851 q 46 860 46 851 q 50 868 46 868 l 111 867 q 160 865 129 865 q 208 867 188 865 q 238 868 229 868 q 253 863 249 868 q 268 842 258 858 q 299 796 278 822 l 790 160 l 790 715 q 764 818 790 785 q 681 851 738 851 q 676 860 676 851 q 681 868 676 868 l 731 867 q 808 864 778 864 q 879 867 835 864 l 940 868 m 481 985 q 430 1003 449 985 q 411 1053 411 1021 q 430 1101 411 1083 q 481 1118 449 1118 q 529 1101 511 1118 q 547 1053 547 1083 q 530 1003 547 1021 q 481 985 513 985 z "},"Ṇ":{"ha":981,"x_min":46,"x_max":943,"o":"m 940 868 q 943 860 943 868 q 940 851 943 851 q 825 715 825 851 l 824 -12 q 819 -17 824 -15 q 810 -19 815 -19 q 796 -14 800 -19 l 200 750 l 200 151 q 227 50 200 83 q 311 17 254 17 q 315 8 315 17 q 311 0 315 0 q 257 1 276 0 l 183 3 l 110 1 q 51 0 89 0 q 47 8 47 0 q 51 17 47 17 q 165 151 165 17 l 165 792 q 50 851 110 851 q 46 860 46 851 q 50 868 46 868 l 111 867 q 160 865 129 865 q 208 867 188 865 q 238 868 229 868 q 253 863 249 868 q 268 842 258 858 q 299 796 278 822 l 790 160 l 790 715 q 764 818 790 785 q 681 851 738 851 q 676 860 676 851 q 681 868 676 868 l 731 867 q 808 864 778 864 q 879 867 835 864 l 940 868 m 524 -271 q 473 -253 492 -271 q 454 -203 454 -235 q 473 -156 454 -174 q 524 -139 492 -139 q 572 -156 554 -139 q 589 -203 589 -174 q 572 -253 589 -235 q 524 -271 554 -271 z "},"Ŋ":{"ha":981,"x_min":46,"x_max":943,"o":"m 940 868 q 943 860 943 868 q 940 851 943 851 q 825 715 825 851 l 824 -12 q 781 -201 822 -137 q 663 -265 740 -265 q 571 -237 608 -265 q 533 -172 533 -210 q 547 -135 533 -147 q 585 -122 561 -122 q 624 -136 611 -122 q 647 -176 636 -150 q 667 -213 657 -201 q 700 -225 678 -225 q 768 -172 744 -225 q 793 -10 792 -118 l 200 750 l 200 151 q 227 50 200 83 q 311 17 254 17 q 315 8 315 17 q 311 0 315 0 q 257 1 276 0 l 183 3 l 110 1 q 51 0 89 0 q 47 8 47 0 q 51 17 47 17 q 165 151 165 17 l 165 792 q 50 851 110 851 q 46 860 46 851 q 50 868 46 868 l 111 867 q 160 865 129 865 q 208 867 188 865 q 238 868 229 868 q 253 863 249 868 q 268 842 258 858 q 299 796 278 822 l 790 160 l 790 715 q 764 818 790 785 q 681 851 738 851 q 676 860 676 851 q 681 868 676 868 l 731 867 q 808 864 778 864 q 879 867 835 864 l 940 868 z "},"Ṉ":{"ha":981,"x_min":46,"x_max":943,"o":"m 940 868 q 943 860 943 868 q 940 851 943 851 q 825 715 825 851 l 824 -12 q 819 -17 824 -15 q 810 -19 815 -19 q 796 -14 800 -19 l 200 750 l 200 151 q 227 50 200 83 q 311 17 254 17 q 315 8 315 17 q 311 0 315 0 q 257 1 276 0 l 183 3 l 110 1 q 51 0 89 0 q 47 8 47 0 q 51 17 47 17 q 165 151 165 17 l 165 792 q 50 851 110 851 q 46 860 46 851 q 50 868 46 868 l 111 867 q 160 865 129 865 q 208 867 188 865 q 238 868 229 868 q 253 863 249 868 q 268 842 258 858 q 299 796 278 822 l 790 160 l 790 715 q 764 818 790 785 q 681 851 738 851 q 676 860 676 851 q 681 868 676 868 l 731 867 q 808 864 778 864 q 879 867 835 864 l 940 868 m 357 -165 q 349 -158 351 -165 q 346 -143 346 -151 q 349 -128 346 -135 q 357 -121 351 -121 l 682 -121 q 692 -143 692 -121 q 682 -165 692 -165 l 357 -165 z "},"Ñ":{"ha":981,"x_min":46,"x_max":943,"o":"m 940 868 q 943 860 943 868 q 940 851 943 851 q 825 715 825 851 l 824 -12 q 819 -17 824 -15 q 810 -19 815 -19 q 796 -14 800 -19 l 200 750 l 200 151 q 227 50 200 83 q 311 17 254 17 q 315 8 315 17 q 311 0 315 0 q 257 1 276 0 l 183 3 l 110 1 q 51 0 89 0 q 47 8 47 0 q 51 17 47 17 q 165 151 165 17 l 165 792 q 50 851 110 851 q 46 860 46 851 q 50 868 46 868 l 111 867 q 160 865 129 865 q 208 867 188 865 q 238 868 229 868 q 253 863 249 868 q 268 842 258 858 q 299 796 278 822 l 790 160 l 790 715 q 764 818 790 785 q 681 851 738 851 q 676 860 676 851 q 681 868 676 868 l 731 867 q 808 864 778 864 q 879 867 835 864 l 940 868 m 313 961 q 305 965 308 961 q 303 971 301 968 q 413 1065 351 1065 q 483 1050 435 1065 q 525 1040 490 1049 q 590 1031 560 1031 q 631 1040 617 1031 q 661 1068 646 1049 l 663 1068 q 669 1065 665 1068 q 672 1058 674 1061 q 622 984 643 1003 q 569 965 600 965 q 519 972 546 965 q 485 981 492 979 q 385 999 425 999 q 344 991 356 999 q 314 961 333 983 l 313 961 z "},"O":{"ha":1017,"x_min":60,"x_max":960,"o":"m 488 -17 q 264 41 361 -17 q 113 199 167 99 q 60 421 60 299 q 122 657 60 551 q 291 823 183 763 q 531 883 399 883 q 756 827 658 883 q 907 672 854 771 q 960 451 960 574 q 896 208 960 314 q 724 42 832 101 q 488 -17 615 -17 m 547 19 q 707 65 639 19 q 812 192 775 110 q 849 382 849 274 q 801 617 849 510 q 668 787 753 724 q 478 850 583 850 q 317 806 388 850 q 208 678 247 761 q 169 485 169 596 q 218 251 169 358 q 353 82 267 144 q 547 19 439 19 z "},"Ó":{"ha":1017,"x_min":60,"x_max":960,"o":"m 488 -17 q 264 41 361 -17 q 113 199 167 99 q 60 421 60 299 q 122 657 60 551 q 291 823 183 763 q 531 883 399 883 q 756 827 658 883 q 907 672 854 771 q 960 451 960 574 q 896 208 960 314 q 724 42 832 101 q 488 -17 615 -17 m 547 19 q 707 65 639 19 q 812 192 775 110 q 849 382 849 274 q 801 617 849 510 q 668 787 753 724 q 478 850 583 850 q 317 806 388 850 q 208 678 247 761 q 169 485 169 596 q 218 251 169 358 q 353 82 267 144 q 547 19 439 19 m 424 942 q 415 948 418 942 q 417 957 413 954 q 538 1044 467 988 q 565 1067 550 1054 q 601 1093 581 1079 q 641 1088 607 1097 q 701 1065 675 1078 q 715 1050 728 1053 q 426 943 567 1011 l 424 942 z "},"Ŏ":{"ha":1017,"x_min":60,"x_max":960,"o":"m 488 -17 q 264 41 361 -17 q 113 199 167 99 q 60 421 60 299 q 122 657 60 551 q 291 823 183 763 q 531 883 399 883 q 756 827 658 883 q 907 672 854 771 q 960 451 960 574 q 896 208 960 314 q 724 42 832 101 q 488 -17 615 -17 m 547 19 q 707 65 639 19 q 812 192 775 110 q 849 382 849 274 q 801 617 849 510 q 668 787 753 724 q 478 850 583 850 q 317 806 388 850 q 208 678 247 761 q 169 485 169 596 q 218 251 169 358 q 353 82 267 144 q 547 19 439 19 m 507 924 q 424 956 461 924 q 375 1049 388 989 q 397 1064 374 1057 q 440 1071 419 1071 q 457 1067 456 1071 q 490 1006 467 1028 q 540 985 513 985 q 588 1004 567 985 q 622 1061 610 1024 q 629 1065 622 1065 q 640 1063 635 1065 q 646 1057 646 1060 q 591 958 629 993 q 507 924 553 924 z "},"Ǒ":{"ha":1017,"x_min":60,"x_max":960,"o":"m 488 -17 q 264 41 361 -17 q 113 199 167 99 q 60 421 60 299 q 122 657 60 551 q 291 823 183 763 q 531 883 399 883 q 756 827 658 883 q 907 672 854 771 q 960 451 960 574 q 896 208 960 314 q 724 42 832 101 q 488 -17 615 -17 m 547 19 q 707 65 639 19 q 812 192 775 110 q 849 382 849 274 q 801 617 849 510 q 668 787 753 724 q 478 850 583 850 q 317 806 388 850 q 208 678 247 761 q 169 485 169 596 q 218 251 169 358 q 353 82 267 144 q 547 19 439 19 m 361 1082 l 361 1083 q 364 1090 361 1088 q 369 1092 367 1093 l 504 1019 l 636 1092 l 638 1092 q 645 1088 642 1092 q 646 1082 649 1083 l 518 938 q 506 932 514 932 q 492 938 497 932 l 361 1082 z "},"Ô":{"ha":1017,"x_min":60,"x_max":960,"o":"m 488 -17 q 264 41 361 -17 q 113 199 167 99 q 60 421 60 299 q 122 657 60 551 q 291 823 183 763 q 531 883 399 883 q 756 827 658 883 q 907 672 854 771 q 960 451 960 574 q 896 208 960 314 q 724 42 832 101 q 488 -17 615 -17 m 547 19 q 707 65 639 19 q 812 192 775 110 q 849 382 849 274 q 801 617 849 510 q 668 787 753 724 q 478 850 583 850 q 317 806 388 850 q 208 678 247 761 q 169 485 169 596 q 218 251 169 358 q 353 82 267 144 q 547 19 439 19 m 376 917 q 369 920 372 917 q 368 926 365 924 l 494 1069 q 507 1076 499 1076 q 521 1069 514 1076 l 653 926 q 652 919 656 924 q 646 917 649 914 l 508 988 l 378 917 l 376 917 z "},"Ố":{"ha":1017,"x_min":60,"x_max":960,"o":"m 488 -17 q 264 41 361 -17 q 113 199 167 99 q 60 421 60 299 q 122 657 60 551 q 291 823 183 763 q 531 883 399 883 q 756 827 658 883 q 907 672 854 771 q 960 451 960 574 q 896 208 960 314 q 724 42 832 101 q 488 -17 615 -17 m 547 19 q 707 65 639 19 q 812 192 775 110 q 849 382 849 274 q 801 617 849 510 q 668 787 753 724 q 478 850 583 850 q 317 806 388 850 q 208 678 247 761 q 169 485 169 596 q 218 251 169 358 q 353 82 267 144 q 547 19 439 19 m 376 917 q 369 920 372 917 q 368 926 365 924 l 494 1069 q 507 1076 499 1076 q 521 1069 514 1076 l 653 926 q 652 919 656 924 q 646 917 649 914 l 508 988 l 378 917 l 376 917 m 603 1008 q 595 1014 597 1008 q 596 1022 593 1019 q 693 1161 656 1094 q 729 1157 697 1167 q 786 1134 761 1147 q 800 1117 811 1121 q 701 1071 744 1096 q 606 1010 657 1046 l 603 1008 z "},"Ộ":{"ha":1017,"x_min":60,"x_max":960,"o":"m 488 -17 q 264 41 361 -17 q 113 199 167 99 q 60 421 60 299 q 122 657 60 551 q 291 823 183 763 q 531 883 399 883 q 756 827 658 883 q 907 672 854 771 q 960 451 960 574 q 896 208 960 314 q 724 42 832 101 q 488 -17 615 -17 m 547 19 q 707 65 639 19 q 812 192 775 110 q 849 382 849 274 q 801 617 849 510 q 668 787 753 724 q 478 850 583 850 q 317 806 388 850 q 208 678 247 761 q 169 485 169 596 q 218 251 169 358 q 353 82 267 144 q 547 19 439 19 m 531 -271 q 480 -253 499 -271 q 461 -203 461 -235 q 480 -156 461 -174 q 531 -139 499 -139 q 578 -156 561 -139 q 596 -203 596 -174 q 578 -253 596 -235 q 531 -271 561 -271 m 376 917 q 369 920 372 917 q 368 926 365 924 l 494 1069 q 507 1076 499 1076 q 521 1069 514 1076 l 653 926 q 652 919 656 924 q 646 917 649 914 l 508 988 l 378 917 l 376 917 z "},"Ồ":{"ha":1017,"x_min":60,"x_max":960,"o":"m 488 -17 q 264 41 361 -17 q 113 199 167 99 q 60 421 60 299 q 122 657 60 551 q 291 823 183 763 q 531 883 399 883 q 756 827 658 883 q 907 672 854 771 q 960 451 960 574 q 896 208 960 314 q 724 42 832 101 q 488 -17 615 -17 m 547 19 q 707 65 639 19 q 812 192 775 110 q 849 382 849 274 q 801 617 849 510 q 668 787 753 724 q 478 850 583 850 q 317 806 388 850 q 208 678 247 761 q 169 485 169 596 q 218 251 169 358 q 353 82 267 144 q 547 19 439 19 m 376 917 q 369 920 372 917 q 368 926 365 924 l 494 1069 q 507 1076 499 1076 q 521 1069 514 1076 l 653 926 q 652 919 656 924 q 646 917 649 914 l 508 988 l 378 917 l 376 917 m 721 983 q 531 1090 622 1053 q 543 1108 518 1094 q 600 1131 568 1121 q 636 1135 632 1140 q 732 997 675 1068 q 733 993 733 996 q 730 985 733 988 q 721 983 726 982 z "},"Ổ":{"ha":1017,"x_min":60,"x_max":960,"o":"m 488 -17 q 264 41 361 -17 q 113 199 167 99 q 60 421 60 299 q 122 657 60 551 q 291 823 183 763 q 531 883 399 883 q 756 827 658 883 q 907 672 854 771 q 960 451 960 574 q 896 208 960 314 q 724 42 832 101 q 488 -17 615 -17 m 547 19 q 707 65 639 19 q 812 192 775 110 q 849 382 849 274 q 801 617 849 510 q 668 787 753 724 q 478 850 583 850 q 317 806 388 850 q 208 678 247 761 q 169 485 169 596 q 218 251 169 358 q 353 82 267 144 q 547 19 439 19 m 376 907 q 369 910 372 907 q 368 917 365 914 l 494 1060 q 507 1067 499 1067 q 521 1060 514 1067 l 653 917 q 652 909 656 914 q 646 907 649 904 l 508 978 l 378 907 l 376 907 m 611 989 q 608 1007 608 1003 q 626 1058 608 1028 q 636 1079 628 1063 q 644 1113 644 1096 q 631 1144 644 1133 q 599 1156 617 1156 q 569 1149 581 1156 l 568 1149 q 558 1153 563 1149 q 558 1160 554 1158 q 643 1186 603 1186 q 694 1169 675 1186 q 713 1128 713 1151 q 701 1092 713 1107 q 667 1053 690 1076 q 635 1018 644 1032 q 628 989 625 1004 q 620 986 628 986 q 611 989 613 986 z "},"Ỗ":{"ha":1017,"x_min":60,"x_max":960,"o":"m 488 -17 q 264 41 361 -17 q 113 199 167 99 q 60 421 60 299 q 122 657 60 551 q 291 823 183 763 q 531 883 399 883 q 756 827 658 883 q 907 672 854 771 q 960 451 960 574 q 896 208 960 314 q 724 42 832 101 q 488 -17 615 -17 m 547 19 q 707 65 639 19 q 812 192 775 110 q 849 382 849 274 q 801 617 849 510 q 668 787 753 724 q 478 850 583 850 q 317 806 388 850 q 208 678 247 761 q 169 485 169 596 q 218 251 169 358 q 353 82 267 144 q 547 19 439 19 m 376 917 q 369 920 372 917 q 368 926 365 924 l 494 1069 q 507 1076 499 1076 q 521 1069 514 1076 l 653 926 q 652 919 656 924 q 646 917 649 914 l 508 988 l 378 917 l 376 917 m 346 1088 q 338 1091 342 1088 q 336 1097 335 1094 q 446 1190 386 1190 q 518 1176 463 1190 q 624 1157 585 1157 q 665 1166 650 1157 q 694 1194 679 1175 l 696 1194 q 703 1191 700 1194 q 706 1185 707 1188 q 655 1110 676 1129 q 603 1090 633 1090 q 563 1095 585 1090 q 518 1107 540 1100 q 467 1119 494 1114 q 418 1125 440 1125 q 381 1118 393 1125 q 360 1101 368 1111 q 347 1088 351 1092 l 346 1088 z "},"Ö":{"ha":1017,"x_min":60,"x_max":960,"o":"m 488 -17 q 264 41 361 -17 q 113 199 167 99 q 60 421 60 299 q 122 657 60 551 q 291 823 183 763 q 531 883 399 883 q 756 827 658 883 q 907 672 854 771 q 960 451 960 574 q 896 208 960 314 q 724 42 832 101 q 488 -17 615 -17 m 547 19 q 707 65 639 19 q 812 192 775 110 q 849 382 849 274 q 801 617 849 510 q 668 787 753 724 q 478 850 583 850 q 317 806 388 850 q 208 678 247 761 q 169 485 169 596 q 218 251 169 358 q 353 82 267 144 q 547 19 439 19 m 397 989 q 349 1006 367 989 q 332 1053 332 1022 q 349 1098 332 1082 q 397 1114 367 1114 q 443 1098 426 1114 q 460 1053 460 1082 q 443 1006 460 1022 q 397 989 426 989 m 619 989 q 572 1006 589 989 q 556 1053 556 1022 q 572 1098 556 1082 q 619 1114 589 1114 q 665 1098 649 1114 q 681 1053 681 1082 q 665 1006 681 1022 q 619 989 649 989 z "},"Ọ":{"ha":1017,"x_min":60,"x_max":960,"o":"m 488 -17 q 264 41 361 -17 q 113 199 167 99 q 60 421 60 299 q 122 657 60 551 q 291 823 183 763 q 531 883 399 883 q 756 827 658 883 q 907 672 854 771 q 960 451 960 574 q 896 208 960 314 q 724 42 832 101 q 488 -17 615 -17 m 547 19 q 707 65 639 19 q 812 192 775 110 q 849 382 849 274 q 801 617 849 510 q 668 787 753 724 q 478 850 583 850 q 317 806 388 850 q 208 678 247 761 q 169 485 169 596 q 218 251 169 358 q 353 82 267 144 q 547 19 439 19 m 531 -271 q 480 -253 499 -271 q 461 -203 461 -235 q 480 -156 461 -174 q 531 -139 499 -139 q 578 -156 561 -139 q 596 -203 596 -174 q 578 -253 596 -235 q 531 -271 561 -271 z "},"Ò":{"ha":1017,"x_min":60,"x_max":960,"o":"m 488 -17 q 264 41 361 -17 q 113 199 167 99 q 60 421 60 299 q 122 657 60 551 q 291 823 183 763 q 531 883 399 883 q 756 827 658 883 q 907 672 854 771 q 960 451 960 574 q 896 208 960 314 q 724 42 832 101 q 488 -17 615 -17 m 547 19 q 707 65 639 19 q 812 192 775 110 q 849 382 849 274 q 801 617 849 510 q 668 787 753 724 q 478 850 583 850 q 317 806 388 850 q 208 678 247 761 q 169 485 169 596 q 218 251 169 358 q 353 82 267 144 q 547 19 439 19 m 646 951 q 503 1007 564 985 q 365 1050 443 1029 q 376 1065 351 1053 q 436 1088 401 1078 q 478 1093 471 1097 q 651 964 526 1054 q 656 958 656 963 q 652 953 656 956 q 646 951 649 950 z "},"Ỏ":{"ha":1017,"x_min":60,"x_max":960,"o":"m 488 -17 q 264 41 361 -17 q 113 199 167 99 q 60 421 60 299 q 122 657 60 551 q 291 823 183 763 q 531 883 399 883 q 756 827 658 883 q 907 672 854 771 q 960 451 960 574 q 896 208 960 314 q 724 42 832 101 q 488 -17 615 -17 m 547 19 q 707 65 639 19 q 812 192 775 110 q 849 382 849 274 q 801 617 849 510 q 668 787 753 724 q 478 850 583 850 q 317 806 388 850 q 208 678 247 761 q 169 485 169 596 q 218 251 169 358 q 353 82 267 144 q 547 19 439 19 m 514 904 q 508 901 515 901 q 499 904 500 900 q 492 943 492 922 q 511 1014 492 972 q 529 1076 529 1053 q 514 1124 529 1107 q 474 1140 499 1140 q 432 1129 451 1140 l 429 1129 q 422 1133 425 1129 q 422 1142 418 1138 q 518 1172 463 1172 q 588 1151 563 1172 q 614 1094 614 1129 q 601 1050 614 1071 q 561 1000 588 1029 q 525 956 538 975 q 513 918 513 938 q 514 904 513 908 z "},"Ơ":{"ha":1017,"x_min":60,"x_max":999,"o":"m 999 915 q 849 754 999 821 q 931 617 903 696 q 960 449 960 539 q 895 206 960 311 q 722 42 831 100 q 488 -17 614 -17 q 264 41 361 -17 q 113 199 167 99 q 60 421 60 299 q 122 657 60 551 q 291 823 183 763 q 531 883 399 883 q 699 853 622 883 q 833 769 776 824 q 907 850 907 807 q 894 879 907 864 q 882 899 886 890 q 878 922 878 907 q 897 965 878 950 q 940 981 915 981 q 983 961 968 981 q 999 915 999 942 m 849 382 q 801 617 849 510 q 668 787 753 724 q 478 850 583 850 q 317 806 388 850 q 208 678 247 761 q 169 485 169 596 q 218 251 169 358 q 353 82 267 144 q 547 19 439 19 q 707 65 639 19 q 812 192 775 110 q 849 382 849 274 z "},"Ớ":{"ha":1017,"x_min":60,"x_max":999,"o":"m 999 915 q 849 754 999 821 q 931 617 903 696 q 960 449 960 539 q 895 206 960 311 q 722 42 831 100 q 488 -17 614 -17 q 264 41 361 -17 q 113 199 167 99 q 60 421 60 299 q 122 657 60 551 q 291 823 183 763 q 531 883 399 883 q 699 853 622 883 q 833 769 776 824 q 907 850 907 807 q 894 879 907 864 q 882 899 886 890 q 878 922 878 907 q 897 965 878 950 q 940 981 915 981 q 983 961 968 981 q 999 915 999 942 m 849 382 q 801 617 849 510 q 668 787 753 724 q 478 850 583 850 q 317 806 388 850 q 208 678 247 761 q 169 485 169 596 q 218 251 169 358 q 353 82 267 144 q 547 19 439 19 q 707 65 639 19 q 812 192 775 110 q 849 382 849 274 m 371 942 q 362 948 365 942 q 363 957 358 954 q 429 1003 394 976 q 478 1039 464 1029 q 547 1092 513 1068 q 586 1086 553 1096 q 647 1064 619 1076 q 661 1050 674 1051 q 372 942 501 1007 l 371 942 z "},"Ợ":{"ha":1017,"x_min":60,"x_max":999,"o":"m 999 915 q 849 754 999 821 q 931 617 903 696 q 960 449 960 539 q 895 206 960 311 q 722 42 831 100 q 488 -17 614 -17 q 264 41 361 -17 q 113 199 167 99 q 60 421 60 299 q 122 657 60 551 q 291 823 183 763 q 531 883 399 883 q 699 853 622 883 q 833 769 776 824 q 907 850 907 807 q 894 879 907 864 q 882 899 886 890 q 878 922 878 907 q 897 965 878 950 q 940 981 915 981 q 983 961 968 981 q 999 915 999 942 m 849 382 q 801 617 849 510 q 668 787 753 724 q 478 850 583 850 q 317 806 388 850 q 208 678 247 761 q 169 485 169 596 q 218 251 169 358 q 353 82 267 144 q 547 19 439 19 q 707 65 639 19 q 812 192 775 110 q 849 382 849 274 m 531 -271 q 480 -253 499 -271 q 461 -203 461 -235 q 480 -156 461 -174 q 531 -139 499 -139 q 578 -156 561 -139 q 596 -203 596 -174 q 578 -253 596 -235 q 531 -271 561 -271 z "},"Ờ":{"ha":1017,"x_min":60,"x_max":999,"o":"m 999 915 q 849 754 999 821 q 931 617 903 696 q 960 449 960 539 q 895 206 960 311 q 722 42 831 100 q 488 -17 614 -17 q 264 41 361 -17 q 113 199 167 99 q 60 421 60 299 q 122 657 60 551 q 291 823 183 763 q 531 883 399 883 q 699 853 622 883 q 833 769 776 824 q 907 850 907 807 q 894 879 907 864 q 882 899 886 890 q 878 922 878 907 q 897 965 878 950 q 940 981 915 981 q 983 961 968 981 q 999 915 999 942 m 849 382 q 801 617 849 510 q 668 787 753 724 q 478 850 583 850 q 317 806 388 850 q 208 678 247 761 q 169 485 169 596 q 218 251 169 358 q 353 82 267 144 q 547 19 439 19 q 707 65 639 19 q 812 192 775 110 q 849 382 849 274 m 647 943 q 485 1003 561 978 q 318 1050 408 1029 q 328 1065 306 1053 q 381 1088 350 1078 q 418 1093 411 1097 q 481 1054 460 1068 q 650 957 593 986 q 654 948 656 956 q 647 943 653 940 z "},"Ở":{"ha":1017,"x_min":60,"x_max":999,"o":"m 999 915 q 849 754 999 821 q 931 617 903 696 q 960 449 960 539 q 895 206 960 311 q 722 42 831 100 q 488 -17 614 -17 q 264 41 361 -17 q 113 199 167 99 q 60 421 60 299 q 122 657 60 551 q 291 823 183 763 q 531 883 399 883 q 699 853 622 883 q 833 769 776 824 q 907 850 907 807 q 894 879 907 864 q 882 899 886 890 q 878 922 878 907 q 897 965 878 950 q 940 981 915 981 q 983 961 968 981 q 999 915 999 942 m 849 382 q 801 617 849 510 q 668 787 753 724 q 478 850 583 850 q 317 806 388 850 q 208 678 247 761 q 169 485 169 596 q 218 251 169 358 q 353 82 267 144 q 547 19 439 19 q 707 65 639 19 q 812 192 775 110 q 849 382 849 274 m 510 904 q 503 901 511 901 q 494 904 496 900 q 488 943 488 922 q 507 1014 488 972 q 525 1076 525 1053 q 510 1124 525 1107 q 469 1140 494 1140 q 428 1129 447 1140 l 425 1129 q 417 1133 421 1129 q 418 1142 414 1138 q 514 1172 458 1172 q 584 1151 558 1172 q 610 1094 610 1129 q 597 1050 610 1071 q 557 1000 583 1029 q 521 956 533 975 q 508 918 508 938 q 510 904 508 908 z "},"Ỡ":{"ha":1017,"x_min":60,"x_max":999,"o":"m 999 915 q 849 754 999 821 q 931 617 903 696 q 960 449 960 539 q 895 206 960 311 q 722 42 831 100 q 488 -17 614 -17 q 264 41 361 -17 q 113 199 167 99 q 60 421 60 299 q 122 657 60 551 q 291 823 183 763 q 531 883 399 883 q 699 853 622 883 q 833 769 776 824 q 907 850 907 807 q 894 879 907 864 q 882 899 886 890 q 878 922 878 907 q 897 965 878 950 q 940 981 915 981 q 983 961 968 981 q 999 915 999 942 m 849 382 q 801 617 849 510 q 668 787 753 724 q 478 850 583 850 q 317 806 388 850 q 208 678 247 761 q 169 485 169 596 q 218 251 169 358 q 353 82 267 144 q 547 19 439 19 q 707 65 639 19 q 812 192 775 110 q 849 382 849 274 m 328 994 q 320 998 324 994 q 318 1004 317 1001 q 428 1097 368 1097 q 500 1083 444 1097 q 606 1064 567 1064 q 647 1073 632 1064 q 676 1101 661 1082 l 678 1101 q 685 1098 682 1101 q 688 1092 689 1094 q 637 1017 658 1036 q 585 997 615 997 q 544 1002 567 997 q 500 1014 522 1007 q 449 1026 476 1021 q 400 1032 422 1032 q 363 1025 375 1032 q 342 1008 350 1018 q 329 994 333 999 l 328 994 z "},"Ő":{"ha":1017,"x_min":60,"x_max":960,"o":"m 488 -17 q 264 41 361 -17 q 113 199 167 99 q 60 421 60 299 q 122 657 60 551 q 291 823 183 763 q 531 883 399 883 q 756 827 658 883 q 907 672 854 771 q 960 451 960 574 q 896 208 960 314 q 724 42 832 101 q 488 -17 615 -17 m 547 19 q 707 65 639 19 q 812 192 775 110 q 849 382 849 274 q 801 617 849 510 q 668 787 753 724 q 478 850 583 850 q 317 806 388 850 q 208 678 247 761 q 169 485 169 596 q 218 251 169 358 q 353 82 267 144 q 547 19 439 19 m 378 929 q 372 935 374 929 q 374 944 371 942 l 397 969 q 524 1106 467 1040 q 560 1104 529 1111 q 613 1086 590 1097 q 622 1069 635 1075 q 490 1001 547 1033 q 381 931 433 969 l 378 929 m 556 929 q 549 935 550 929 q 551 944 547 942 q 701 1106 636 1032 q 737 1104 707 1111 q 789 1086 767 1097 q 800 1069 811 1075 q 558 931 679 1015 l 556 929 z "},"Ō":{"ha":1017,"x_min":60,"x_max":960,"o":"m 488 -17 q 264 41 361 -17 q 113 199 167 99 q 60 421 60 299 q 122 657 60 551 q 291 823 183 763 q 531 883 399 883 q 756 827 658 883 q 907 672 854 771 q 960 451 960 574 q 896 208 960 314 q 724 42 832 101 q 488 -17 615 -17 m 547 19 q 707 65 639 19 q 812 192 775 110 q 849 382 849 274 q 801 617 849 510 q 668 787 753 724 q 478 850 583 850 q 317 806 388 850 q 208 678 247 761 q 169 485 169 596 q 218 251 169 358 q 353 82 267 144 q 547 19 439 19 m 349 994 q 339 1017 339 994 q 349 1039 339 1039 l 674 1039 q 682 1032 679 1039 q 685 1017 685 1025 q 682 1001 685 1008 q 674 994 679 994 l 349 994 z "},"Ǫ":{"ha":1017,"x_min":60,"x_max":960,"o":"m 531 883 q 756 827 658 883 q 907 672 854 771 q 960 451 960 574 q 917 248 960 340 q 799 93 874 156 q 628 3 724 31 q 559 -102 583 -53 q 536 -201 535 -151 q 562 -298 536 -261 q 636 -335 588 -335 q 706 -301 675 -335 l 708 -300 q 717 -306 713 -300 q 718 -314 721 -311 q 656 -366 686 -350 q 589 -382 625 -382 q 491 -343 528 -382 q 454 -243 454 -304 q 492 -130 456 -187 q 594 -6 528 -72 q 488 -17 539 -17 q 264 41 361 -17 q 113 199 167 99 q 60 421 60 299 q 122 657 60 551 q 291 823 183 763 q 531 883 399 883 m 849 382 q 801 617 849 510 q 668 787 753 724 q 478 850 583 850 q 317 806 388 850 q 208 678 247 761 q 169 485 169 596 q 218 251 169 358 q 353 82 267 144 q 547 19 439 19 q 707 65 639 19 q 812 192 775 110 q 849 382 849 274 z "},"Ø":{"ha":1017,"x_min":60,"x_max":960,"o":"m 806 794 q 919 647 879 736 q 960 454 960 558 q 896 208 960 315 q 724 42 832 101 q 488 -17 615 -17 q 217 74 329 -17 l 146 -14 l 143 -15 q 127 -5 138 -15 q 119 10 117 6 l 190 96 q 94 241 128 157 q 60 421 60 325 q 122 657 60 551 q 291 823 183 763 q 531 883 399 883 q 778 814 671 883 l 829 878 l 832 879 q 850 870 839 879 q 857 857 861 861 l 806 794 m 169 485 q 193 322 169 400 q 258 181 217 243 l 719 743 q 609 822 671 794 q 478 850 547 850 q 317 806 388 850 q 208 678 247 761 q 169 485 169 596 m 849 385 q 821 567 849 481 q 742 717 793 653 l 281 151 q 400 54 332 89 q 547 19 468 19 q 707 65 639 19 q 812 194 775 111 q 849 385 849 276 z "},"Ǿ":{"ha":1017,"x_min":60,"x_max":960,"o":"m 806 794 q 919 647 879 736 q 960 454 960 558 q 896 208 960 315 q 724 42 832 101 q 488 -17 615 -17 q 217 74 329 -17 l 146 -14 l 143 -15 q 127 -5 138 -15 q 119 10 117 6 l 190 96 q 94 241 128 157 q 60 421 60 325 q 122 657 60 551 q 291 823 183 763 q 531 883 399 883 q 778 814 671 883 l 829 878 l 832 879 q 850 870 839 879 q 857 857 861 861 l 806 794 m 169 485 q 193 322 169 400 q 258 181 217 243 l 719 743 q 609 822 671 794 q 478 850 547 850 q 317 806 388 850 q 208 678 247 761 q 169 485 169 596 m 849 385 q 821 567 849 481 q 742 717 793 653 l 281 151 q 400 54 332 89 q 547 19 468 19 q 707 65 639 19 q 812 194 775 111 q 849 385 849 276 m 414 942 q 406 948 408 942 q 407 957 403 954 q 528 1044 457 988 q 556 1067 540 1054 q 592 1093 571 1079 q 631 1088 597 1097 q 692 1065 665 1078 q 706 1050 718 1053 q 417 943 557 1011 l 414 942 z "},"Õ":{"ha":1017,"x_min":60,"x_max":960,"o":"m 488 -17 q 264 41 361 -17 q 113 199 167 99 q 60 421 60 299 q 122 657 60 551 q 291 823 183 763 q 531 883 399 883 q 756 827 658 883 q 907 672 854 771 q 960 451 960 574 q 896 208 960 314 q 724 42 832 101 q 488 -17 615 -17 m 547 19 q 707 65 639 19 q 812 192 775 110 q 849 382 849 274 q 801 617 849 510 q 668 787 753 724 q 478 850 583 850 q 317 806 388 850 q 208 678 247 761 q 169 485 169 596 q 218 251 169 358 q 353 82 267 144 q 547 19 439 19 m 342 961 q 334 965 338 961 q 332 971 331 968 q 442 1065 381 1065 q 513 1050 464 1065 q 554 1040 519 1049 q 619 1031 589 1031 q 660 1040 646 1031 q 690 1068 675 1049 l 692 1068 q 699 1065 694 1068 q 701 1058 703 1061 q 651 984 672 1003 q 599 965 629 965 q 548 972 575 965 q 514 981 521 979 q 414 999 454 999 q 374 991 385 999 q 343 961 363 983 l 342 961 z "},"Œ":{"ha":1232,"x_min":56,"x_max":1183,"o":"m 1164 211 q 1171 215 1164 215 q 1179 213 1175 215 q 1182 208 1183 211 q 1169 21 1169 133 q 1165 5 1169 10 q 1149 0 1161 0 l 746 0 q 643 -3 710 0 q 560 -6 579 -6 q 298 51 413 -6 q 119 205 183 107 q 56 424 56 303 q 122 658 56 557 q 299 815 189 760 q 540 871 410 871 q 628 869 596 871 l 738 868 l 1124 868 q 1133 865 1131 868 q 1135 856 1135 863 l 1139 679 q 1130 674 1139 674 q 1121 678 1121 674 q 1070 799 1110 754 q 964 844 1031 844 l 897 844 q 828 838 850 844 q 800 813 807 831 q 792 754 793 794 l 792 468 l 954 468 q 1045 491 1018 468 q 1072 568 1072 514 q 1081 574 1072 574 q 1090 568 1090 574 l 1089 451 q 1090 389 1089 410 l 1092 318 q 1083 313 1092 313 q 1075 318 1075 313 q 1044 408 1075 379 q 949 436 1013 436 l 792 436 l 792 118 q 801 58 793 78 q 830 32 808 39 q 897 25 851 25 l 989 25 q 1164 211 1113 25 m 544 17 q 628 23 600 17 q 670 50 657 29 q 683 114 683 71 l 681 738 q 669 803 679 779 q 632 837 658 826 q 554 847 606 847 q 360 802 444 847 q 230 668 276 757 q 183 454 183 579 q 228 231 183 331 q 356 74 274 131 q 544 17 439 17 z "},"P":{"ha":767,"x_min":56,"x_max":713,"o":"m 61 0 q 56 8 57 0 q 61 17 56 17 q 130 24 108 17 q 160 51 151 31 q 168 113 168 71 l 168 756 q 158 817 167 797 q 128 844 150 836 q 61 851 107 851 q 56 860 57 851 q 61 868 56 868 l 125 867 q 217 864 181 864 q 272 865 249 864 q 310 868 294 867 q 403 872 358 872 q 625 814 538 872 q 713 643 713 756 q 663 488 713 551 q 538 394 613 425 q 388 364 463 364 q 322 371 346 364 q 319 379 319 371 q 322 389 319 383 q 326 393 324 394 q 371 388 344 388 q 527 446 463 388 q 592 615 592 504 q 561 740 592 686 q 481 821 531 793 q 376 849 432 849 q 312 842 332 849 q 284 817 292 836 q 275 753 276 797 l 276 113 q 284 51 276 71 q 313 24 292 31 q 381 17 335 17 q 385 8 385 17 q 381 0 385 0 q 315 1 339 0 l 219 3 l 126 1 q 61 0 103 0 z "},"Þ":{"ha":807,"x_min":57,"x_max":761,"o":"m 382 206 q 505 228 446 206 q 601 299 564 250 q 639 425 639 349 q 606 552 639 494 q 513 643 572 610 q 378 676 453 676 q 276 667 325 676 l 278 113 q 287 49 278 68 q 324 24 296 31 q 418 17 351 17 q 422 8 422 17 q 418 0 422 0 q 339 1 368 0 l 222 3 l 128 1 q 63 0 104 0 q 58 8 58 0 q 63 17 57 17 q 131 24 110 17 q 161 51 153 31 q 169 113 169 71 l 169 756 q 160 817 168 797 q 132 844 153 836 q 65 851 111 851 q 62 860 63 851 q 65 868 61 868 l 129 867 q 219 864 185 864 q 344 867 269 864 l 421 868 q 425 860 425 868 q 421 851 425 851 q 324 845 353 851 q 287 819 296 839 q 276 753 278 800 l 276 689 q 417 700 338 700 q 664 634 567 700 q 761 450 761 568 q 705 299 761 360 q 565 210 649 239 q 397 182 481 182 q 332 189 367 182 q 329 197 329 189 q 331 206 329 201 q 335 210 333 211 q 382 206 360 206 z "},"Q":{"ha":1017,"x_min":60,"x_max":1115,"o":"m 1104 -244 q 1111 -251 1107 -243 q 1111 -260 1115 -258 q 1003 -278 1050 -278 q 810 -205 914 -278 q 615 0 706 -132 q 488 -17 556 -17 q 264 41 361 -17 q 113 199 167 99 q 60 421 60 299 q 122 657 60 551 q 291 823 183 763 q 531 883 399 883 q 756 827 658 883 q 907 672 854 771 q 960 451 960 574 q 893 203 960 311 q 714 38 826 94 q 825 -110 761 -44 q 951 -213 889 -176 q 1057 -250 1013 -250 q 1104 -244 1086 -250 m 169 485 q 218 251 169 358 q 353 82 267 144 q 547 19 439 19 q 707 65 639 19 q 812 192 775 110 q 849 382 849 274 q 801 617 849 510 q 668 787 753 724 q 478 850 583 850 q 317 806 388 850 q 208 678 247 761 q 169 485 169 596 z "},"R":{"ha":932,"x_min":60,"x_max":957,"o":"m 951 17 q 956 8 956 17 q 951 0 957 0 l 768 0 q 641 117 733 0 q 422 451 549 235 q 332 440 378 440 q 293 443 315 440 l 292 113 q 301 51 293 71 q 331 24 308 32 q 400 17 353 17 q 406 8 406 17 q 401 0 407 0 q 333 1 358 0 l 235 3 l 136 1 q 67 0 111 0 q 60 8 61 0 q 65 17 60 17 q 140 24 115 17 q 174 52 165 32 q 185 113 183 72 l 185 756 q 175 817 183 797 q 144 844 167 836 q 71 851 121 851 q 65 860 65 851 q 71 868 65 868 l 140 867 q 236 864 201 864 q 287 865 258 864 q 331 868 315 867 q 397 872 368 872 q 583 826 519 872 q 647 699 647 781 q 609 578 647 635 q 506 485 571 521 q 697 206 619 307 q 835 61 775 106 q 951 17 896 17 m 292 479 q 356 474 333 474 q 492 515 451 474 q 533 651 533 557 q 490 801 533 754 q 376 849 447 849 q 322 844 338 849 q 300 819 307 839 q 292 753 293 800 l 292 479 z "},"Ŕ":{"ha":932,"x_min":60,"x_max":956,"o":"m 951 17 q 956 8 956 17 q 951 0 957 0 l 768 0 q 641 117 733 0 q 422 451 549 235 q 332 440 378 440 q 293 443 315 440 l 292 113 q 301 51 293 71 q 331 24 308 32 q 400 17 353 17 q 406 8 406 17 q 401 0 407 0 q 333 1 358 0 l 235 3 l 136 1 q 67 0 111 0 q 60 8 61 0 q 65 17 60 17 q 140 24 115 17 q 174 52 165 32 q 185 113 183 72 l 185 756 q 175 817 183 797 q 144 844 167 836 q 71 851 121 851 q 65 860 65 851 q 71 868 65 868 l 140 867 q 236 864 201 864 q 287 865 258 864 q 331 868 315 867 q 397 872 368 872 q 583 826 519 872 q 647 699 647 781 q 609 578 647 635 q 506 485 571 521 q 697 206 619 307 q 835 61 775 106 q 951 17 896 17 m 292 479 q 356 474 333 474 q 492 515 451 474 q 533 651 533 557 q 490 801 533 754 q 376 849 447 849 q 322 844 338 849 q 300 819 307 839 q 292 753 293 800 l 292 479 m 290 942 q 282 948 285 942 q 283 957 279 954 q 404 1044 333 988 q 432 1067 417 1054 q 468 1093 447 1079 q 508 1088 474 1097 q 568 1065 542 1078 q 582 1050 594 1053 q 293 943 433 1011 l 290 942 z "},"Ř":{"ha":932,"x_min":60,"x_max":956,"o":"m 951 17 q 956 8 956 17 q 951 0 957 0 l 768 0 q 641 117 733 0 q 422 451 549 235 q 332 440 378 440 q 293 443 315 440 l 292 113 q 301 51 293 71 q 331 24 308 32 q 400 17 353 17 q 406 8 406 17 q 401 0 407 0 q 333 1 358 0 l 235 3 l 136 1 q 67 0 111 0 q 60 8 61 0 q 65 17 60 17 q 140 24 115 17 q 174 52 165 32 q 185 113 183 72 l 185 756 q 175 817 183 797 q 144 844 167 836 q 71 851 121 851 q 65 860 65 851 q 71 868 65 868 l 140 867 q 236 864 201 864 q 287 865 258 864 q 331 868 315 867 q 397 872 368 872 q 583 826 519 872 q 647 699 647 781 q 609 578 647 635 q 506 485 571 521 q 697 206 619 307 q 835 61 775 106 q 951 17 896 17 m 292 479 q 356 474 333 474 q 492 515 451 474 q 533 651 533 557 q 490 801 533 754 q 376 849 447 849 q 322 844 338 849 q 300 819 307 839 q 292 753 293 800 l 292 479 m 228 1082 l 228 1083 q 231 1090 228 1088 q 236 1092 233 1093 l 371 1019 l 503 1092 l 504 1092 q 512 1088 508 1092 q 513 1082 515 1083 l 385 938 q 372 932 381 932 q 358 938 364 932 l 228 1082 z "},"Ŗ":{"ha":932,"x_min":60,"x_max":956,"o":"m 951 17 q 956 8 956 17 q 951 0 957 0 l 768 0 q 641 117 733 0 q 422 451 549 235 q 332 440 378 440 q 293 443 315 440 l 292 113 q 301 51 293 71 q 331 24 308 32 q 400 17 353 17 q 406 8 406 17 q 401 0 407 0 q 333 1 358 0 l 235 3 l 136 1 q 67 0 111 0 q 60 8 61 0 q 65 17 60 17 q 140 24 115 17 q 174 52 165 32 q 185 113 183 72 l 185 756 q 175 817 183 797 q 144 844 167 836 q 71 851 121 851 q 65 860 65 851 q 71 868 65 868 l 140 867 q 236 864 201 864 q 287 865 258 864 q 331 868 315 867 q 397 872 368 872 q 583 826 519 872 q 647 699 647 781 q 609 578 647 635 q 506 485 571 521 q 697 206 619 307 q 835 61 775 106 q 951 17 896 17 m 292 479 q 356 474 333 474 q 492 515 451 474 q 533 651 533 557 q 490 801 533 754 q 376 849 447 849 q 322 844 338 849 q 300 819 307 839 q 292 753 293 800 l 292 479 m 497 -111 q 560 -138 539 -111 q 582 -215 582 -165 q 558 -304 582 -264 q 490 -382 535 -344 l 488 -383 q 479 -378 482 -383 q 479 -371 476 -374 q 543 -256 543 -317 q 533 -214 543 -229 q 486 -236 521 -236 q 444 -219 460 -236 q 428 -174 428 -201 q 447 -126 428 -142 q 497 -111 467 -111 z "},"Ṛ":{"ha":932,"x_min":60,"x_max":956,"o":"m 951 17 q 956 8 956 17 q 951 0 957 0 l 768 0 q 641 117 733 0 q 422 451 549 235 q 332 440 378 440 q 293 443 315 440 l 292 113 q 301 51 293 71 q 331 24 308 32 q 400 17 353 17 q 406 8 406 17 q 401 0 407 0 q 333 1 358 0 l 235 3 l 136 1 q 67 0 111 0 q 60 8 61 0 q 65 17 60 17 q 140 24 115 17 q 174 52 165 32 q 185 113 183 72 l 185 756 q 175 817 183 797 q 144 844 167 836 q 71 851 121 851 q 65 860 65 851 q 71 868 65 868 l 140 867 q 236 864 201 864 q 287 865 258 864 q 331 868 315 867 q 397 872 368 872 q 583 826 519 872 q 647 699 647 781 q 609 578 647 635 q 506 485 571 521 q 697 206 619 307 q 835 61 775 106 q 951 17 896 17 m 292 479 q 356 474 333 474 q 492 515 451 474 q 533 651 533 557 q 490 801 533 754 q 376 849 447 849 q 322 844 338 849 q 300 819 307 839 q 292 753 293 800 l 292 479 m 501 -271 q 451 -253 469 -271 q 432 -203 432 -235 q 451 -156 432 -174 q 501 -139 469 -139 q 549 -156 532 -139 q 567 -203 567 -174 q 549 -253 567 -235 q 501 -271 532 -271 z "},"Ṝ":{"ha":932,"x_min":60,"x_max":956,"o":"m 951 17 q 956 8 956 17 q 951 0 957 0 l 768 0 q 641 117 733 0 q 422 451 549 235 q 332 440 378 440 q 293 443 315 440 l 292 113 q 301 51 293 71 q 331 24 308 32 q 400 17 353 17 q 406 8 406 17 q 401 0 407 0 q 333 1 358 0 l 235 3 l 136 1 q 67 0 111 0 q 60 8 61 0 q 65 17 60 17 q 140 24 115 17 q 174 52 165 32 q 185 113 183 72 l 185 756 q 175 817 183 797 q 144 844 167 836 q 71 851 121 851 q 65 860 65 851 q 71 868 65 868 l 140 867 q 236 864 201 864 q 287 865 258 864 q 331 868 315 867 q 397 872 368 872 q 583 826 519 872 q 647 699 647 781 q 609 578 647 635 q 506 485 571 521 q 697 206 619 307 q 835 61 775 106 q 951 17 896 17 m 292 479 q 356 474 333 474 q 492 515 451 474 q 533 651 533 557 q 490 801 533 754 q 376 849 447 849 q 322 844 338 849 q 300 819 307 839 q 292 753 293 800 l 292 479 m 501 -271 q 451 -253 469 -271 q 432 -203 432 -235 q 451 -156 432 -174 q 501 -139 469 -139 q 549 -156 532 -139 q 567 -203 567 -174 q 549 -253 567 -235 q 501 -271 532 -271 m 213 994 q 204 1001 207 994 q 201 1017 201 1008 q 204 1032 201 1025 q 213 1039 207 1039 l 538 1039 q 547 1017 547 1039 q 538 994 547 994 l 213 994 z "},"Ṟ":{"ha":932,"x_min":60,"x_max":956,"o":"m 951 17 q 956 8 956 17 q 951 0 957 0 l 768 0 q 641 117 733 0 q 422 451 549 235 q 332 440 378 440 q 293 443 315 440 l 292 113 q 301 51 293 71 q 331 24 308 32 q 400 17 353 17 q 406 8 406 17 q 401 0 407 0 q 333 1 358 0 l 235 3 l 136 1 q 67 0 111 0 q 60 8 61 0 q 65 17 60 17 q 140 24 115 17 q 174 52 165 32 q 185 113 183 72 l 185 756 q 175 817 183 797 q 144 844 167 836 q 71 851 121 851 q 65 860 65 851 q 71 868 65 868 l 140 867 q 236 864 201 864 q 287 865 258 864 q 331 868 315 867 q 397 872 368 872 q 583 826 519 872 q 647 699 647 781 q 609 578 647 635 q 506 485 571 521 q 697 206 619 307 q 835 61 775 106 q 951 17 896 17 m 292 479 q 356 474 333 474 q 492 515 451 474 q 533 651 533 557 q 490 801 533 754 q 376 849 447 849 q 322 844 338 849 q 300 819 307 839 q 292 753 293 800 l 292 479 m 335 -165 q 326 -158 329 -165 q 324 -143 324 -151 q 326 -128 324 -135 q 335 -121 329 -121 l 660 -121 q 669 -143 669 -121 q 660 -165 669 -165 l 335 -165 z "},"S":{"ha":693,"x_min":96,"x_max":621,"o":"m 211 717 q 238 624 211 664 q 303 554 264 583 q 408 486 342 525 q 521 412 479 443 q 592 335 563 381 q 621 228 621 289 q 543 51 621 118 q 332 -17 465 -17 q 220 -3 276 -17 q 125 35 164 11 q 116 44 118 39 q 111 61 114 49 l 97 260 q 104 267 96 265 q 114 263 113 268 q 207 85 144 160 q 365 10 269 10 q 474 45 431 10 q 517 161 517 81 q 488 272 517 225 q 420 349 460 318 q 311 422 381 379 q 206 493 244 464 q 142 565 168 522 q 115 664 115 607 q 153 785 115 735 q 253 859 192 835 q 385 883 315 883 q 473 875 428 883 q 554 851 518 867 q 576 826 576 842 l 582 653 q 574 646 582 647 q 565 650 567 644 q 533 740 557 692 q 465 824 510 788 q 357 860 421 860 q 249 818 286 860 q 211 717 211 776 z "},"Ś":{"ha":693,"x_min":97,"x_max":621,"o":"m 211 717 q 238 624 211 664 q 303 554 264 583 q 408 486 342 525 q 521 412 479 443 q 592 335 563 381 q 621 228 621 289 q 543 51 621 118 q 332 -17 465 -17 q 220 -3 276 -17 q 125 35 164 11 q 116 44 118 39 q 111 61 114 49 l 97 260 q 104 267 96 265 q 114 263 113 268 q 207 85 144 160 q 365 10 269 10 q 474 45 431 10 q 517 161 517 81 q 488 272 517 225 q 420 349 460 318 q 311 422 381 379 q 206 493 244 464 q 142 565 168 522 q 115 664 115 607 q 153 785 115 735 q 253 859 192 835 q 385 883 315 883 q 473 875 428 883 q 554 851 518 867 q 576 826 576 842 l 582 653 q 574 646 582 647 q 565 650 567 644 q 533 740 557 692 q 465 824 510 788 q 357 860 421 860 q 249 818 286 860 q 211 717 211 776 m 278 942 q 269 948 272 942 q 271 957 267 954 q 392 1044 321 988 q 419 1067 404 1054 q 456 1093 435 1079 q 495 1088 461 1097 q 556 1065 529 1078 q 569 1050 582 1053 q 281 943 421 1011 l 278 942 z "},"Š":{"ha":693,"x_min":97,"x_max":621,"o":"m 211 717 q 238 624 211 664 q 303 554 264 583 q 408 486 342 525 q 521 412 479 443 q 592 335 563 381 q 621 228 621 289 q 543 51 621 118 q 332 -17 465 -17 q 220 -3 276 -17 q 125 35 164 11 q 116 44 118 39 q 111 61 114 49 l 97 260 q 104 267 96 265 q 114 263 113 268 q 207 85 144 160 q 365 10 269 10 q 474 45 431 10 q 517 161 517 81 q 488 272 517 225 q 420 349 460 318 q 311 422 381 379 q 206 493 244 464 q 142 565 168 522 q 115 664 115 607 q 153 785 115 735 q 253 859 192 835 q 385 883 315 883 q 473 875 428 883 q 554 851 518 867 q 576 826 576 842 l 582 653 q 574 646 582 647 q 565 650 567 644 q 533 740 557 692 q 465 824 510 788 q 357 860 421 860 q 249 818 286 860 q 211 717 211 776 m 215 1082 l 215 1083 q 218 1090 215 1088 q 224 1092 221 1093 l 358 1019 l 490 1092 l 492 1092 q 499 1088 496 1092 q 500 1082 503 1083 l 372 938 q 360 932 368 932 q 346 938 351 932 l 215 1082 z "},"Ş":{"ha":693,"x_min":96,"x_max":621,"o":"m 621 228 q 559 65 621 131 q 388 -14 497 0 q 383 -46 383 -31 q 397 -94 383 -72 q 436 -144 410 -117 q 485 -206 468 -179 q 500 -261 501 -233 q 469 -344 501 -306 q 372 -382 436 -382 q 301 -364 331 -382 q 274 -314 272 -346 q 283 -288 272 -297 q 311 -279 293 -279 q 340 -290 329 -279 q 364 -321 351 -300 q 385 -348 378 -340 q 407 -356 393 -356 q 435 -344 425 -356 q 444 -310 444 -332 q 365 -192 440 -267 q 339 -126 339 -165 q 346 -83 339 -108 l 368 -15 q 332 -17 356 -17 q 220 -3 276 -17 q 125 35 164 11 q 116 44 118 39 q 111 61 114 49 l 97 260 q 104 267 96 265 q 114 263 113 268 q 207 85 144 160 q 365 10 269 10 q 474 45 431 10 q 517 161 517 81 q 488 272 517 225 q 420 349 460 318 q 311 422 381 379 q 206 493 244 464 q 142 565 168 522 q 115 664 115 607 q 153 785 115 735 q 253 859 192 835 q 385 883 315 883 q 473 875 428 883 q 554 851 518 867 q 576 826 576 842 l 582 653 q 574 646 582 647 q 565 650 567 644 q 533 740 557 692 q 465 824 510 788 q 357 860 421 860 q 249 818 286 860 q 211 717 211 776 q 238 624 211 664 q 303 554 264 583 q 408 486 342 525 q 521 412 479 443 q 592 335 563 381 q 621 228 621 289 z "},"Ŝ":{"ha":693,"x_min":97,"x_max":621,"o":"m 211 717 q 238 624 211 664 q 303 554 264 583 q 408 486 342 525 q 521 412 479 443 q 592 335 563 381 q 621 228 621 289 q 543 51 621 118 q 332 -17 465 -17 q 220 -3 276 -17 q 125 35 164 11 q 116 44 118 39 q 111 61 114 49 l 97 260 q 104 267 96 265 q 114 263 113 268 q 207 85 144 160 q 365 10 269 10 q 474 45 431 10 q 517 161 517 81 q 488 272 517 225 q 420 349 460 318 q 311 422 381 379 q 206 493 244 464 q 142 565 168 522 q 115 664 115 607 q 153 785 115 735 q 253 859 192 835 q 385 883 315 883 q 473 875 428 883 q 554 851 518 867 q 576 826 576 842 l 582 653 q 574 646 582 647 q 565 650 567 644 q 533 740 557 692 q 465 824 510 788 q 357 860 421 860 q 249 818 286 860 q 211 717 211 776 m 231 917 q 223 920 226 917 q 222 926 219 924 l 349 1069 q 361 1076 353 1076 q 375 1069 368 1076 l 507 926 q 506 919 510 924 q 500 917 503 914 l 363 988 l 232 917 l 231 917 z "},"Ș":{"ha":693,"x_min":97,"x_max":621,"o":"m 211 717 q 238 624 211 664 q 303 554 264 583 q 408 486 342 525 q 521 412 479 443 q 592 335 563 381 q 621 228 621 289 q 543 51 621 118 q 332 -17 465 -17 q 220 -3 276 -17 q 125 35 164 11 q 116 44 118 39 q 111 61 114 49 l 97 260 q 104 267 96 265 q 114 263 113 268 q 207 85 144 160 q 365 10 269 10 q 474 45 431 10 q 517 161 517 81 q 488 272 517 225 q 420 349 460 318 q 311 422 381 379 q 206 493 244 464 q 142 565 168 522 q 115 664 115 607 q 153 785 115 735 q 253 859 192 835 q 385 883 315 883 q 473 875 428 883 q 554 851 518 867 q 576 826 576 842 l 582 653 q 574 646 582 647 q 565 650 567 644 q 533 740 557 692 q 465 824 510 788 q 357 860 421 860 q 249 818 286 860 q 211 717 211 776 m 367 -111 q 430 -138 408 -111 q 451 -215 451 -165 q 428 -304 451 -264 q 360 -382 404 -344 l 357 -383 q 349 -378 351 -383 q 349 -371 346 -374 q 413 -256 413 -317 q 403 -214 413 -229 q 356 -236 390 -236 q 313 -219 329 -236 q 297 -174 297 -201 q 317 -126 297 -142 q 367 -111 336 -111 z "},"Ṡ":{"ha":693,"x_min":97,"x_max":621,"o":"m 211 717 q 238 624 211 664 q 303 554 264 583 q 408 486 342 525 q 521 412 479 443 q 592 335 563 381 q 621 228 621 289 q 543 51 621 118 q 332 -17 465 -17 q 220 -3 276 -17 q 125 35 164 11 q 116 44 118 39 q 111 61 114 49 l 97 260 q 104 267 96 265 q 114 263 113 268 q 207 85 144 160 q 365 10 269 10 q 474 45 431 10 q 517 161 517 81 q 488 272 517 225 q 420 349 460 318 q 311 422 381 379 q 206 493 244 464 q 142 565 168 522 q 115 664 115 607 q 153 785 115 735 q 253 859 192 835 q 385 883 315 883 q 473 875 428 883 q 554 851 518 867 q 576 826 576 842 l 582 653 q 574 646 582 647 q 565 650 567 644 q 533 740 557 692 q 465 824 510 788 q 357 860 421 860 q 249 818 286 860 q 211 717 211 776 m 364 985 q 313 1003 332 985 q 294 1053 294 1021 q 313 1101 294 1083 q 364 1118 332 1118 q 413 1101 394 1118 q 431 1053 431 1083 q 413 1003 431 1021 q 364 985 396 985 z "},"Ṣ":{"ha":693,"x_min":97,"x_max":621,"o":"m 211 717 q 238 624 211 664 q 303 554 264 583 q 408 486 342 525 q 521 412 479 443 q 592 335 563 381 q 621 228 621 289 q 543 51 621 118 q 332 -17 465 -17 q 220 -3 276 -17 q 125 35 164 11 q 116 44 118 39 q 111 61 114 49 l 97 260 q 104 267 96 265 q 114 263 113 268 q 207 85 144 160 q 365 10 269 10 q 474 45 431 10 q 517 161 517 81 q 488 272 517 225 q 420 349 460 318 q 311 422 381 379 q 206 493 244 464 q 142 565 168 522 q 115 664 115 607 q 153 785 115 735 q 253 859 192 835 q 385 883 315 883 q 473 875 428 883 q 554 851 518 867 q 576 826 576 842 l 582 653 q 574 646 582 647 q 565 650 567 644 q 533 740 557 692 q 465 824 510 788 q 357 860 421 860 q 249 818 286 860 q 211 717 211 776 m 371 -271 q 320 -253 339 -271 q 301 -203 301 -235 q 320 -156 301 -174 q 371 -139 339 -139 q 419 -156 401 -139 q 436 -203 436 -174 q 419 -253 436 -235 q 371 -271 401 -271 z "},"ẞ":{"ha":964,"x_min":14,"x_max":915,"o":"m 643 -17 q 468 31 542 -17 q 457 42 460 36 q 453 57 454 47 l 439 204 l 439 206 q 441 210 439 208 q 446 213 443 213 q 456 206 453 213 q 517 115 475 158 q 608 44 558 71 q 701 18 658 18 q 790 56 758 18 q 822 156 822 93 q 759 314 822 239 q 567 471 696 389 q 561 492 550 481 l 721 735 q 550 804 636 779 q 404 829 464 829 q 314 808 347 829 q 265 733 281 786 q 249 586 249 681 l 249 113 q 257 51 249 71 q 288 24 265 31 q 361 17 311 17 q 368 8 368 17 q 361 0 368 0 l 192 1 l 19 0 q 14 8 14 0 q 19 17 14 17 q 94 24 69 17 q 129 51 119 32 q 138 113 139 71 l 138 531 q 182 702 139 621 q 307 833 225 783 q 497 883 389 883 q 613 870 554 883 q 739 836 671 857 q 775 829 764 829 q 801 839 789 829 q 831 874 813 849 q 835 875 831 875 q 843 872 839 875 q 846 865 847 868 l 632 550 q 848 385 782 460 q 914 231 914 311 q 883 110 915 167 q 790 18 851 53 q 643 -17 729 -17 z "},"Ə":{"ha":888,"x_min":71,"x_max":825,"o":"m 396 883 q 650 820 554 883 q 785 660 746 757 q 825 450 825 563 q 765 200 825 306 q 605 39 706 94 q 382 -17 504 -17 q 208 22 278 -17 q 104 116 138 60 q 71 226 71 172 q 75 240 71 236 q 88 243 79 243 l 678 246 q 692 400 692 311 q 657 638 692 533 q 555 802 622 743 q 396 861 488 861 q 228 810 310 861 q 103 661 147 760 q 96 657 101 657 q 87 660 92 657 q 83 665 82 663 l 135 894 q 142 899 135 899 q 150 896 146 899 q 153 890 154 893 q 151 878 151 886 q 178 847 151 847 q 192 850 181 847 q 303 876 258 868 q 396 883 347 883 m 432 14 q 585 66 525 14 q 672 218 646 118 l 199 213 q 272 69 210 124 q 432 14 335 14 z "},"T":{"ha":828,"x_min":33,"x_max":797,"o":"m 243 0 q 239 8 239 0 q 242 17 239 17 q 322 24 296 17 q 357 51 347 32 q 365 113 367 71 l 365 756 q 349 825 367 808 q 279 842 332 842 l 249 842 q 114 790 164 842 q 51 636 64 738 q 46 633 51 633 q 38 635 42 633 q 35 639 33 638 q 56 899 42 689 q 63 903 56 903 q 70 901 67 903 q 74 897 74 900 q 136 868 74 868 q 418 864 249 864 q 589 867 494 864 l 686 868 q 753 875 732 868 q 779 903 774 882 q 790 906 782 907 q 796 900 797 906 q 788 757 792 843 q 785 639 783 671 q 776 635 785 635 q 767 640 767 635 q 721 790 767 739 q 583 842 675 842 l 553 842 q 501 834 517 842 q 479 808 485 826 q 472 753 474 790 l 475 113 q 483 50 475 69 q 517 24 492 31 q 597 17 542 17 q 601 8 601 17 q 597 0 601 0 q 526 1 553 0 l 419 3 l 317 1 q 243 0 290 0 z "},"Ŧ":{"ha":828,"x_min":33,"x_max":797,"o":"m 779 903 q 790 906 782 907 q 796 900 797 906 q 788 757 792 843 q 785 639 783 671 q 776 635 785 635 q 767 640 767 635 q 721 790 767 739 q 583 842 675 842 l 553 842 q 501 834 517 842 q 479 808 485 826 q 472 753 474 790 l 474 464 l 604 464 q 609 459 607 464 q 611 449 611 454 q 609 438 611 443 q 604 432 607 432 l 474 432 l 475 113 q 483 50 475 69 q 517 24 492 31 q 597 17 542 17 q 601 8 601 17 q 597 0 601 0 q 526 1 553 0 l 419 3 l 317 1 q 243 0 290 0 q 239 8 239 0 q 242 17 239 17 q 322 24 296 17 q 357 51 347 32 q 365 113 367 71 l 365 432 l 233 432 q 228 449 228 432 q 233 464 228 464 l 365 464 l 365 756 q 349 825 367 808 q 279 842 332 842 l 249 842 q 114 790 164 842 q 51 636 64 738 q 46 633 51 633 q 38 635 42 633 q 35 639 33 638 q 56 899 42 689 q 63 903 56 903 q 70 901 67 903 q 74 897 74 900 q 136 868 74 868 q 418 864 249 864 q 589 867 494 864 l 686 868 q 753 875 732 868 q 779 903 774 882 z "},"Ť":{"ha":828,"x_min":35,"x_max":796,"o":"m 243 0 q 239 8 239 0 q 242 17 239 17 q 322 24 296 17 q 357 51 347 32 q 365 113 367 71 l 365 756 q 349 825 367 808 q 279 842 332 842 l 249 842 q 114 790 164 842 q 51 636 64 738 q 46 633 51 633 q 38 635 42 633 q 35 639 33 638 q 56 899 42 689 q 63 903 56 903 q 70 901 67 903 q 74 897 74 900 q 136 868 74 868 q 418 864 249 864 q 589 867 494 864 l 686 868 q 753 875 732 868 q 779 903 774 882 q 790 906 782 907 q 796 900 797 906 q 788 757 792 843 q 785 639 783 671 q 776 635 785 635 q 767 640 767 635 q 721 790 767 739 q 583 842 675 842 l 553 842 q 501 834 517 842 q 479 808 485 826 q 472 753 474 790 l 475 113 q 483 50 475 69 q 517 24 492 31 q 597 17 542 17 q 601 8 601 17 q 597 0 601 0 q 526 1 553 0 l 419 3 l 317 1 q 243 0 290 0 m 268 1082 l 268 1083 q 271 1090 268 1088 q 276 1092 274 1093 l 411 1019 l 543 1092 l 544 1092 q 552 1088 549 1092 q 553 1082 556 1083 l 425 938 q 413 932 421 932 q 399 938 404 932 l 268 1082 z "},"Ţ":{"ha":828,"x_min":33,"x_max":797,"o":"m 779 903 q 790 906 782 907 q 796 900 797 906 q 788 757 792 843 q 785 639 783 671 q 776 635 785 635 q 767 640 767 635 q 721 790 767 739 q 583 842 675 842 l 553 842 q 501 834 517 842 q 479 808 485 826 q 472 753 474 790 l 475 113 q 483 50 475 69 q 517 24 492 31 q 597 17 542 17 q 601 8 601 17 q 597 0 601 0 q 532 1 556 0 l 435 3 q 429 -49 429 -24 q 440 -99 429 -78 q 474 -144 450 -121 q 522 -206 506 -179 q 538 -261 539 -233 q 506 -344 539 -306 q 410 -382 474 -382 q 339 -364 368 -382 q 311 -314 310 -346 q 320 -288 310 -297 q 349 -279 331 -279 q 378 -290 367 -279 q 401 -321 389 -300 q 423 -348 415 -340 q 444 -356 431 -356 q 472 -344 463 -356 q 482 -310 482 -332 q 403 -192 478 -267 q 375 -126 375 -164 q 383 -83 375 -104 l 413 3 l 315 1 q 243 0 289 0 q 239 8 239 0 q 242 17 239 17 q 322 24 296 17 q 357 51 347 32 q 365 113 367 71 l 365 756 q 349 825 367 808 q 279 842 332 842 l 249 842 q 114 790 164 842 q 51 636 64 738 q 46 633 51 633 q 38 635 42 633 q 35 639 33 638 q 56 899 42 689 q 63 903 56 903 q 70 901 67 903 q 74 897 74 900 q 136 868 74 868 q 418 864 249 864 q 589 867 494 864 l 686 868 q 753 875 732 868 q 779 903 774 882 z "},"Ț":{"ha":828,"x_min":35,"x_max":796,"o":"m 243 0 q 239 8 239 0 q 242 17 239 17 q 322 24 296 17 q 357 51 347 32 q 365 113 367 71 l 365 756 q 349 825 367 808 q 279 842 332 842 l 249 842 q 114 790 164 842 q 51 636 64 738 q 46 633 51 633 q 38 635 42 633 q 35 639 33 638 q 56 899 42 689 q 63 903 56 903 q 70 901 67 903 q 74 897 74 900 q 136 868 74 868 q 418 864 249 864 q 589 867 494 864 l 686 868 q 753 875 732 868 q 779 903 774 882 q 790 906 782 907 q 796 900 797 906 q 788 757 792 843 q 785 639 783 671 q 776 635 785 635 q 767 640 767 635 q 721 790 767 739 q 583 842 675 842 l 553 842 q 501 834 517 842 q 479 808 485 826 q 472 753 474 790 l 475 113 q 483 50 475 69 q 517 24 492 31 q 597 17 542 17 q 601 8 601 17 q 597 0 601 0 q 526 1 553 0 l 419 3 l 317 1 q 243 0 290 0 m 419 -111 q 483 -138 461 -111 q 504 -215 504 -165 q 481 -304 504 -264 q 413 -382 457 -344 l 410 -383 q 401 -378 404 -383 q 401 -371 399 -374 q 465 -256 465 -317 q 456 -214 465 -229 q 408 -236 443 -236 q 366 -219 382 -236 q 350 -174 350 -201 q 369 -126 350 -142 q 419 -111 389 -111 z "},"Ṭ":{"ha":828,"x_min":35,"x_max":796,"o":"m 243 0 q 239 8 239 0 q 242 17 239 17 q 322 24 296 17 q 357 51 347 32 q 365 113 367 71 l 365 756 q 349 825 367 808 q 279 842 332 842 l 249 842 q 114 790 164 842 q 51 636 64 738 q 46 633 51 633 q 38 635 42 633 q 35 639 33 638 q 56 899 42 689 q 63 903 56 903 q 70 901 67 903 q 74 897 74 900 q 136 868 74 868 q 418 864 249 864 q 589 867 494 864 l 686 868 q 753 875 732 868 q 779 903 774 882 q 790 906 782 907 q 796 900 797 906 q 788 757 792 843 q 785 639 783 671 q 776 635 785 635 q 767 640 767 635 q 721 790 767 739 q 583 842 675 842 l 553 842 q 501 834 517 842 q 479 808 485 826 q 472 753 474 790 l 475 113 q 483 50 475 69 q 517 24 492 31 q 597 17 542 17 q 601 8 601 17 q 597 0 601 0 q 526 1 553 0 l 419 3 l 317 1 q 243 0 290 0 m 424 -271 q 373 -253 392 -271 q 354 -203 354 -235 q 373 -156 354 -174 q 424 -139 392 -139 q 472 -156 454 -139 q 489 -203 489 -174 q 472 -253 489 -235 q 424 -271 454 -271 z "},"Ṯ":{"ha":828,"x_min":35,"x_max":796,"o":"m 243 0 q 239 8 239 0 q 242 17 239 17 q 322 24 296 17 q 357 51 347 32 q 365 113 367 71 l 365 756 q 349 825 367 808 q 279 842 332 842 l 249 842 q 114 790 164 842 q 51 636 64 738 q 46 633 51 633 q 38 635 42 633 q 35 639 33 638 q 56 899 42 689 q 63 903 56 903 q 70 901 67 903 q 74 897 74 900 q 136 868 74 868 q 418 864 249 864 q 589 867 494 864 l 686 868 q 753 875 732 868 q 779 903 774 882 q 790 906 782 907 q 796 900 797 906 q 788 757 792 843 q 785 639 783 671 q 776 635 785 635 q 767 640 767 635 q 721 790 767 739 q 583 842 675 842 l 553 842 q 501 834 517 842 q 479 808 485 826 q 472 753 474 790 l 475 113 q 483 50 475 69 q 517 24 492 31 q 597 17 542 17 q 601 8 601 17 q 597 0 601 0 q 526 1 553 0 l 419 3 l 317 1 q 243 0 290 0 m 257 -165 q 249 -158 251 -165 q 246 -143 246 -151 q 249 -128 246 -135 q 257 -121 251 -121 l 582 -121 q 592 -143 592 -121 q 582 -165 592 -165 l 257 -165 z "},"U":{"ha":1057,"x_min":42,"x_max":1011,"o":"m 1006 17 q 1010 8 1010 17 q 1006 0 1011 0 l 881 1 l 796 0 q 777 4 781 0 q 774 26 774 8 l 774 108 q 628 13 700 43 q 475 -17 557 -17 q 308 17 382 -17 q 192 113 235 50 q 150 258 150 175 l 150 756 q 141 817 149 797 q 112 844 133 836 q 44 851 90 851 q 42 860 42 851 q 44 868 42 868 l 108 867 q 201 864 164 864 q 299 867 238 864 l 363 868 q 367 860 367 868 q 364 851 367 851 q 295 843 317 851 q 267 815 274 835 q 258 753 260 794 l 258 307 q 325 99 257 174 q 515 25 393 25 q 645 51 585 25 q 774 142 706 78 l 771 753 q 765 815 772 794 q 736 843 758 835 q 668 851 714 851 q 665 860 665 851 q 668 868 665 868 l 732 867 q 826 864 790 864 q 921 867 860 864 l 986 868 q 990 860 990 868 q 988 851 990 851 q 920 844 942 851 q 890 817 899 836 q 882 756 882 797 l 882 113 q 891 50 882 69 q 925 24 900 31 q 1006 17 950 17 z "},"Ú":{"ha":1057,"x_min":42,"x_max":1010,"o":"m 1006 17 q 1010 8 1010 17 q 1006 0 1011 0 l 881 1 l 796 0 q 777 4 781 0 q 774 26 774 8 l 774 108 q 628 13 700 43 q 475 -17 557 -17 q 308 17 382 -17 q 192 113 235 50 q 150 258 150 175 l 150 756 q 141 817 149 797 q 112 844 133 836 q 44 851 90 851 q 42 860 42 851 q 44 868 42 868 l 108 867 q 201 864 164 864 q 299 867 238 864 l 363 868 q 367 860 367 868 q 364 851 367 851 q 295 843 317 851 q 267 815 274 835 q 258 753 260 794 l 258 307 q 325 99 257 174 q 515 25 393 25 q 645 51 585 25 q 774 142 706 78 l 771 753 q 765 815 772 794 q 736 843 758 835 q 668 851 714 851 q 665 860 665 851 q 668 868 665 868 l 732 867 q 826 864 790 864 q 921 867 860 864 l 986 868 q 990 860 990 868 q 988 851 990 851 q 920 844 942 851 q 890 817 899 836 q 882 756 882 797 l 882 113 q 891 50 882 69 q 925 24 900 31 q 1006 17 950 17 m 429 942 q 421 948 424 942 q 422 957 418 954 q 543 1044 472 988 q 571 1067 556 1054 q 607 1093 586 1079 q 647 1088 613 1097 q 707 1065 681 1078 q 721 1050 733 1053 q 432 943 572 1011 l 429 942 z "},"Ŭ":{"ha":1057,"x_min":42,"x_max":1010,"o":"m 1006 17 q 1010 8 1010 17 q 1006 0 1011 0 l 881 1 l 796 0 q 777 4 781 0 q 774 26 774 8 l 774 108 q 628 13 700 43 q 475 -17 557 -17 q 308 17 382 -17 q 192 113 235 50 q 150 258 150 175 l 150 756 q 141 817 149 797 q 112 844 133 836 q 44 851 90 851 q 42 860 42 851 q 44 868 42 868 l 108 867 q 201 864 164 864 q 299 867 238 864 l 363 868 q 367 860 367 868 q 364 851 367 851 q 295 843 317 851 q 267 815 274 835 q 258 753 260 794 l 258 307 q 325 99 257 174 q 515 25 393 25 q 645 51 585 25 q 774 142 706 78 l 771 753 q 765 815 772 794 q 736 843 758 835 q 668 851 714 851 q 665 860 665 851 q 668 868 665 868 l 732 867 q 826 864 790 864 q 921 867 860 864 l 986 868 q 990 860 990 868 q 988 851 990 851 q 920 844 942 851 q 890 817 899 836 q 882 756 882 797 l 882 113 q 891 50 882 69 q 925 24 900 31 q 1006 17 950 17 m 513 924 q 430 956 467 924 q 381 1049 393 989 q 402 1064 379 1057 q 446 1071 425 1071 q 463 1067 461 1071 q 495 1006 472 1028 q 546 985 518 985 q 594 1004 572 985 q 628 1061 615 1024 q 635 1065 628 1065 q 646 1063 640 1065 q 651 1057 651 1060 q 597 958 635 993 q 513 924 558 924 z "},"Ǔ":{"ha":1057,"x_min":42,"x_max":1010,"o":"m 1006 17 q 1010 8 1010 17 q 1006 0 1011 0 l 881 1 l 796 0 q 777 4 781 0 q 774 26 774 8 l 774 108 q 628 13 700 43 q 475 -17 557 -17 q 308 17 382 -17 q 192 113 235 50 q 150 258 150 175 l 150 756 q 141 817 149 797 q 112 844 133 836 q 44 851 90 851 q 42 860 42 851 q 44 868 42 868 l 108 867 q 201 864 164 864 q 299 867 238 864 l 363 868 q 367 860 367 868 q 364 851 367 851 q 295 843 317 851 q 267 815 274 835 q 258 753 260 794 l 258 307 q 325 99 257 174 q 515 25 393 25 q 645 51 585 25 q 774 142 706 78 l 771 753 q 765 815 772 794 q 736 843 758 835 q 668 851 714 851 q 665 860 665 851 q 668 868 665 868 l 732 867 q 826 864 790 864 q 921 867 860 864 l 986 868 q 990 860 990 868 q 988 851 990 851 q 920 844 942 851 q 890 817 899 836 q 882 756 882 797 l 882 113 q 891 50 882 69 q 925 24 900 31 q 1006 17 950 17 m 367 1082 l 367 1083 q 369 1090 367 1088 q 375 1092 372 1093 l 510 1019 l 642 1092 l 643 1092 q 651 1088 647 1092 q 651 1082 654 1083 l 524 938 q 511 932 519 932 q 497 938 503 932 l 367 1082 z "},"Û":{"ha":1057,"x_min":42,"x_max":1010,"o":"m 1006 17 q 1010 8 1010 17 q 1006 0 1011 0 l 881 1 l 796 0 q 777 4 781 0 q 774 26 774 8 l 774 108 q 628 13 700 43 q 475 -17 557 -17 q 308 17 382 -17 q 192 113 235 50 q 150 258 150 175 l 150 756 q 141 817 149 797 q 112 844 133 836 q 44 851 90 851 q 42 860 42 851 q 44 868 42 868 l 108 867 q 201 864 164 864 q 299 867 238 864 l 363 868 q 367 860 367 868 q 364 851 367 851 q 295 843 317 851 q 267 815 274 835 q 258 753 260 794 l 258 307 q 325 99 257 174 q 515 25 393 25 q 645 51 585 25 q 774 142 706 78 l 771 753 q 765 815 772 794 q 736 843 758 835 q 668 851 714 851 q 665 860 665 851 q 668 868 665 868 l 732 867 q 826 864 790 864 q 921 867 860 864 l 986 868 q 990 860 990 868 q 988 851 990 851 q 920 844 942 851 q 890 817 899 836 q 882 756 882 797 l 882 113 q 891 50 882 69 q 925 24 900 31 q 1006 17 950 17 m 382 917 q 374 920 378 917 q 374 926 371 924 l 500 1069 q 513 1076 504 1076 q 526 1069 519 1076 l 658 926 q 658 919 661 924 q 651 917 654 914 l 514 988 l 383 917 l 382 917 z "},"Ü":{"ha":1057,"x_min":42,"x_max":1010,"o":"m 1006 17 q 1010 8 1010 17 q 1006 0 1011 0 l 881 1 l 796 0 q 777 4 781 0 q 774 26 774 8 l 774 108 q 628 13 700 43 q 475 -17 557 -17 q 308 17 382 -17 q 192 113 235 50 q 150 258 150 175 l 150 756 q 141 817 149 797 q 112 844 133 836 q 44 851 90 851 q 42 860 42 851 q 44 868 42 868 l 108 867 q 201 864 164 864 q 299 867 238 864 l 363 868 q 367 860 367 868 q 364 851 367 851 q 295 843 317 851 q 267 815 274 835 q 258 753 260 794 l 258 307 q 325 99 257 174 q 515 25 393 25 q 645 51 585 25 q 774 142 706 78 l 771 753 q 765 815 772 794 q 736 843 758 835 q 668 851 714 851 q 665 860 665 851 q 668 868 665 868 l 732 867 q 826 864 790 864 q 921 867 860 864 l 986 868 q 990 860 990 868 q 988 851 990 851 q 920 844 942 851 q 890 817 899 836 q 882 756 882 797 l 882 113 q 891 50 882 69 q 925 24 900 31 q 1006 17 950 17 m 403 989 q 355 1006 372 989 q 338 1053 338 1022 q 355 1098 338 1082 q 403 1114 372 1114 q 449 1098 432 1114 q 465 1053 465 1082 q 449 1006 465 1022 q 403 989 432 989 m 625 989 q 578 1006 594 989 q 561 1053 561 1022 q 578 1098 561 1082 q 625 1114 594 1114 q 670 1098 654 1114 q 686 1053 686 1082 q 670 1006 686 1022 q 625 989 654 989 z "},"Ǘ":{"ha":1057,"x_min":42,"x_max":1010,"o":"m 1006 17 q 1010 8 1010 17 q 1006 0 1011 0 l 881 1 l 796 0 q 777 4 781 0 q 774 26 774 8 l 774 108 q 628 13 700 43 q 475 -17 557 -17 q 308 17 382 -17 q 192 113 235 50 q 150 258 150 175 l 150 756 q 141 817 149 797 q 112 844 133 836 q 44 851 90 851 q 42 860 42 851 q 44 868 42 868 l 108 867 q 201 864 164 864 q 299 867 238 864 l 363 868 q 367 860 367 868 q 364 851 367 851 q 295 843 317 851 q 267 815 274 835 q 258 753 260 794 l 258 307 q 325 99 257 174 q 515 25 393 25 q 645 51 585 25 q 774 142 706 78 l 771 753 q 765 815 772 794 q 736 843 758 835 q 668 851 714 851 q 665 860 665 851 q 668 868 665 868 l 732 867 q 826 864 790 864 q 921 867 860 864 l 986 868 q 990 860 990 868 q 988 851 990 851 q 920 844 942 851 q 890 817 899 836 q 882 756 882 797 l 882 113 q 891 50 882 69 q 925 24 900 31 q 1006 17 950 17 m 404 957 q 356 974 374 957 q 339 1021 339 990 q 356 1066 339 1050 q 404 1082 374 1082 q 450 1066 433 1082 q 467 1021 467 1050 q 450 974 467 990 q 404 957 433 957 m 626 957 q 579 974 596 957 q 563 1021 563 990 q 579 1066 563 1050 q 626 1082 596 1082 q 672 1066 656 1082 q 688 1021 688 1050 q 672 974 688 990 q 626 957 656 957 m 376 1111 q 368 1117 371 1111 q 369 1126 365 1124 q 490 1214 419 1157 q 518 1236 503 1224 q 554 1263 533 1249 q 594 1257 560 1267 q 654 1235 628 1247 q 668 1219 681 1222 q 379 1113 519 1181 l 376 1111 z "},"Ǚ":{"ha":1057,"x_min":42,"x_max":1010,"o":"m 1006 17 q 1010 8 1010 17 q 1006 0 1011 0 l 881 1 l 796 0 q 777 4 781 0 q 774 26 774 8 l 774 108 q 628 13 700 43 q 475 -17 557 -17 q 308 17 382 -17 q 192 113 235 50 q 150 258 150 175 l 150 756 q 141 817 149 797 q 112 844 133 836 q 44 851 90 851 q 42 860 42 851 q 44 868 42 868 l 108 867 q 201 864 164 864 q 299 867 238 864 l 363 868 q 367 860 367 868 q 364 851 367 851 q 295 843 317 851 q 267 815 274 835 q 258 753 260 794 l 258 307 q 325 99 257 174 q 515 25 393 25 q 645 51 585 25 q 774 142 706 78 l 771 753 q 765 815 772 794 q 736 843 758 835 q 668 851 714 851 q 665 860 665 851 q 668 868 665 868 l 732 867 q 826 864 790 864 q 921 867 860 864 l 986 868 q 990 860 990 868 q 988 851 990 851 q 920 844 942 851 q 890 817 899 836 q 882 756 882 797 l 882 113 q 891 50 882 69 q 925 24 900 31 q 1006 17 950 17 m 401 957 q 353 974 371 957 q 336 1021 336 990 q 353 1066 336 1050 q 401 1082 371 1082 q 447 1066 431 1082 q 464 1021 464 1050 q 447 974 464 990 q 401 957 431 957 m 624 957 q 576 974 593 957 q 560 1021 560 990 q 576 1066 560 1050 q 624 1082 593 1082 q 669 1066 653 1082 q 685 1021 685 1050 q 669 974 685 990 q 624 957 653 957 m 379 1103 q 372 1106 376 1101 q 369 1113 367 1110 l 496 1256 q 508 1263 503 1263 q 522 1256 515 1263 l 654 1113 l 654 1110 q 651 1103 654 1106 q 646 1103 649 1100 l 510 1175 l 379 1103 z "},"Ǜ":{"ha":1057,"x_min":42,"x_max":1010,"o":"m 1006 17 q 1010 8 1010 17 q 1006 0 1011 0 l 881 1 l 796 0 q 777 4 781 0 q 774 26 774 8 l 774 108 q 628 13 700 43 q 475 -17 557 -17 q 308 17 382 -17 q 192 113 235 50 q 150 258 150 175 l 150 756 q 141 817 149 797 q 112 844 133 836 q 44 851 90 851 q 42 860 42 851 q 44 868 42 868 l 108 867 q 201 864 164 864 q 299 867 238 864 l 363 868 q 367 860 367 868 q 364 851 367 851 q 295 843 317 851 q 267 815 274 835 q 258 753 260 794 l 258 307 q 325 99 257 174 q 515 25 393 25 q 645 51 585 25 q 774 142 706 78 l 771 753 q 765 815 772 794 q 736 843 758 835 q 668 851 714 851 q 665 860 665 851 q 668 868 665 868 l 732 867 q 826 864 790 864 q 921 867 860 864 l 986 868 q 990 860 990 868 q 988 851 990 851 q 920 844 942 851 q 890 817 899 836 q 882 756 882 797 l 882 113 q 891 50 882 69 q 925 24 900 31 q 1006 17 950 17 m 406 957 q 358 974 375 957 q 340 1021 340 990 q 358 1066 340 1050 q 406 1082 375 1082 q 451 1066 435 1082 q 468 1021 468 1050 q 451 974 468 990 q 406 957 435 957 m 628 957 q 581 974 597 957 q 564 1021 564 990 q 581 1066 564 1050 q 628 1082 597 1082 q 673 1066 657 1082 q 689 1021 689 1050 q 673 974 689 990 q 628 957 657 957 m 664 1106 q 522 1161 582 1139 q 383 1204 461 1183 q 394 1219 369 1207 q 454 1242 419 1232 q 496 1247 489 1251 q 669 1118 544 1208 q 674 1113 674 1117 q 670 1107 674 1110 q 664 1106 667 1104 z "},"Ǖ":{"ha":1057,"x_min":42,"x_max":1010,"o":"m 1006 17 q 1010 8 1010 17 q 1006 0 1011 0 l 881 1 l 796 0 q 777 4 781 0 q 774 26 774 8 l 774 108 q 628 13 700 43 q 475 -17 557 -17 q 308 17 382 -17 q 192 113 235 50 q 150 258 150 175 l 150 756 q 141 817 149 797 q 112 844 133 836 q 44 851 90 851 q 42 860 42 851 q 44 868 42 868 l 108 867 q 201 864 164 864 q 299 867 238 864 l 363 868 q 367 860 367 868 q 364 851 367 851 q 295 843 317 851 q 267 815 274 835 q 258 753 260 794 l 258 307 q 325 99 257 174 q 515 25 393 25 q 645 51 585 25 q 774 142 706 78 l 771 753 q 765 815 772 794 q 736 843 758 835 q 668 851 714 851 q 665 860 665 851 q 668 868 665 868 l 732 867 q 826 864 790 864 q 921 867 860 864 l 986 868 q 990 860 990 868 q 988 851 990 851 q 920 844 942 851 q 890 817 899 836 q 882 756 882 797 l 882 113 q 891 50 882 69 q 925 24 900 31 q 1006 17 950 17 m 396 957 q 348 974 365 957 q 331 1021 331 990 q 348 1066 331 1050 q 396 1082 365 1082 q 442 1066 425 1082 q 458 1021 458 1050 q 442 974 458 990 q 396 957 425 957 m 618 957 q 571 974 588 957 q 554 1021 554 990 q 571 1066 554 1050 q 618 1082 588 1082 q 663 1066 647 1082 q 679 1021 679 1050 q 663 974 679 990 q 618 957 647 957 m 339 1140 q 329 1163 329 1140 q 339 1185 329 1185 l 664 1185 q 672 1178 669 1185 q 675 1163 675 1171 q 672 1147 675 1154 q 664 1140 669 1140 l 339 1140 z "},"Ụ":{"ha":1057,"x_min":42,"x_max":1010,"o":"m 1006 17 q 1010 8 1010 17 q 1006 0 1011 0 l 881 1 l 796 0 q 777 4 781 0 q 774 26 774 8 l 774 108 q 628 13 700 43 q 475 -17 557 -17 q 308 17 382 -17 q 192 113 235 50 q 150 258 150 175 l 150 756 q 141 817 149 797 q 112 844 133 836 q 44 851 90 851 q 42 860 42 851 q 44 868 42 868 l 108 867 q 201 864 164 864 q 299 867 238 864 l 363 868 q 367 860 367 868 q 364 851 367 851 q 295 843 317 851 q 267 815 274 835 q 258 753 260 794 l 258 307 q 325 99 257 174 q 515 25 393 25 q 645 51 585 25 q 774 142 706 78 l 771 753 q 765 815 772 794 q 736 843 758 835 q 668 851 714 851 q 665 860 665 851 q 668 868 665 868 l 732 867 q 826 864 790 864 q 921 867 860 864 l 986 868 q 990 860 990 868 q 988 851 990 851 q 920 844 942 851 q 890 817 899 836 q 882 756 882 797 l 882 113 q 891 50 882 69 q 925 24 900 31 q 1006 17 950 17 m 533 -271 q 483 -253 501 -271 q 464 -203 464 -235 q 483 -156 464 -174 q 533 -139 501 -139 q 581 -156 564 -139 q 599 -203 599 -174 q 581 -253 599 -235 q 533 -271 564 -271 z "},"Ù":{"ha":1057,"x_min":42,"x_max":1010,"o":"m 1006 17 q 1010 8 1010 17 q 1006 0 1011 0 l 881 1 l 796 0 q 777 4 781 0 q 774 26 774 8 l 774 108 q 628 13 700 43 q 475 -17 557 -17 q 308 17 382 -17 q 192 113 235 50 q 150 258 150 175 l 150 756 q 141 817 149 797 q 112 844 133 836 q 44 851 90 851 q 42 860 42 851 q 44 868 42 868 l 108 867 q 201 864 164 864 q 299 867 238 864 l 363 868 q 367 860 367 868 q 364 851 367 851 q 295 843 317 851 q 267 815 274 835 q 258 753 260 794 l 258 307 q 325 99 257 174 q 515 25 393 25 q 645 51 585 25 q 774 142 706 78 l 771 753 q 765 815 772 794 q 736 843 758 835 q 668 851 714 851 q 665 860 665 851 q 668 868 665 868 l 732 867 q 826 864 790 864 q 921 867 860 864 l 986 868 q 990 860 990 868 q 988 851 990 851 q 920 844 942 851 q 890 817 899 836 q 882 756 882 797 l 882 113 q 891 50 882 69 q 925 24 900 31 q 1006 17 950 17 m 651 951 q 509 1007 569 985 q 371 1050 449 1029 q 382 1065 357 1053 q 442 1088 407 1078 q 483 1093 476 1097 q 657 964 532 1054 q 661 958 661 963 q 658 953 661 956 q 651 951 654 950 z "},"Ủ":{"ha":1057,"x_min":42,"x_max":1010,"o":"m 1006 17 q 1010 8 1010 17 q 1006 0 1011 0 l 881 1 l 796 0 q 777 4 781 0 q 774 26 774 8 l 774 108 q 628 13 700 43 q 475 -17 557 -17 q 308 17 382 -17 q 192 113 235 50 q 150 258 150 175 l 150 756 q 141 817 149 797 q 112 844 133 836 q 44 851 90 851 q 42 860 42 851 q 44 868 42 868 l 108 867 q 201 864 164 864 q 299 867 238 864 l 363 868 q 367 860 367 868 q 364 851 367 851 q 295 843 317 851 q 267 815 274 835 q 258 753 260 794 l 258 307 q 325 99 257 174 q 515 25 393 25 q 645 51 585 25 q 774 142 706 78 l 771 753 q 765 815 772 794 q 736 843 758 835 q 668 851 714 851 q 665 860 665 851 q 668 868 665 868 l 732 867 q 826 864 790 864 q 921 867 860 864 l 986 868 q 990 860 990 868 q 988 851 990 851 q 920 844 942 851 q 890 817 899 836 q 882 756 882 797 l 882 113 q 891 50 882 69 q 925 24 900 31 q 1006 17 950 17 m 519 904 q 513 901 521 901 q 504 904 506 900 q 497 943 497 922 q 517 1014 497 972 q 535 1076 535 1053 q 519 1124 535 1107 q 479 1140 504 1140 q 438 1129 457 1140 l 435 1129 q 427 1133 431 1129 q 428 1142 424 1138 q 524 1172 468 1172 q 594 1151 568 1172 q 619 1094 619 1129 q 606 1050 619 1071 q 567 1000 593 1029 q 531 956 543 975 q 518 918 518 938 q 519 904 518 908 z "},"Ư":{"ha":1057,"x_min":42,"x_max":1092,"o":"m 931 849 q 890 822 899 840 q 882 756 882 804 l 882 113 q 891 50 882 69 q 925 24 900 31 q 1006 17 950 17 q 1010 8 1010 17 q 1006 0 1011 0 l 881 1 l 796 0 q 777 4 781 0 q 774 26 774 8 l 774 108 q 629 13 700 43 q 476 -17 558 -17 q 308 17 382 -17 q 192 113 233 50 q 150 258 150 175 l 150 756 q 141 817 149 797 q 112 844 133 836 q 44 851 90 851 q 42 860 42 851 q 44 868 42 868 l 108 867 q 201 864 164 864 q 299 867 238 864 l 363 868 q 367 860 367 868 q 364 851 367 851 q 295 843 317 851 q 267 815 274 835 q 258 753 260 794 l 258 307 q 325 98 257 171 q 517 25 393 25 q 644 51 583 25 q 774 142 704 78 l 771 753 q 764 815 772 794 q 733 843 756 835 q 661 851 710 851 q 658 857 658 851 q 663 868 658 868 l 731 867 q 825 864 789 864 q 956 880 910 864 q 1001 926 1001 896 q 996 948 1001 938 q 989 961 990 958 q 976 983 981 974 q 972 1006 972 993 q 989 1044 972 1031 q 1028 1057 1006 1057 q 1074 1035 1057 1057 q 1092 981 1092 1014 q 1053 903 1092 929 q 977 864 1014 876 q 931 849 940 851 z "},"Ứ":{"ha":1057,"x_min":42,"x_max":1092,"o":"m 931 849 q 890 822 899 840 q 882 756 882 804 l 882 113 q 891 50 882 69 q 925 24 900 31 q 1006 17 950 17 q 1010 8 1010 17 q 1006 0 1011 0 l 881 1 l 796 0 q 777 4 781 0 q 774 26 774 8 l 774 108 q 629 13 700 43 q 476 -17 558 -17 q 308 17 382 -17 q 192 113 233 50 q 150 258 150 175 l 150 756 q 141 817 149 797 q 112 844 133 836 q 44 851 90 851 q 42 860 42 851 q 44 868 42 868 l 108 867 q 201 864 164 864 q 299 867 238 864 l 363 868 q 367 860 367 868 q 364 851 367 851 q 295 843 317 851 q 267 815 274 835 q 258 753 260 794 l 258 307 q 325 98 257 171 q 517 25 393 25 q 644 51 583 25 q 774 142 704 78 l 771 753 q 764 815 772 794 q 733 843 756 835 q 661 851 710 851 q 658 857 658 851 q 663 868 658 868 l 731 867 q 825 864 789 864 q 956 880 910 864 q 1001 926 1001 896 q 996 948 1001 938 q 989 961 990 958 q 976 983 981 974 q 972 1006 972 993 q 989 1044 972 1031 q 1028 1057 1006 1057 q 1074 1035 1057 1057 q 1092 981 1092 1014 q 1053 903 1092 929 q 977 864 1014 876 q 931 849 940 851 m 396 942 q 387 948 390 942 q 388 957 383 954 q 454 1003 419 976 q 503 1039 489 1029 q 572 1092 538 1068 q 611 1086 578 1096 q 672 1064 644 1076 q 686 1050 699 1051 q 397 942 526 1007 l 396 942 z "},"Ự":{"ha":1057,"x_min":42,"x_max":1092,"o":"m 931 849 q 890 822 899 840 q 882 756 882 804 l 882 113 q 891 50 882 69 q 925 24 900 31 q 1006 17 950 17 q 1010 8 1010 17 q 1006 0 1011 0 l 881 1 l 796 0 q 777 4 781 0 q 774 26 774 8 l 774 108 q 629 13 700 43 q 476 -17 558 -17 q 308 17 382 -17 q 192 113 233 50 q 150 258 150 175 l 150 756 q 141 817 149 797 q 112 844 133 836 q 44 851 90 851 q 42 860 42 851 q 44 868 42 868 l 108 867 q 201 864 164 864 q 299 867 238 864 l 363 868 q 367 860 367 868 q 364 851 367 851 q 295 843 317 851 q 267 815 274 835 q 258 753 260 794 l 258 307 q 325 98 257 171 q 517 25 393 25 q 644 51 583 25 q 774 142 704 78 l 771 753 q 764 815 772 794 q 733 843 756 835 q 661 851 710 851 q 658 857 658 851 q 663 868 658 868 l 731 867 q 825 864 789 864 q 956 880 910 864 q 1001 926 1001 896 q 996 948 1001 938 q 989 961 990 958 q 976 983 981 974 q 972 1006 972 993 q 989 1044 972 1031 q 1028 1057 1006 1057 q 1074 1035 1057 1057 q 1092 981 1092 1014 q 1053 903 1092 929 q 977 864 1014 876 q 931 849 940 851 m 544 -271 q 494 -253 513 -271 q 475 -203 475 -235 q 494 -156 475 -174 q 544 -139 513 -139 q 592 -156 575 -139 q 610 -203 610 -174 q 592 -253 610 -235 q 544 -271 575 -271 z "},"Ừ":{"ha":1057,"x_min":42,"x_max":1092,"o":"m 931 849 q 890 822 899 840 q 882 756 882 804 l 882 113 q 891 50 882 69 q 925 24 900 31 q 1006 17 950 17 q 1010 8 1010 17 q 1006 0 1011 0 l 881 1 l 796 0 q 777 4 781 0 q 774 26 774 8 l 774 108 q 629 13 700 43 q 476 -17 558 -17 q 308 17 382 -17 q 192 113 233 50 q 150 258 150 175 l 150 756 q 141 817 149 797 q 112 844 133 836 q 44 851 90 851 q 42 860 42 851 q 44 868 42 868 l 108 867 q 201 864 164 864 q 299 867 238 864 l 363 868 q 367 860 367 868 q 364 851 367 851 q 295 843 317 851 q 267 815 274 835 q 258 753 260 794 l 258 307 q 325 98 257 171 q 517 25 393 25 q 644 51 583 25 q 774 142 704 78 l 771 753 q 764 815 772 794 q 733 843 756 835 q 661 851 710 851 q 658 857 658 851 q 663 868 658 868 l 731 867 q 825 864 789 864 q 956 880 910 864 q 1001 926 1001 896 q 996 948 1001 938 q 989 961 990 958 q 976 983 981 974 q 972 1006 972 993 q 989 1044 972 1031 q 1028 1057 1006 1057 q 1074 1035 1057 1057 q 1092 981 1092 1014 q 1053 903 1092 929 q 977 864 1014 876 q 931 849 940 851 m 672 943 q 510 1003 586 978 q 343 1050 433 1029 q 353 1065 331 1053 q 406 1088 375 1078 q 443 1093 436 1097 q 506 1054 485 1068 q 675 957 618 986 q 679 948 681 956 q 672 943 678 940 z "},"Ử":{"ha":1057,"x_min":42,"x_max":1092,"o":"m 931 849 q 890 822 899 840 q 882 756 882 804 l 882 113 q 891 50 882 69 q 925 24 900 31 q 1006 17 950 17 q 1010 8 1010 17 q 1006 0 1011 0 l 881 1 l 796 0 q 777 4 781 0 q 774 26 774 8 l 774 108 q 629 13 700 43 q 476 -17 558 -17 q 308 17 382 -17 q 192 113 233 50 q 150 258 150 175 l 150 756 q 141 817 149 797 q 112 844 133 836 q 44 851 90 851 q 42 860 42 851 q 44 868 42 868 l 108 867 q 201 864 164 864 q 299 867 238 864 l 363 868 q 367 860 367 868 q 364 851 367 851 q 295 843 317 851 q 267 815 274 835 q 258 753 260 794 l 258 307 q 325 98 257 171 q 517 25 393 25 q 644 51 583 25 q 774 142 704 78 l 771 753 q 764 815 772 794 q 733 843 756 835 q 661 851 710 851 q 658 857 658 851 q 663 868 658 868 l 731 867 q 825 864 789 864 q 956 880 910 864 q 1001 926 1001 896 q 996 948 1001 938 q 989 961 990 958 q 976 983 981 974 q 972 1006 972 993 q 989 1044 972 1031 q 1028 1057 1006 1057 q 1074 1035 1057 1057 q 1092 981 1092 1014 q 1053 903 1092 929 q 977 864 1014 876 q 931 849 940 851 m 535 904 q 528 901 536 901 q 519 904 521 900 q 513 943 513 922 q 532 1014 513 972 q 550 1076 550 1053 q 535 1124 550 1107 q 494 1140 519 1140 q 453 1129 472 1140 l 450 1129 q 442 1133 446 1129 q 443 1142 439 1138 q 539 1172 483 1172 q 609 1151 583 1172 q 635 1094 635 1129 q 622 1050 635 1071 q 582 1000 608 1029 q 546 956 558 975 q 533 918 533 938 q 535 904 533 908 z "},"Ữ":{"ha":1057,"x_min":42,"x_max":1092,"o":"m 931 849 q 890 822 899 840 q 882 756 882 804 l 882 113 q 891 50 882 69 q 925 24 900 31 q 1006 17 950 17 q 1010 8 1010 17 q 1006 0 1011 0 l 881 1 l 796 0 q 777 4 781 0 q 774 26 774 8 l 774 108 q 629 13 700 43 q 476 -17 558 -17 q 308 17 382 -17 q 192 113 233 50 q 150 258 150 175 l 150 756 q 141 817 149 797 q 112 844 133 836 q 44 851 90 851 q 42 860 42 851 q 44 868 42 868 l 108 867 q 201 864 164 864 q 299 867 238 864 l 363 868 q 367 860 367 868 q 364 851 367 851 q 295 843 317 851 q 267 815 274 835 q 258 753 260 794 l 258 307 q 325 98 257 171 q 517 25 393 25 q 644 51 583 25 q 774 142 704 78 l 771 753 q 764 815 772 794 q 733 843 756 835 q 661 851 710 851 q 658 857 658 851 q 663 868 658 868 l 731 867 q 825 864 789 864 q 956 880 910 864 q 1001 926 1001 896 q 996 948 1001 938 q 989 961 990 958 q 976 983 981 974 q 972 1006 972 993 q 989 1044 972 1031 q 1028 1057 1006 1057 q 1074 1035 1057 1057 q 1092 981 1092 1014 q 1053 903 1092 929 q 977 864 1014 876 q 931 849 940 851 m 353 994 q 345 998 349 994 q 343 1004 342 1001 q 453 1097 393 1097 q 525 1083 469 1097 q 631 1064 592 1064 q 672 1073 657 1064 q 701 1101 686 1082 l 703 1101 q 710 1098 707 1101 q 713 1092 714 1094 q 662 1017 683 1036 q 610 997 640 997 q 569 1002 592 997 q 525 1014 547 1007 q 474 1026 501 1021 q 425 1032 447 1032 q 388 1025 400 1032 q 367 1008 375 1018 q 354 994 358 999 l 353 994 z "},"Ű":{"ha":1057,"x_min":42,"x_max":1010,"o":"m 1006 17 q 1010 8 1010 17 q 1006 0 1011 0 l 881 1 l 796 0 q 777 4 781 0 q 774 26 774 8 l 774 108 q 628 13 700 43 q 475 -17 557 -17 q 308 17 382 -17 q 192 113 235 50 q 150 258 150 175 l 150 756 q 141 817 149 797 q 112 844 133 836 q 44 851 90 851 q 42 860 42 851 q 44 868 42 868 l 108 867 q 201 864 164 864 q 299 867 238 864 l 363 868 q 367 860 367 868 q 364 851 367 851 q 295 843 317 851 q 267 815 274 835 q 258 753 260 794 l 258 307 q 325 99 257 174 q 515 25 393 25 q 645 51 585 25 q 774 142 706 78 l 771 753 q 765 815 772 794 q 736 843 758 835 q 668 851 714 851 q 665 860 665 851 q 668 868 665 868 l 732 867 q 826 864 790 864 q 921 867 860 864 l 986 868 q 990 860 990 868 q 988 851 990 851 q 920 844 942 851 q 890 817 899 836 q 882 756 882 797 l 882 113 q 891 50 882 69 q 925 24 900 31 q 1006 17 950 17 m 383 929 q 378 935 379 929 q 379 944 376 942 l 403 969 q 529 1106 472 1040 q 565 1104 535 1111 q 618 1086 596 1097 q 628 1069 640 1075 q 496 1001 553 1033 q 386 931 439 969 l 383 929 m 561 929 q 554 935 556 929 q 557 944 553 942 q 707 1106 642 1032 q 742 1104 713 1111 q 794 1086 772 1097 q 806 1069 817 1075 q 564 931 685 1015 l 561 929 z "},"Ū":{"ha":1057,"x_min":42,"x_max":1010,"o":"m 1006 17 q 1010 8 1010 17 q 1006 0 1011 0 l 881 1 l 796 0 q 777 4 781 0 q 774 26 774 8 l 774 108 q 628 13 700 43 q 475 -17 557 -17 q 308 17 382 -17 q 192 113 235 50 q 150 258 150 175 l 150 756 q 141 817 149 797 q 112 844 133 836 q 44 851 90 851 q 42 860 42 851 q 44 868 42 868 l 108 867 q 201 864 164 864 q 299 867 238 864 l 363 868 q 367 860 367 868 q 364 851 367 851 q 295 843 317 851 q 267 815 274 835 q 258 753 260 794 l 258 307 q 325 99 257 174 q 515 25 393 25 q 645 51 585 25 q 774 142 706 78 l 771 753 q 765 815 772 794 q 736 843 758 835 q 668 851 714 851 q 665 860 665 851 q 668 868 665 868 l 732 867 q 826 864 790 864 q 921 867 860 864 l 986 868 q 990 860 990 868 q 988 851 990 851 q 920 844 942 851 q 890 817 899 836 q 882 756 882 797 l 882 113 q 891 50 882 69 q 925 24 900 31 q 1006 17 950 17 m 354 994 q 344 1017 344 994 q 354 1039 344 1039 l 679 1039 q 688 1032 685 1039 q 690 1017 690 1025 q 688 1001 690 1008 q 679 994 685 994 l 354 994 z "},"Ų":{"ha":1057,"x_min":42,"x_max":1011,"o":"m 1006 17 q 1010 8 1010 17 q 1006 0 1011 0 l 881 1 l 796 0 l 793 0 q 726 -103 750 -56 q 704 -201 703 -151 q 730 -298 704 -261 q 804 -335 756 -335 q 874 -301 843 -335 l 876 -300 q 885 -306 881 -300 q 886 -314 889 -311 q 824 -366 854 -350 q 757 -382 793 -382 q 659 -343 696 -382 q 622 -243 622 -304 q 663 -124 624 -185 q 775 8 703 -62 q 774 26 774 11 l 774 108 q 628 13 700 43 q 475 -17 557 -17 q 308 17 382 -17 q 192 113 235 50 q 150 258 150 175 l 150 756 q 141 817 149 797 q 112 844 133 836 q 44 851 90 851 q 42 860 42 851 q 44 868 42 868 l 108 867 q 201 864 164 864 q 299 867 238 864 l 363 868 q 367 860 367 868 q 364 851 367 851 q 295 843 317 851 q 267 815 274 835 q 258 753 260 794 l 258 307 q 325 99 257 174 q 515 25 393 25 q 645 51 585 25 q 774 142 706 78 l 771 753 q 765 815 772 794 q 736 843 758 835 q 668 851 714 851 q 665 860 665 851 q 668 868 665 868 l 732 867 q 826 864 790 864 q 921 867 860 864 l 986 868 q 990 860 990 868 q 988 851 990 851 q 920 844 942 851 q 890 817 899 836 q 882 756 882 797 l 882 113 q 891 50 882 69 q 925 24 900 31 q 1006 17 950 17 z "},"Ů":{"ha":1057,"x_min":42,"x_max":1010,"o":"m 1006 17 q 1010 8 1010 17 q 1006 0 1011 0 l 881 1 l 796 0 q 777 4 781 0 q 774 26 774 8 l 774 108 q 628 13 700 43 q 475 -17 557 -17 q 308 17 382 -17 q 192 113 235 50 q 150 258 150 175 l 150 756 q 141 817 149 797 q 112 844 133 836 q 44 851 90 851 q 42 860 42 851 q 44 868 42 868 l 108 867 q 201 864 164 864 q 299 867 238 864 l 363 868 q 367 860 367 868 q 364 851 367 851 q 295 843 317 851 q 267 815 274 835 q 258 753 260 794 l 258 307 q 325 99 257 174 q 515 25 393 25 q 645 51 585 25 q 774 142 706 78 l 771 753 q 765 815 772 794 q 736 843 758 835 q 668 851 714 851 q 665 860 665 851 q 668 868 665 868 l 732 867 q 826 864 790 864 q 921 867 860 864 l 986 868 q 990 860 990 868 q 988 851 990 851 q 920 844 942 851 q 890 817 899 836 q 882 756 882 797 l 882 113 q 891 50 882 69 q 925 24 900 31 q 1006 17 950 17 m 506 921 q 410 953 446 921 q 375 1031 375 986 q 419 1109 375 1081 q 519 1138 464 1138 q 611 1106 572 1138 q 650 1028 650 1074 q 606 950 650 979 q 506 921 561 921 m 528 938 q 574 1003 574 938 q 550 1087 574 1051 q 492 1122 526 1122 q 460 1106 469 1122 q 450 1058 450 1090 q 472 975 450 1013 q 528 938 493 938 z "},"Ũ":{"ha":1057,"x_min":42,"x_max":1010,"o":"m 1006 17 q 1010 8 1010 17 q 1006 0 1011 0 l 881 1 l 796 0 q 777 4 781 0 q 774 26 774 8 l 774 108 q 628 13 700 43 q 475 -17 557 -17 q 308 17 382 -17 q 192 113 235 50 q 150 258 150 175 l 150 756 q 141 817 149 797 q 112 844 133 836 q 44 851 90 851 q 42 860 42 851 q 44 868 42 868 l 108 867 q 201 864 164 864 q 299 867 238 864 l 363 868 q 367 860 367 868 q 364 851 367 851 q 295 843 317 851 q 267 815 274 835 q 258 753 260 794 l 258 307 q 325 99 257 174 q 515 25 393 25 q 645 51 585 25 q 774 142 706 78 l 771 753 q 765 815 772 794 q 736 843 758 835 q 668 851 714 851 q 665 860 665 851 q 668 868 665 868 l 732 867 q 826 864 790 864 q 921 867 860 864 l 986 868 q 990 860 990 868 q 988 851 990 851 q 920 844 942 851 q 890 817 899 836 q 882 756 882 797 l 882 113 q 891 50 882 69 q 925 24 900 31 q 1006 17 950 17 m 347 961 q 340 965 343 961 q 338 971 336 968 q 447 1065 386 1065 q 518 1050 469 1065 q 560 1040 525 1049 q 625 1031 594 1031 q 666 1040 651 1031 q 696 1068 681 1049 l 697 1068 q 704 1065 700 1068 q 707 1058 708 1061 q 656 984 678 1003 q 604 965 635 965 q 553 972 581 965 q 519 981 526 979 q 419 999 460 999 q 379 991 390 999 q 349 961 368 983 l 347 961 z "},"V":{"ha":893,"x_min":-7,"x_max":900,"o":"m 894 868 q 900 860 900 868 q 894 851 900 851 q 813 827 846 851 q 753 732 779 803 l 478 1 q 460 -4 476 -4 q 440 1 442 -4 l 110 753 q 61 829 86 807 q -3 851 36 851 q -7 860 -7 851 q -3 868 -7 868 l 60 867 q 124 864 101 864 q 226 867 168 864 l 288 868 q 294 860 294 868 q 288 851 294 851 q 228 842 249 851 q 208 807 208 832 q 219 767 208 793 l 496 142 l 714 738 q 724 783 724 763 q 617 851 724 851 q 613 860 613 851 q 617 868 613 868 l 676 867 q 769 864 726 864 q 833 867 797 864 l 894 868 z "},"W":{"ha":1246,"x_min":-8,"x_max":1253,"o":"m 1246 868 q 1253 860 1253 868 q 1246 851 1253 851 q 1165 827 1199 851 q 1104 732 1131 803 l 829 1 q 813 -4 828 -4 q 794 1 799 -4 l 624 390 l 478 1 q 460 -4 476 -4 q 440 1 442 -4 l 110 753 q 61 829 86 807 q -3 851 36 851 q -8 860 -7 851 q -3 868 -8 868 l 60 867 q 124 864 101 864 q 215 867 163 864 l 272 868 q 278 860 278 868 q 272 851 278 851 q 206 808 206 851 q 217 767 206 793 l 496 138 l 604 432 l 463 753 q 417 830 439 808 q 358 851 394 851 q 353 860 353 851 q 357 868 353 868 l 415 867 q 476 864 457 864 q 544 867 508 864 l 583 868 q 590 860 590 868 q 583 851 590 851 q 556 848 564 851 q 547 833 547 844 q 571 767 547 821 l 665 553 l 732 738 q 749 807 749 782 q 735 841 749 831 q 690 851 721 851 q 685 860 686 851 q 690 868 685 868 l 729 867 q 788 864 760 864 q 846 867 813 864 l 900 868 q 906 860 906 868 q 900 851 906 851 q 826 828 857 851 q 769 732 796 804 l 685 507 l 849 138 l 1069 738 q 1079 785 1079 769 q 1056 834 1079 817 q 983 851 1032 851 q 978 860 978 851 q 982 868 978 868 l 1039 867 q 1122 864 1086 864 q 1188 867 1149 864 l 1246 868 z "},"Ẃ":{"ha":1246,"x_min":-7,"x_max":1253,"o":"m 1246 868 q 1253 860 1253 868 q 1246 851 1253 851 q 1165 827 1199 851 q 1104 732 1131 803 l 829 1 q 813 -4 828 -4 q 794 1 799 -4 l 624 390 l 478 1 q 460 -4 476 -4 q 440 1 442 -4 l 110 753 q 61 829 86 807 q -3 851 36 851 q -8 860 -7 851 q -3 868 -8 868 l 60 867 q 124 864 101 864 q 215 867 163 864 l 272 868 q 278 860 278 868 q 272 851 278 851 q 206 808 206 851 q 217 767 206 793 l 496 138 l 604 432 l 463 753 q 417 830 439 808 q 358 851 394 851 q 353 860 353 851 q 357 868 353 868 l 415 867 q 476 864 457 864 q 544 867 508 864 l 583 868 q 590 860 590 868 q 583 851 590 851 q 556 848 564 851 q 547 833 547 844 q 571 767 547 821 l 665 553 l 732 738 q 749 807 749 782 q 735 841 749 831 q 690 851 721 851 q 685 860 686 851 q 690 868 685 868 l 729 867 q 788 864 760 864 q 846 867 813 864 l 900 868 q 906 860 906 868 q 900 851 906 851 q 826 828 857 851 q 769 732 796 804 l 685 507 l 849 138 l 1069 738 q 1079 785 1079 769 q 1056 834 1079 817 q 983 851 1032 851 q 978 860 978 851 q 982 868 978 868 l 1039 867 q 1122 864 1086 864 q 1188 867 1149 864 l 1246 868 m 539 942 q 531 948 533 942 q 532 957 528 954 q 653 1044 582 988 q 681 1067 665 1054 q 717 1093 696 1079 q 756 1088 722 1097 q 817 1065 790 1078 q 831 1050 843 1053 q 542 943 682 1011 l 539 942 z "},"Ŵ":{"ha":1246,"x_min":-7,"x_max":1253,"o":"m 1246 868 q 1253 860 1253 868 q 1246 851 1253 851 q 1165 827 1199 851 q 1104 732 1131 803 l 829 1 q 813 -4 828 -4 q 794 1 799 -4 l 624 390 l 478 1 q 460 -4 476 -4 q 440 1 442 -4 l 110 753 q 61 829 86 807 q -3 851 36 851 q -8 860 -7 851 q -3 868 -8 868 l 60 867 q 124 864 101 864 q 215 867 163 864 l 272 868 q 278 860 278 868 q 272 851 278 851 q 206 808 206 851 q 217 767 206 793 l 496 138 l 604 432 l 463 753 q 417 830 439 808 q 358 851 394 851 q 353 860 353 851 q 357 868 353 868 l 415 867 q 476 864 457 864 q 544 867 508 864 l 583 868 q 590 860 590 868 q 583 851 590 851 q 556 848 564 851 q 547 833 547 844 q 571 767 547 821 l 665 553 l 732 738 q 749 807 749 782 q 735 841 749 831 q 690 851 721 851 q 685 860 686 851 q 690 868 685 868 l 729 867 q 788 864 760 864 q 846 867 813 864 l 900 868 q 906 860 906 868 q 900 851 906 851 q 826 828 857 851 q 769 732 796 804 l 685 507 l 849 138 l 1069 738 q 1079 785 1079 769 q 1056 834 1079 817 q 983 851 1032 851 q 978 860 978 851 q 982 868 978 868 l 1039 867 q 1122 864 1086 864 q 1188 867 1149 864 l 1246 868 m 492 917 q 484 920 488 917 q 483 926 481 924 l 610 1069 q 622 1076 614 1076 q 636 1069 629 1076 l 768 926 q 767 919 771 924 q 761 917 764 914 l 624 988 l 493 917 l 492 917 z "},"Ẅ":{"ha":1246,"x_min":-7,"x_max":1253,"o":"m 1246 868 q 1253 860 1253 868 q 1246 851 1253 851 q 1165 827 1199 851 q 1104 732 1131 803 l 829 1 q 813 -4 828 -4 q 794 1 799 -4 l 624 390 l 478 1 q 460 -4 476 -4 q 440 1 442 -4 l 110 753 q 61 829 86 807 q -3 851 36 851 q -8 860 -7 851 q -3 868 -8 868 l 60 867 q 124 864 101 864 q 215 867 163 864 l 272 868 q 278 860 278 868 q 272 851 278 851 q 206 808 206 851 q 217 767 206 793 l 496 138 l 604 432 l 463 753 q 417 830 439 808 q 358 851 394 851 q 353 860 353 851 q 357 868 353 868 l 415 867 q 476 864 457 864 q 544 867 508 864 l 583 868 q 590 860 590 868 q 583 851 590 851 q 556 848 564 851 q 547 833 547 844 q 571 767 547 821 l 665 553 l 732 738 q 749 807 749 782 q 735 841 749 831 q 690 851 721 851 q 685 860 686 851 q 690 868 685 868 l 729 867 q 788 864 760 864 q 846 867 813 864 l 900 868 q 906 860 906 868 q 900 851 906 851 q 826 828 857 851 q 769 732 796 804 l 685 507 l 849 138 l 1069 738 q 1079 785 1079 769 q 1056 834 1079 817 q 983 851 1032 851 q 978 860 978 851 q 982 868 978 868 l 1039 867 q 1122 864 1086 864 q 1188 867 1149 864 l 1246 868 m 513 989 q 465 1006 482 989 q 447 1053 447 1022 q 465 1098 447 1082 q 513 1114 482 1114 q 558 1098 542 1114 q 575 1053 575 1082 q 558 1006 575 1022 q 513 989 542 989 m 735 989 q 688 1006 704 989 q 671 1053 671 1022 q 688 1098 671 1082 q 735 1114 704 1114 q 780 1098 764 1114 q 796 1053 796 1082 q 780 1006 796 1022 q 735 989 764 989 z "},"Ẁ":{"ha":1246,"x_min":-7,"x_max":1253,"o":"m 1246 868 q 1253 860 1253 868 q 1246 851 1253 851 q 1165 827 1199 851 q 1104 732 1131 803 l 829 1 q 813 -4 828 -4 q 794 1 799 -4 l 624 390 l 478 1 q 460 -4 476 -4 q 440 1 442 -4 l 110 753 q 61 829 86 807 q -3 851 36 851 q -8 860 -7 851 q -3 868 -8 868 l 60 867 q 124 864 101 864 q 215 867 163 864 l 272 868 q 278 860 278 868 q 272 851 278 851 q 206 808 206 851 q 217 767 206 793 l 496 138 l 604 432 l 463 753 q 417 830 439 808 q 358 851 394 851 q 353 860 353 851 q 357 868 353 868 l 415 867 q 476 864 457 864 q 544 867 508 864 l 583 868 q 590 860 590 868 q 583 851 590 851 q 556 848 564 851 q 547 833 547 844 q 571 767 547 821 l 665 553 l 732 738 q 749 807 749 782 q 735 841 749 831 q 690 851 721 851 q 685 860 686 851 q 690 868 685 868 l 729 867 q 788 864 760 864 q 846 867 813 864 l 900 868 q 906 860 906 868 q 900 851 906 851 q 826 828 857 851 q 769 732 796 804 l 685 507 l 849 138 l 1069 738 q 1079 785 1079 769 q 1056 834 1079 817 q 983 851 1032 851 q 978 860 978 851 q 982 868 978 868 l 1039 867 q 1122 864 1086 864 q 1188 867 1149 864 l 1246 868 m 761 951 q 619 1007 679 985 q 481 1050 558 1029 q 492 1065 467 1053 q 551 1088 517 1078 q 593 1093 586 1097 q 767 964 642 1054 q 771 958 771 963 q 767 953 771 956 q 761 951 764 950 z "},"X":{"ha":869,"x_min":6,"x_max":858,"o":"m 853 17 q 858 8 858 17 q 853 0 858 0 q 796 1 817 0 l 719 3 l 610 1 q 539 0 582 0 q 532 8 532 0 q 539 17 532 17 q 608 46 608 17 q 599 71 608 57 l 403 389 l 233 135 q 206 65 206 93 q 290 17 206 17 q 294 8 294 17 q 290 0 294 0 q 224 1 247 0 l 122 3 l 64 1 q 11 0 47 0 q 6 8 6 0 q 11 17 6 17 q 107 49 57 17 q 201 147 157 82 l 385 418 l 179 753 q 115 829 147 807 q 40 851 83 851 q 36 860 36 851 q 40 868 36 868 q 93 865 57 868 l 143 864 q 260 867 190 864 l 328 868 q 335 860 335 868 q 328 851 335 851 q 268 824 268 851 q 278 796 268 811 l 457 506 l 601 726 q 632 801 632 774 q 550 851 632 851 q 544 860 544 851 q 549 868 544 868 l 618 867 q 719 864 679 864 q 775 867 739 864 l 826 868 q 833 860 833 868 q 826 851 833 851 q 731 817 781 851 q 635 713 681 782 l 475 476 l 699 115 q 766 39 732 61 q 853 17 800 17 z "},"Y":{"ha":794,"x_min":-14,"x_max":804,"o":"m 799 868 q 804 860 804 868 q 799 851 804 851 q 621 714 703 851 l 457 431 l 457 113 q 467 50 458 69 q 497 24 475 31 q 569 17 519 17 q 576 8 576 17 q 569 0 576 0 q 503 1 526 0 l 404 3 l 301 1 q 233 0 276 0 q 228 8 228 0 q 233 17 228 17 q 308 24 283 17 q 341 51 332 31 q 350 113 350 71 l 349 417 l 126 753 q 62 828 93 806 q -8 851 31 851 q -14 860 -14 851 q -10 868 -14 868 l 50 867 q 110 864 92 864 q 215 867 149 864 l 283 868 q 289 861 289 868 q 287 855 289 858 q 282 851 285 851 q 213 828 213 851 q 226 796 213 815 l 442 464 l 589 729 q 610 794 610 767 q 591 837 610 822 q 535 851 572 851 q 529 860 529 851 q 535 868 529 868 l 601 867 q 696 864 657 864 q 751 867 718 864 l 799 868 z "},"Ý":{"ha":794,"x_min":-14,"x_max":804,"o":"m 799 868 q 804 860 804 868 q 799 851 804 851 q 621 714 703 851 l 457 431 l 457 113 q 467 50 458 69 q 497 24 475 31 q 569 17 519 17 q 576 8 576 17 q 569 0 576 0 q 503 1 526 0 l 404 3 l 301 1 q 233 0 276 0 q 228 8 228 0 q 233 17 228 17 q 308 24 283 17 q 341 51 332 31 q 350 113 350 71 l 349 417 l 126 753 q 62 828 93 806 q -8 851 31 851 q -14 860 -14 851 q -10 868 -14 868 l 50 867 q 110 864 92 864 q 215 867 149 864 l 283 868 q 289 861 289 868 q 287 855 289 858 q 282 851 285 851 q 213 828 213 851 q 226 796 213 815 l 442 464 l 589 729 q 610 794 610 767 q 591 837 610 822 q 535 851 572 851 q 529 860 529 851 q 535 868 529 868 l 601 867 q 696 864 657 864 q 751 867 718 864 l 799 868 m 319 942 q 311 948 314 942 q 313 957 308 954 q 433 1044 363 988 q 461 1067 446 1054 q 497 1093 476 1079 q 537 1088 503 1097 q 597 1065 571 1078 q 611 1050 624 1053 q 322 943 463 1011 l 319 942 z "},"Ŷ":{"ha":794,"x_min":-14,"x_max":804,"o":"m 799 868 q 804 860 804 868 q 799 851 804 851 q 621 714 703 851 l 457 431 l 457 113 q 467 50 458 69 q 497 24 475 31 q 569 17 519 17 q 576 8 576 17 q 569 0 576 0 q 503 1 526 0 l 404 3 l 301 1 q 233 0 276 0 q 228 8 228 0 q 233 17 228 17 q 308 24 283 17 q 341 51 332 31 q 350 113 350 71 l 349 417 l 126 753 q 62 828 93 806 q -8 851 31 851 q -14 860 -14 851 q -10 868 -14 868 l 50 867 q 110 864 92 864 q 215 867 149 864 l 283 868 q 289 861 289 868 q 287 855 289 858 q 282 851 285 851 q 213 828 213 851 q 226 796 213 815 l 442 464 l 589 729 q 610 794 610 767 q 591 837 610 822 q 535 851 572 851 q 529 860 529 851 q 535 868 529 868 l 601 867 q 696 864 657 864 q 751 867 718 864 l 799 868 m 272 917 q 265 920 268 917 q 264 926 261 924 l 390 1069 q 403 1076 394 1076 q 417 1069 410 1076 l 549 926 q 548 919 551 924 q 542 917 544 914 l 404 988 l 274 917 l 272 917 z "},"Ÿ":{"ha":794,"x_min":-14,"x_max":804,"o":"m 799 868 q 804 860 804 868 q 799 851 804 851 q 621 714 703 851 l 457 431 l 457 113 q 467 50 458 69 q 497 24 475 31 q 569 17 519 17 q 576 8 576 17 q 569 0 576 0 q 503 1 526 0 l 404 3 l 301 1 q 233 0 276 0 q 228 8 228 0 q 233 17 228 17 q 308 24 283 17 q 341 51 332 31 q 350 113 350 71 l 349 417 l 126 753 q 62 828 93 806 q -8 851 31 851 q -14 860 -14 851 q -10 868 -14 868 l 50 867 q 110 864 92 864 q 215 867 149 864 l 283 868 q 289 861 289 868 q 287 855 289 858 q 282 851 285 851 q 213 828 213 851 q 226 796 213 815 l 442 464 l 589 729 q 610 794 610 767 q 591 837 610 822 q 535 851 572 851 q 529 860 529 851 q 535 868 529 868 l 601 867 q 696 864 657 864 q 751 867 718 864 l 799 868 m 293 989 q 245 1006 263 989 q 228 1053 228 1022 q 245 1098 228 1082 q 293 1114 263 1114 q 339 1098 322 1114 q 356 1053 356 1082 q 339 1006 356 1022 q 293 989 322 989 m 515 989 q 468 1006 485 989 q 451 1053 451 1022 q 468 1098 451 1082 q 515 1114 485 1114 q 560 1098 544 1114 q 576 1053 576 1082 q 560 1006 576 1022 q 515 989 544 989 z "},"Ẏ":{"ha":794,"x_min":-14,"x_max":804,"o":"m 799 868 q 804 860 804 868 q 799 851 804 851 q 621 714 703 851 l 457 431 l 457 113 q 467 50 458 69 q 497 24 475 31 q 569 17 519 17 q 576 8 576 17 q 569 0 576 0 q 503 1 526 0 l 404 3 l 301 1 q 233 0 276 0 q 228 8 228 0 q 233 17 228 17 q 308 24 283 17 q 341 51 332 31 q 350 113 350 71 l 349 417 l 126 753 q 62 828 93 806 q -8 851 31 851 q -14 860 -14 851 q -10 868 -14 868 l 50 867 q 110 864 92 864 q 215 867 149 864 l 283 868 q 289 861 289 868 q 287 855 289 858 q 282 851 285 851 q 213 828 213 851 q 226 796 213 815 l 442 464 l 589 729 q 610 794 610 767 q 591 837 610 822 q 535 851 572 851 q 529 860 529 851 q 535 868 529 868 l 601 867 q 696 864 657 864 q 751 867 718 864 l 799 868 m 406 985 q 355 1003 374 985 q 336 1053 336 1021 q 355 1101 336 1083 q 406 1118 374 1118 q 454 1101 436 1118 q 472 1053 472 1083 q 455 1003 472 1021 q 406 985 438 985 z "},"Ỵ":{"ha":794,"x_min":-14,"x_max":804,"o":"m 799 868 q 804 860 804 868 q 799 851 804 851 q 621 714 703 851 l 457 431 l 457 113 q 467 50 458 69 q 497 24 475 31 q 569 17 519 17 q 576 8 576 17 q 569 0 576 0 q 503 1 526 0 l 404 3 l 301 1 q 233 0 276 0 q 228 8 228 0 q 233 17 228 17 q 308 24 283 17 q 341 51 332 31 q 350 113 350 71 l 349 417 l 126 753 q 62 828 93 806 q -8 851 31 851 q -14 860 -14 851 q -10 868 -14 868 l 50 867 q 110 864 92 864 q 215 867 149 864 l 283 868 q 289 861 289 868 q 287 855 289 858 q 282 851 285 851 q 213 828 213 851 q 226 796 213 815 l 442 464 l 589 729 q 610 794 610 767 q 591 837 610 822 q 535 851 572 851 q 529 860 529 851 q 535 868 529 868 l 601 867 q 696 864 657 864 q 751 867 718 864 l 799 868 m 411 -271 q 360 -253 379 -271 q 342 -203 342 -235 q 360 -156 342 -174 q 411 -139 379 -139 q 459 -156 442 -139 q 476 -203 476 -174 q 459 -253 476 -235 q 411 -271 442 -271 z "},"Ỳ":{"ha":794,"x_min":-14,"x_max":804,"o":"m 799 868 q 804 860 804 868 q 799 851 804 851 q 621 714 703 851 l 457 431 l 457 113 q 467 50 458 69 q 497 24 475 31 q 569 17 519 17 q 576 8 576 17 q 569 0 576 0 q 503 1 526 0 l 404 3 l 301 1 q 233 0 276 0 q 228 8 228 0 q 233 17 228 17 q 308 24 283 17 q 341 51 332 31 q 350 113 350 71 l 349 417 l 126 753 q 62 828 93 806 q -8 851 31 851 q -14 860 -14 851 q -10 868 -14 868 l 50 867 q 110 864 92 864 q 215 867 149 864 l 283 868 q 289 861 289 868 q 287 855 289 858 q 282 851 285 851 q 213 828 213 851 q 226 796 213 815 l 442 464 l 589 729 q 610 794 610 767 q 591 837 610 822 q 535 851 572 851 q 529 860 529 851 q 535 868 529 868 l 601 867 q 696 864 657 864 q 751 867 718 864 l 799 868 m 542 951 q 399 1007 460 985 q 261 1050 339 1029 q 272 1065 247 1053 q 332 1088 297 1078 q 374 1093 367 1097 q 547 964 422 1054 q 551 958 551 963 q 548 953 551 956 q 542 951 544 950 z "},"Ỷ":{"ha":794,"x_min":-14,"x_max":804,"o":"m 799 868 q 804 860 804 868 q 799 851 804 851 q 621 714 703 851 l 457 431 l 457 113 q 467 50 458 69 q 497 24 475 31 q 569 17 519 17 q 576 8 576 17 q 569 0 576 0 q 503 1 526 0 l 404 3 l 301 1 q 233 0 276 0 q 228 8 228 0 q 233 17 228 17 q 308 24 283 17 q 341 51 332 31 q 350 113 350 71 l 349 417 l 126 753 q 62 828 93 806 q -8 851 31 851 q -14 860 -14 851 q -10 868 -14 868 l 50 867 q 110 864 92 864 q 215 867 149 864 l 283 868 q 289 861 289 868 q 287 855 289 858 q 282 851 285 851 q 213 828 213 851 q 226 796 213 815 l 442 464 l 589 729 q 610 794 610 767 q 591 837 610 822 q 535 851 572 851 q 529 860 529 851 q 535 868 529 868 l 601 867 q 696 864 657 864 q 751 867 718 864 l 799 868 m 410 904 q 403 901 411 901 q 394 904 396 900 q 388 943 388 922 q 407 1014 388 972 q 425 1076 425 1053 q 410 1124 425 1107 q 369 1140 394 1140 q 328 1129 347 1140 l 325 1129 q 317 1133 321 1129 q 318 1142 314 1138 q 414 1172 358 1172 q 484 1151 458 1172 q 510 1094 510 1129 q 497 1050 510 1071 q 457 1000 483 1029 q 421 956 433 975 q 408 918 408 938 q 410 904 408 908 z "},"Ȳ":{"ha":794,"x_min":-14,"x_max":804,"o":"m 799 868 q 804 860 804 868 q 799 851 804 851 q 621 714 703 851 l 457 431 l 457 113 q 467 50 458 69 q 497 24 475 31 q 569 17 519 17 q 576 8 576 17 q 569 0 576 0 q 503 1 526 0 l 404 3 l 301 1 q 233 0 276 0 q 228 8 228 0 q 233 17 228 17 q 308 24 283 17 q 341 51 332 31 q 350 113 350 71 l 349 417 l 126 753 q 62 828 93 806 q -8 851 31 851 q -14 860 -14 851 q -10 868 -14 868 l 50 867 q 110 864 92 864 q 215 867 149 864 l 283 868 q 289 861 289 868 q 287 855 289 858 q 282 851 285 851 q 213 828 213 851 q 226 796 213 815 l 442 464 l 589 729 q 610 794 610 767 q 591 837 610 822 q 535 851 572 851 q 529 860 529 851 q 535 868 529 868 l 601 867 q 696 864 657 864 q 751 867 718 864 l 799 868 m 244 994 q 235 1017 235 994 q 244 1039 235 1039 l 569 1039 q 578 1032 575 1039 q 581 1017 581 1025 q 578 1001 581 1008 q 569 994 575 994 l 244 994 z "},"Ỹ":{"ha":794,"x_min":-14,"x_max":804,"o":"m 799 868 q 804 860 804 868 q 799 851 804 851 q 621 714 703 851 l 457 431 l 457 113 q 467 50 458 69 q 497 24 475 31 q 569 17 519 17 q 576 8 576 17 q 569 0 576 0 q 503 1 526 0 l 404 3 l 301 1 q 233 0 276 0 q 228 8 228 0 q 233 17 228 17 q 308 24 283 17 q 341 51 332 31 q 350 113 350 71 l 349 417 l 126 753 q 62 828 93 806 q -8 851 31 851 q -14 860 -14 851 q -10 868 -14 868 l 50 867 q 110 864 92 864 q 215 867 149 864 l 283 868 q 289 861 289 868 q 287 855 289 858 q 282 851 285 851 q 213 828 213 851 q 226 796 213 815 l 442 464 l 589 729 q 610 794 610 767 q 591 837 610 822 q 535 851 572 851 q 529 860 529 851 q 535 868 529 868 l 601 867 q 696 864 657 864 q 751 867 718 864 l 799 868 m 238 961 q 230 965 233 961 q 228 971 226 968 q 338 1065 276 1065 q 408 1050 360 1065 q 450 1040 415 1049 q 515 1031 485 1031 q 556 1040 542 1031 q 586 1068 571 1049 l 588 1068 q 594 1065 590 1068 q 597 1058 599 1061 q 547 984 568 1003 q 494 965 525 965 q 444 972 471 965 q 410 981 417 979 q 310 999 350 999 q 269 991 281 999 q 239 961 258 983 l 238 961 z "}}}
